{
.appVersion = "3227";
.formatVersion = 3;
DisplayStrings = (
"ABCDEFGHIJKLMNOPQRSTUVWXYZ
302569abcdefghijklmnopqrsftuvwxy
nnznn
awesome
26935,59602H?
HELP.!!!!!
25?!?!?!?????,000.,000 DOLLARS
naira
join
mentorship
examine,play.,
OJUJU
ojuju
exhale
fishy

ARK
MARK
ROOK
LUKE",
O0123456789,
e,
".,:;…!¡
H?H¿·•*#///backslash/periodcentered.loclCAT/periodcentered.loclCAT.case -–—_(){}[]‚„“”‘’«»‹›\"'",
"yz
uuynnonyooyoo
uuznnonzoozoo
",
"

uuannonaooaoo


abdgpq
bdbdbddbdbdbdbdbd

uubnnonbooboo

uucnnoncoocoo

uudnnondoodoo

uuennoneooeoo

uufnnonfoofoo

uugnnongoogoo

uuhnnonhoohoo

uuinnoniooioo

uujnnonjoojoo

uuknnonkookoo

uulnnonlooloo

uumnnonmoomoo

uunnnonnoonoo

uuonnonoooooo

uupnnonpoopoo

uuqnnonqooqoo

uurnnonrooroo

uusnnonsoosoo

uutnnontootoo

uuunnonuoouoo

uuvnnonvoovoo

uuwnnonwoowoo

uuxnnonxooxoo

uuynnonyooyoo

uuznnonzoozoo


volumetrics evolved evolution voluntary revolving 
",
b
);
axes = (
{
name = Weight;
tag = wght;
}
);
customParameters = (
{
name = "Variable Font Origin";
value = m01;
},
{
name = fsType;
value = (
);
},
{
name = blueScale;
value = 0.04;
},
{
name = blueShift;
value = 7;
},
{
name = blueFuzz;
value = 1;
},
{
name = "Use Typo Metrics";
value = 1;
},
{
name = "Axis Mappings";
value = {
wght = {
37 = 200;
51 = 300;
72 = 400;
102 = 500;
143 = 600;
201 = 700;
282 = 800;
};
};
}
);
date = "2023-09-24 04:03:02 +0000";
familyName = Ojuju;
fontMaster = (
{
axesValues = (
37
);
guides = (
{
locked = 1;
pos = (-522,656);
},
{
locked = 1;
pos = (101,741);
},
{
locked = 1;
pos = (465,459);
},
{
locked = 1;
pos = (424,21);
},
{
locked = 1;
pos = (376,-207);
}
);
id = "60D037D9-62E9-4843-B070-F1594CB0B0D1";
metricValues = (
{
over = 16;
pos = 740;
},
{
over = 16;
pos = 700;
},
{
over = 16;
pos = 480;
},
{
over = -16;
},
{
over = -16;
pos = -260;
},
{
}
);
name = ExtraLight;
visible = 1;
},
{
axesValues = (
282
);
guides = (
{
angle = 180;
locked = 1;
pos = (409,329);
},
{
locked = 1;
pos = (99,720);
},
{
locked = 1;
pos = (-339,-226);
}

glyphs = (
{
color = 2;
glyphname = A;
lastChange = "2023-11-17 19:57:33 +0000";
layers = (
{
anchors = (
{
name = bottom;
pos = (330,0);
},
{
name = ogonek;
pos = (561,10);
},
{
name = top;
pos = (330,700);
}
);
layerId = m01;
shapes = (
{
closed = 1;
nodes = (
(126,0,l),
(126,54,o),
(127,82,o),
(131,102,cs),
(141,151,o),
(157,155,o),
(329,155,cs),
(501,155,o),
(517,151,o),
(527,102,cs),
(531,82,o),
(532,54,o),
(532,0,c),
(628,0,l),
(599,214,o),
(582,417,o),
(570,700,c),
(88,700,l),
(76,417,o),
(59,214,o),
(30,0,c)
);
},
{
closed = 1;
nodes = (
(232,289,o),
(197,292,o),
(170,304,cs),
(143,315,o),
(136,328,o),
(136,362,cs),
(136,389,o),
(143,400,o),
(166,413,cs),
(199,429,o),
(235,434,o),
(329,434,cs),
(423,434,o),
(459,429,o),
(492,413,cs),
(515,400,o),
(522,389,o),
(522,362,cs),
(522,328,o),
(515,315,o),
(488,304,cs),
(461,292,o),
(426,289,o),
(329,289,cs)
);
}
);
width = 658;
},
{
anchors = (
{
name = bottom;
pos = (297,0);
},
{
name = ogonek;
pos = (495,10);
},
{
name = top;
pos = (297,700);
}
);
layerId = "60D037D9-62E9-4843-B070-F1594CB0B0D1";
shapes = (
{
closed = 1;
nodes = (
(80,0,l),
(84,40,o),
(94,137,o),
(98,179,cs),
(101,207,o),
(114,212,o),
(295,212,cs),
(476,212,o),
(490,207,o),
(493,179,cs),
(497,137,o),
(506,40,o),
(510,0,c),
(534,0,l),
(503,232,o),
(480,468,o),
(465,700,c),
(125,700,l),
(110,468,o),
(87,232,o),
(56,0,c)
);
},
{
closed = 1;
nodes = (
(123,243,o),
(113,246,o),
(113,276,cs),
(113,331,o),
(122,413,o),
(126,466,cs),
(131,526,o),
(136,585,o),
(140,630,cs),
(143,661,o),
(153,663,o),
(295,663,cs),
(437,663,o),
(447,661,o),
(450,630,cs),
(455,588,o),
(461,524,o),
(466,466,cs),
(470,413,o),
(479,331,o),
(479,276,cs),
(479,246,o),
(469,243,o),
(296,243,cs)
);
}
);
width = 590;
}
);
unicode = 65;
},
{
color = 2;
glyphname = B;
lastChange = "2023-11-17 19:56:46 +0000";
layers = (
{
anchors = (
{
name = bottom;
pos = (332,0);
},
{
name = center;
pos = (332,350);
},
{
name = top;
pos = (332,700);
}
);
background = {
shapes = (
{
closed = 1;
nodes = (
(622,-8,o),
(730,121,o),
(730,354,cs),
(730,574,o),
(622,710,o),
(396,710,cs),
(170,710,o),
(62,574,o),
(62,351,cs),
(62,118,o),
(170,-8,o),
(396,-8,cs)
);
},
{
closed = 1;
nodes = (
(163,196,o),
(137,221,o),
(137,273,cs),
(137,325,o),
(158,350,o),
(396,350,cs),
(634,350,o),
(663,325,o),
(663,273,cs),
(663,221,o),
(634,196,o),
(396,196,cs)
);
}
);
};
layerId = m01;
shapes = (
{
closed = 1;
nodes = (
(410,0,ls),
(562,0,o),
(624,56,o),
(624,193,cs),
(624,295,o),
(584,346,o),
(487,368,c),
(553,376,o),
(580,420,o),
(580,517,cs),
(580,644,o),
(532,698,o),
(414,699,cs),
(62,701,l),
(66,452,o),
(66,249,o),
(62,0,c)
);
},
{
closed = 1;
nodes = (
(230,192,o),
(195,195,o),
(167,207,cs),
(140,218,o),
(132,230,o),
(132,263,cs),
(132,292,o),
(139,304,o),
(164,316,cs),
(196,332,o),
(231,337,o),
(326,337,cs),
(415,337,o),
(448,333,o),
(479,318,cs),
(505,306,o),
(512,293,o),
(512,262,cs),
(512,232,o),
(506,221,o),
(484,210,cs),
(456,196,o),
(421,192,o),
(324,192,cs)
);
},
{
closed = 1;
nodes = (
(226,391,o),
(195,393,o),
(171,398,cs),
(147,404,o),
(140,410,o),
(140,427,cs),
(140,444,o),
(146,451,o),
(169,457,cs),
(192,463,o),
(224,466,o),
(308,466,cs),
(393,466,o),
(423,465,o),
(452,457,cs),
(475,450,o),
(482,443,o),
(482,426,cs),
(482,412,o),
(476,406,o),
(456,400,cs),
(432,393,o),
(400,391,o),
(310,391,cs)
);
}
);
width = 664;
},
{
anchors = (
{
name = bottom;
pos = (324,0);
},
{
name = center;
pos = (324,350);
},
{
name = top;
pos = (324,700);
}
);
background = {
shapes = (
{
pos = (-4,0);
ref = M;
}
);
};
layerId = "60D037D9-62E9-4843-B070-F1594CB0B0D1";
shapes = (
{
closed = 1;
nodes = (
(325,0,ls),
(432,0,o),
(557,30,o),
(557,187,cs),
(557,277,o),
(516,337,o),
(428,365,c),
(487,395,o),
(519,455,o),
(520,515,cs),
(521,573,o),
(493,699,o),
(344,699,cs),
(91,700,l),
(94,466,o),
(93,234,o),
(90,0,c)
);
},
{
closed = 1;
nodes = (
(132,37,o),
(118,38,o),
(114,68,cs),
(111,90,o),
(111,146,o),
(111,194,cs),
(111,236,o),
(111,299,o),
(114,321,cs),
(118,351,o),
(133,351,o),
(241,351,cs),
(402,351,o),
(436,344,o),
(468,322,cs),
(512,292,o),
(534,248,o),
(534,192,cs),
(534,125,o),
(502,84,o),
(473,64,cs),
(435,38,o),
(386,37,o),
(259,37,cs)
);
},
{
closed = 1;
nodes = (
(132,374,o),
(118,374,o),
(114,404,cs),
(111,424,o),
(112,463,o),
(112,518,cs),
(112,573,o),
(111,612,o),
(114,632,cs),
(118,662,o),
(132,662,o),
(241,662,cs),
(393,662,o),
(418,653,o),
(444,632,cs),
(492,594,o),
(497,554,o),
(497,524,cs),
(497,462,o),
(476,427,o),
(439,401,cs),
(399,372,o),
(364,374,o),
(241,374,cs)
);
}
);
width = 614;
}
);
metricLeft = H;
unicode = 66;
},
{
color = 2;
glyphname = C;
lastChange = "2023-11-17 19:55:32 +0000";
layers = (
{
anchors = (
{
name = bottom;
pos = (328,0);
},
{
name = top;
pos = (342,700);
}
);
layerId = m01;
shapes = (
{
closed = 1;
nodes = (
(430,-8,o),
(486,2,o),
(543,24,c),
(543,216,l),
(497,201,o),
(438,196,o),
(307,196,cs),
(140,196,o),
(117,206,o),
(117,276,cs),
(117,341,o),
(140,350,o),
(306,350,cs),
(431,350,o),
(508,344,o),
(543,331,c),
(543,686,l),
(506,700,o),
(444,710,o),
(393,710,cs),
(157,710,o),
(42,594,o),
(42,354,cs),
(42,117,o),
(155,-8,o),
(370,-8,cs)
);
}
);
width = 585;
},
{
anchors = (
{
name = bottom;
pos = (335,0);
},
{
name = top;
pos = (331,700);
}
);
layerId = "60D037D9-62E9-4843-B070-F1594CB0B0D1";
shapes = (
{
closed = 1;
nodes = (
(417,-8,o),
(470,17,o),
(489,27,c),
(489,76,l),
(443,56,o),
(426,34,o),
(331,33,cs),
(97,31,o),
(76,286,o),
(76,351,cs),
(76,467,o),
(136,671,o),
(339,671,cs),
(435,671,o),
(468,648,o),
(489,638,c),
(489,683,l),
(468,692,o),
(440,710,o),
(360,710,cs),
(203,710,o),
(57,597,o),
(57,351,cs),
(57,182,o),
(125,-8,o),
(335,-8,cs)
);
}
);
width = 544;
}
);
metricLeft = O;
metricRight = O;
unicode = 67;
},
{
color = 2;
glyphname = D;
lastChange = "2023-11-17 19:54:55 +0000";
layers = (
{
anchors = (
{
name = bottom;
pos = (342,0);
},
{
name = center;
pos = (342,350);
},
{
name = top;
pos = (342,700);
}
);
background = {
shapes = (
{
closed = 1;
nodes = (
(632,-8,o),
(740,121,o),
(740,354,cs),
(740,574,o),
(632,710,o),
(406,710,cs),
(180,710,o),
(72,574,o),
(72,351,cs),
(72,118,o),
(180,-8,o),
(406,-8,cs)
);
},
{
closed = 1;
nodes = (
(173,196,o),
(147,221,o),
(147,273,cs),
(147,325,o),
(168,350,o),
(406,350,cs),
(644,350,o),
(673,325,o),
(673,273,cs),
(673,221,o),
(644,196,o),
(406,196,cs)
);
}
);
};
layerId = m01;
shapes = (
{
closed = 1;
nodes = (
(171,0,o),
(254,0,o),
(318,0,cs),
(448,0,o),
(496,8,o),
(537,38,cs),
(606,87,o),
(625,156,o),
(625,349,cs),
(625,543,o),
(607,611,o),
(541,657,cs),
(492,691,o),
(442,700,o),
(311,700,cs),
(248,700,o),
(167,700,o),
(62,700,c),
(74,427,o),
(74,273,o),
(62,0,c)
);
},
{
closed = 1;
nodes = (
(221,204,o),
(193,208,o),
(163,231,cs),
(140,248,o),
(136,261,o),
(136,318,cs),
(136,377,o),
(140,391,o),
(163,408,cs),
(193,430,o),
(221,434,o),
(346,434,cs),
(473,434,o),
(501,430,o),
(528,406,cs),
(550,388,o),
(554,375,o),
(554,321,cs),
(554,265,o),
(550,251,o),
(525,231,cs),
(497,208,o),
(470,204,o),
(349,204,cs)
);
}
);
width = 667;
},
{
anchors = (
{
name = bottom;
pos = (334,0);
},
{
name = center;
pos = (334,350);
},
{
name = top;
pos = (334,700);
}
);
layerId = "60D037D9-62E9-4843-B070-F1594CB0B0D1";
shapes = (
{
closed = 1;
nodes = (
(188,0,o),
(260,1,o),
(313,1,cs),
(402,1,o),
(429,7,o),
(459,21,cs),
(514,46,o),
(560,102,o),
(560,354,cs),
(560,597,o),
(517,633,o),
(479,660,cs),
(449,681,o),
(405,700,o),
(304,700,cs),
(252,700,o),
(183,700,o),
(90,700,c),
(94,468,o),
(94,232,o),
(90,0,c)
);
},
{
closed = 1;
nodes = (
(118,37,o),
(117,34,o),
(115,123,cs),
(114,156,o),
(113,257,o),
(113,350,cs),
(113,394,o),
(114,562,o),
(116,597,cs),
(119,661,o),
(119,661,o),
(286,661,cs),
(336,661,o),
(424,665,o),
(475,620,cs),
(536,567,o),
(540,413,o),
(540,358,cs),
(540,314,o),
(535,140,o),
(485,84,cs),
(444,38,o),
(368,37,o),
(292,37,cs)
);
}
);
width = 615;
}
);
metricLeft = H;
metricRight = O;
unicode = 68;
},
{
color = 3;
glyphname = E;
lastChange = "2023-11-17 19:54:39 +0000";
layers = (
{
anchors = (
{
name = bottom;
pos = (363,0);
},
{
name = ogonek;
pos = (603,10);
},
{
name = top;
pos = (363,700);
},
{
name = topleft;
pos = (83,700);
}
);
background = {
shapes = (
{
pos = (-2,0);
ref = M;
}
);
};
layerId = "60D037D9-62E9-4843-B070-F1594CB0B0D1";
shapes = (
{
closed = 1;
nodes = (
(499,0,l),
(499,37,l),
(445,37,o),
(354,36,o),
(276,36,cs),
(120,36,o),
(121,36,o),
(114,66,cs),
(111,79,o),
(112,139,o),
(112,191,cs),
(112,236,o),
(111,303,o),
(114,316,cs),
(121,347,o),
(122,346,o),
(276,347,cs),
(409,348,o),
(434,347,o),
(491,346,c),
(491,381,l),
(434,380,o),
(409,380,o),
(276,379,cs),
(122,378,o),
(123,378,o),
(116,408,cs),
(113,421,o),
(112,499,o),
(112,521,cs),
(112,543,o),
(113,620,o),
(116,633,cs),
(123,663,o),
(122,663,o),
(276,663,cs),
(354,663,o),
(448,663,o),
(498,663,c),
(499,700,l),
(90,700,l),
(93,466,o),
(93,234,o),
(90,0,c)
);
}
);
width = 579;
},
{
anchors = (
{
name = bottom;
pos = (332,0);
},
{
name = ogonek;
pos = (572,10);
},
{
name = top;
pos = (332,700);
},
{
name = topleft;
pos = (52,700);
}
);
layerId = m01;
shapes = (
{
closed = 1;
nodes = (
(580,0,l),
(575,197,l),
(565,194,o),
(441,192,o),
(323,192,cs),
(237,192,o),
(204,194,o),
(173,202,cs),
(146,210,o),
(139,218,o),
(139,238,cs),
(139,257,o),
(146,264,o),
(171,272,cs),
(207,283,o),
(238,286,o),
(308,286,cs),
(359,286,o),
(552,283,o),
(568,282,c),
(568,361,l),
(546,360,o),
(336,357,o),
(280,357,cs),
(223,357,o),
(201,359,o),
(176,366,cs),
(153,373,o),
(147,380,o),
(147,398,cs),
(147,417,o),
(153,424,o),
(175,431,cs),
(200,440,o),
(227,442,o),
(300,442,cs),
(451,442,o),
(568,441,o),
(575,439,c),
(580,700,l),
(62,700,l),
(66,466,o),
(66,234,o),
(62,0,c)
);
}
);
width = 620;
}
);
metricLeft = H;
unicode = 69;
},
{
color = 3;
glyphname = F;
lastChange = "2023-11-17 19:54:28 +0000";
layers = (
{
anchors = (
{
name = bottom;
pos = (318,0);
},
{
name = top;
pos = (318,700);
}
);
background = {
shapes = (
{
closed = 1;
nodes = (
(70,467,o),
(70,233,o),
(62,0,c),
(176,0,l),
(151,322,o),
(121,379,o),
(221,379,cs),
(344,379,o),
(348,264,o),
(422,0,c),
(587,0,l),
(579,233,o),
(579,467,o),
(587,700,c),
(473,700,l),
(497,324,o),
(502,300,o),
(455,300,cs),
(393,300,o),
(383,325,o),
(293,700,c),
(62,700,l)
);
}
);
};
layerId = m01;
shapes = (
{
closed = 1;
nodes = (
(168,0,l),
(162,83,o),
(158,175,o),
(158,207,cs),
(158,271,o),
(194,279,o),
(323,279,cs),
(410,279,o),
(450,278,o),
(576,275,c),
(576,354,l),
(361,350,o),
(365,350,o),
(305,350,cs),
(227,350,o),
(199,352,o),
(176,359,cs),
(153,366,o),
(147,374,o),
(147,396,cs),
(147,416,o),
(153,424,o),
(175,431,cs),
(204,441,o),
(232,444,o),
(303,444,cs),
(334,444,o),
(442,443,o),
(580,441,c),
(580,699,l),
(62,701,l),
(66,467,o),
(66,234,o),
(62,0,c)
);
}
);
width = 616;
},
{
anchors = (
{
name = bottom;
pos = (311,0);
},
{
name = top;
pos = (311,700);
}
);
background = {
shapes = (
{
pos = (11,0);
ref = E;
}
);
};
layerId = "60D037D9-62E9-4843-B070-F1594CB0B0D1";
shapes = (
{
closed = 1;
nodes = (
(120,0,l),
(112,124,o),
(114,242,o),
(115,260,cs),
(117,330,o),
(122,332,o),
(284,330,cs),
(359,329,o),
(335,329,o),
(489,328,c),
(489,360,l),
(335,359,o),
(359,358,o),
(284,357,cs),
(126,355,o),
(121,356,o),
(117,379,cs),
(116,387,o),
(112,449,o),
(112,506,cs),
(112,563,o),
(112,628,o),
(115,636,cs),
(121,653,o),
(128,663,o),
(282,663,cs),
(310,663,o),
(345,663,o),
(496,663,c),
(497,700,l),
(90,701,l),
(94,467,o),
(94,234,o),
(90,0,c)
);
}
);
width = 555;
}
);
metricLeft = H;
unicode = 70;
},
{
color = 1;
glyphname = G;
lastChange = "2023-11-17 19:54:18 +0000";
layers = (
{
layerId = m01;
shapes = (
{
closed = 1;
nodes = (
(453,-8,o),
(508,7,o),
(543,32,c),
(544,138,o),
(547,218,o),
(551,295,c),
(447,295,l),
(455,264,o),
(458,212,o),
(452,210,cs),
(422,201,o),
(386,196,o),
(345,196,cs),
(135,196,o),
(117,202,o),
(117,276,cs),
(117,344,o),
(135,350,o),
(342,350,cs),
(431,350,o),
(529,340,o),
(543,330,c),
(543,680,l),
(512,699,o),
(457,710,o),
(397,710,cs),
(156,710,o),
(42,597,o),
(42,352,cs),
(42,107,o),
(155,-8,o),
(394,-8,cs)
);
}
);
width = 601;
},
{
background = {
shapes = (
{
pos = (-3,0);
ref = C;
}
);
};
layerId = "60D037D9-62E9-4843-B070-F1594CB0B0D1";
shapes = (
{
closed = 1;
nodes = (
(401,-7,o),
(473,4,o),
(508,27,c),
(508,133,o),
(508,170,o),
(511,247,c),
(473,247,l),
(485,170,o),
(488,61,o),
(481,57,cs),
(452,40,o),
(386,30,o),
(344,30,cs),
(166,30,o),
(71,208,o),
(78,362,cs),
(81,428,o),
(111,673,o),
(359,673,cs),
(449,673,o),
(493,641,o),
(509,632,c),
(510,682,l),
(482,698,o),
(421,710,o),
(370,710,cs),
(215,710,o),
(57,597,o),
(57,351,cs),
(57,135,o),
(178,-7,o),
(352,-7,cs)
);
}
);
width = 575;
}
);
metricLeft = C;
unicode = 71;
},
{
color = 5;
glyphname = H;
lastChange = "2023-11-17 19:53:54 +0000";
layers = (
{
anchors = (
{
name = bottom;
pos = (366,0);
},
{
name = center;
pos = (366,350);
},
{
name = top;
pos = (366,700);
},
{
name = topleft;
pos = (30,700);
}
);
layerId = m01;
shapes = (
{
closed = 1;
nodes = (
(164,0,l),
(159,72,o),
(159,81,o),
(159,119,cs),
(159,212,o),
(176,220,o),
(366,220,cs),
(556,220,o),
(573,212,o),
(573,119,cs),
(573,81,o),
(573,72,o),
(568,0,c),
(670,0,l),
(659,249,o),
(659,451,o),
(670,700,c),
(568,700,l),
(573,581,ls),
(575,532,o),
(558,528,o),
(366,528,cs),
(174,528,o),
(157,532,o),
(159,581,cs),
(164,700,l),
(62,700,l),
(73,451,o),
(73,249,o),
(62,0,c)
);
}
);
width = 732;
},
{
anchors = (
{
name = bottom;
pos = (315,0);
},
{
name = center;
pos = (315,350);
},
{
name = top;
pos = (315,700);
},
{
name = topleft;
pos = (34,700);
}
);
layerId = "60D037D9-62E9-4843-B070-F1594CB0B0D1";
shapes = (
{
closed = 1;
nodes = (
(117,0,l),
(115,81,o),
(115,110,o),
(115,296,cs),
(115,327,o),
(128,329,o),
(315,329,cs),
(502,329,o),
(515,327,o),
(515,296,cs),
(515,110,o),
(515,81,o),
(513,0,c),
(540,0,l),
(537,233,o),
(537,467,o),
(540,700,c),
(513,700,l),
(515,399,ls),
(515,368,o),
(502,366,o),
(315,366,cs),
(128,366,o),
(115,368,o),
(115,399,cs),
(117,700,l),
(90,700,l),
(93,467,o),
(93,233,o),
(90,0,c)
);
}
);
width = 630;
}
);
unicode = 72;
},
{
color = 3;
glyphname = I;
lastChange = "2023-11-17 19:53:41 +0000";
layers = (
{
anchors = (
{
name = bottom;
pos = (239,0);
},
{
name = ogonek;
pos = (435,0);
},
{
name = top;
pos = (239,700);
},
{
name = topleft;
pos = (12,700);
}
);
layerId = m01;
shapes = (
{
closed = 1;
nodes = (
(435,0,l),
(435,193,l),
(355,193,o),
(335,195,o),
(302,204,cs),
(279,213,o),
(275,231,o),
(275,329,cs),
(275,418,o),
(279,435,o),
(302,444,cs),
(335,453,o),
(355,455,o),
(435,455,c),
(435,699,l),
(42,699,l),
(42,455,l),
(122,455,o),
(142,453,o),
(175,444,cs),
(198,435,o),
(202,418,o),
(202,329,cs),
(202,231,o),
(198,213,o),
(175,204,cs),
(142,195,o),
(122,193,o),
(42,193,c),
(42,0,l)
);
}
);
width = 477;
},
{
anchors = (
{
name = bottom;
pos = (196,0);
},
{
name = ogonek;
pos = (357,0);
},
{
name = top;
pos = (196,700);
},
{
name = topleft;
pos = (-26,700);
}
);
layerId = "60D037D9-62E9-4843-B070-F1594CB0B0D1";
shapes = (
{
closed = 1;
nodes = (
(336,0,l),
(336,34,l),
(253,34,o),
(237,35,o),
(225,41,cs),
(208,49,o),
(206,68,o),
(206,258,cs),
(206,645,o),
(206,645,o),
(233,655,cs),
(260,663,o),
(286,666,o),
(336,666,c),
(336,699,l),
(57,699,l),
(57,666,l),
(107,666,o),
(133,663,o),
(160,655,cs),
(187,645,o),
(187,645,o),
(187,258,cs),
(187,68,o),
(185,49,o),
(168,41,cs),
(156,35,o),
(140,34,o),
(57,34,c),
(57,0,l)
);
}
);
width = 391;
}
);
metricLeft = O;
metricRight = O;
unicode = 73;
},
{
color = 1;
glyphname = J;
lastChange = "2023-11-17 19:53:33 +0000";
layers = (
{
anchors = (
{
name = bottom;
pos = (271,0);
},
{
name = top;
pos = (271,700);
}
);
layerId = m01;
shapes = (
{
closed = 1;
nodes = (
(329,-16,o),
(381,43,o),
(381,190,cs),
(381,399,ls),
(381,426,o),
(385,433,o),
(408,441,cs),
(439,450,o),
(456,452,o),
(521,452,c),
(521,700,l),
(107,700,l),
(107,452,l),
(223,452,o),
(249,450,o),
(281,441,cs),
(304,433,o),
(308,426,o),
(308,399,cs),
(308,279,ls),
(308,222,o),
(299,196,o),
(229,196,cs),
(90,196,o),
(65,206,o),
(42,216,c),
(42,14,l),
(69,4,o),
(105,-16,o),
(221,-16,cs)
);
}
);
width = 563;
},
{
anchors = (
{
name = bottom;
pos = (258,0);
},
{
name = top;
pos = (258,700);
}
);
layerId = "60D037D9-62E9-4843-B070-F1594CB0B0D1";
shapes = (
{
closed = 1;
nodes = (
(251,-16,o),
(291,28,o),
(291,190,cs),
(291,615,ls),
(291,639,o),
(299,650,o),
(318,657,cs),
(338,663,o),
(352,668,o),
(408,668,c),
(408,700,l),
(138,700,l),
(138,668,l),
(219,668,o),
(237,662,o),
(249,657,cs),
(269,649,o),
(270,639,o),
(270,615,cs),
(270,185,ls),
(270,156,o),
(271,21,o),
(172,21,cs),
(122,21,o),
(89,30,o),
(57,42,c),
(57,3,l),
(84,-4,o),
(117,-16,o),
(154,-16,cs)
);
}
);
width = 463;
}
);
metricLeft = O;
metricRight = O;
unicode = 74;
},
{
color = 2;
glyphname = K;
lastChange = "2023-11-21 12:11:33 +0000";
layers = (
{
anchors = (
{
name = bottom;
pos = (349,0);
},
{
name = top;
pos = (349,700);
}
);
background = {
shapes = (
{
pos = (-1,0);
ref = R;
}
);
};
layerId = m01;
shapes = (
{
closed = 1;
nodes = (
(573,-10,o),
(614,-6,o),
(658,0,c),
(658,235,l),
(612,226,o),
(571,221,o),
(536,220,cs),
(425,216,o),
(365,240,o),
(331,257,cs),
(307,269,o),
(299,273,o),
(299,284,cs),
(299,298,o),
(307,300,o),
(347,310,cs),
(549,362,o),
(612,370,o),
(639,577,cs),
(644,612,o),
(647,652,o),
(650,700,c),
(406,700,l),
(375,394,o),
(364,367,o),
(273,367,cs),
(170,367,o),
(161,371,o),
(160,417,cs),
(160,436,o),
(164,642,o),
(164,700,c),
(62,700,l),
(68,467,o),
(68,233,o),
(62,0,c),
(164,0,l),
(160,75,o),
(154,126,o),
(154,186,cs),
(154,227,o),
(155,236,o),
(160,245,cs),
(167,257,o),
(172,259,o),
(197,259,cs),
(218,259,o),
(222,257,o),
(228,244,cs),
(254,190,o),
(267,-10,o),
(537,-10,cs)
);
}
);
width = 697;
},
{
anchors = (
{
name = bottom;
pos = (342,0);
},
{
name = top;
pos = (342,700);
}
);
background = {
shapes = (
{
pos = (-1,0);
ref = R;
}
);
};
layerId = "60D037D9-62E9-4843-B070-F1594CB0B0D1";
shapes = (
{
closed = 1;
nodes = (
(569,-8,o),
(581,-5,o),
(598,0,c),
(598,32,l),
(584,30,o),
(568,28,o),
(538,28,cs),
(441,28,o),
(355,87,o),
(311,160,cs),
(288,198,o),
(265,266,o),
(256,295,cs),
(250,314,o),
(252,318,o),
(313,324,cs),
(345,327,o),
(433,342,o),
(474,450,cs),
(492,498,o),
(515,574,o),
(531,700,c),
(498,700,l),
(463,403,o),
(433,354,o),
(235,346,cs),
(126,342,o),
(119,349,o),
(117,398,cs),
(116,417,o),
(117,642,o),
(117,700,c),
(90,700,l),
(96,467,o),
(96,233,o),
(90,0,c),
(119,0,l),
(118,75,o),
(117,126,o),
(117,186,cs),
(117,206,o),
(117,275,o),
(119,296,cs),
(125,316,o),
(139,316,o),
(192,316,cs),
(223,316,o),
(227,314,o),
(233,294,cs),
(287,97,o),
(376,-8,o),
(542,-8,cs)
);
}
);
width = 623;
}
);
metricLeft = H;
unicode = 75;
},
{
color = 1;
glyphname = L;
lastChange = "2023-11-17 19:52:39 +0000";
layers = (
{
anchors = (
{
name = bottom;
pos = (265,0);
},
{
name = center;
pos = (265,350);
},
{
name = top;
pos = (265,700);
},
{
name = topright;
pos = (469,700);
}
);
layerId = m01;
shapes = (
{
closed = 1;
nodes = (
(477,0,l),
(473,88,o),
(473,176,o),
(477,264,c),
(380,261,ls),
(348,260,o),
(311,259,o),
(281,259,cs),
(160,259,o),
(150,265,o),
(150,332,cs),
(150,363,o),
(154,482,o),
(168,701,c),
(62,701,l),
(64,584,o),
(65,467,o),
(65,351,cs),
(65,234,o),
(64,117,o),
(62,0,c)
);
}
);
width = 513;
},
{
anchors = (
{
name = bottom;
pos = (259,0);
},
{
name = center;
pos = (259,350);
},
{
name = top;
pos = (259,700);
},
{
name = topright;
pos = (539,700);
}
);
layerId = "60D037D9-62E9-4843-B070-F1594CB0B0D1";
shapes = (
{
closed = 1;
nodes = (
(398,0,l),
(397,28,o),
(397,9,o),
(398,39,c),
(301,36,ls),
(269,35,o),
(232,34,o),
(202,34,cs),
(133,34,o),
(115,50,o),
(114,145,cs),
(114,176,o),
(111,482,o),
(120,701,c),
(90,701,l),
(92,584,o),
(93,467,o),
(93,351,cs),
(93,234,o),
(92,117,o),
(90,0,c)
);
}
);
width = 456;
}
);
metricLeft = H;
metricRight = F;
unicode = 76;
},
{
color = 3;
glyphname = M;
lastChange = "2023-11-17 19:52:25 +0000";
layers = (
{
anchors = (
{
name = bottom;
pos = (421,0);
},
{
name = top;
pos = (421,700);
}
);
background = {
shapes = (
{
pos = (62,0);
ref = H;
}
);
};
layerId = m01;
shapes = (
{
closed = 1;
nodes = (
(172,0,l),
(156,97,o),
(147,182,o),
(147,249,cs),
(147,288,o),
(151,303,o),
(166,316,cs),
(176,326,o),
(190,329,o),
(227,329,cs),
(277,329,o),
(283,328,o),
(301,312,cs),
(328,286,o),
(333,261,o),
(369,0,c),
(473,0,l),
(509,261,o),
(514,286,o),
(541,312,cs),
(559,328,o),
(565,329,o),
(615,329,cs),
(652,329,o),
(666,326,o),
(676,316,cs),
(691,303,o),
(695,288,o),
(695,249,cs),
(695,182,o),
(686,97,o),
(670,0,c),
(780,0,l),
(776,117,o),
(774,233,o),
(774,350,cs),
(774,467,o),
(776,584,o),
(780,700,c),
(482,700,l),
(465,381,o),
(460,353,o),
(421,353,cs),
(382,353,o),
(377,381,o),
(360,700,c),
(62,700,l),
(66,584,o),
(68,467,o),
(68,350,cs),
(68,233,o),
(66,117,o),
(62,0,c)
);
}
);
width = 842;
},
{
anchors = (
{
name = bottom;
pos = (390,0);
},
{
name = top;
pos = (390,700);
}
);
layerId = "60D037D9-62E9-4843-B070-F1594CB0B0D1";
shapes = (
{
closed = 1;
nodes = (
(116,0,l),
(111,207,o),
(115,350,o),
(115,447,cs),
(115,564,o),
(114,619,o),
(117,632,cs),
(123,661,o),
(132,662,o),
(191,662,cs),
(229,662,o),
(242,654,o),
(247,632,cs),
(265,546,o),
(319,258,o),
(346,134,c),
(434,134,l),
(461,258,o),
(515,546,o),
(533,632,cs),
(538,654,o),
(551,662,o),
(589,662,cs),
(648,662,o),
(657,658,o),
(663,632,cs),
(666,619,o),
(665,564,o),
(665,447,cs),
(665,350,o),
(669,207,o),
(664,0,c),
(693,0,l),
(691,117,o),
(688,233,o),
(688,350,cs),
(688,467,o),
(691,584,o),
(692,700,c),
(524,700,l),
(425,171,o),
(425,171,o),
(390,171,cs),
(355,171,o),
(355,171,o),
(256,700,c),
(91,700,l),
(93,584,o),
(91,467,o),
(91,350,cs),
(91,233,o),
(92,117,o),
(90,0,c)
);
}
);
width = 783;
}
);
metricLeft = H;
metricRight = H;
unicode = 77;
},
{
color = 3;
glyphname = N;
lastChange = "2023-11-17 19:51:55 +0000";
layers = (
{
anchors = (
{
name = bottom;
pos = (318,0);
},
{
name = top;
pos = (318,700);
}
);
layerId = m01;
shapes = (
{
closed = 1;
nodes = (
(162,0,l),
(152,102,o),
(148,157,o),
(148,209,cs),
(148,256,o),
(150,275,o),
(155,297,cs),
(162,322,o),
(178,329,o),
(225,329,cs),
(274,329,o),
(294,322,o),
(316,296,cs),
(349,256,o),
(359,239,o),
(440,0,c),
(607,0,l),
(603,280,o),
(603,420,o),
(607,700,c),
(507,700,l),
(521,542,o),
(520,554,o),
(520,515,cs),
(520,412,o),
(516,403,o),
(468,403,cs),
(432,403,o),
(427,406,o),
(405,441,cs),
(373,492,o),
(348,554,o),
(303,700,c),
(62,700,l),
(66,420,o),
(66,280,o),
(62,0,c)
);
}
);
width = 669;
},
{
anchors = (
{
name = bottom;
pos = (329,0);
},
{
name = top;
pos = (329,700);
}
);
layerId = "60D037D9-62E9-4843-B070-F1594CB0B0D1";
shapes = (
{
closed = 1;
nodes = (
(117,0,l),
(114,111,o),
(115,213,o),
(115,312,cs),
(115,450,o),
(117,553,o),
(121,610,cs),
(123,651,o),
(131,662,o),
(186,662,cs),
(235,662,o),
(250,654,o),
(262,611,cs),
(308,451,o),
(332,360,o),
(439,0,c),
(579,0,l),
(575,317,o),
(578,351,o),
(579,700,c),
(550,700,l),
(555,362,o),
(552,197,o),
(552,101,cs),
(552,57,o),
(549,35,o),
(517,35,cs),
(468,35,o),
(455,39,o),
(439,87,cs),
(402,198,o),
(319,500,o),
(263,700,c),
(94,700,l),
(97,502,o),
(90,198,o),
(90,0,c)
);
}
);
width = 669;
}
);
metricLeft = H;
metricRight = H;
unicode = 78;
},
{
color = 5;
glyphname = O;
lastChange = "2023-11-20 13:51:11 +0000";
layers = (
{
layerId = m01;
shapes = (
{
closed = 1;
nodes = (
(566,-8,o),
(652,93,o),
(652,348,cs),
(652,606,o),
(565,710,o),
(347,710,cs),
(129,710,o),
(42,606,o),
(42,348,cs),
(42,93,o),
(128,-8,o),
(347,-8,cs)
);
},
{
closed = 1;
nodes = (
(146,196,o),
(117,207,o),
(117,280,cs),
(117,341,o),
(146,350,o),
(347,350,cs),
(548,350,o),
(577,341,o),
(577,280,cs),
(577,207,o),
(548,196,o),
(347,196,cs)
);
}
);
width = 694;
},
{
layerId = "60D037D9-62E9-4843-B070-F1594CB0B0D1";
shapes = (
{
closed = 1;
nodes = (
(488,-16,o),
(579,111,o),
(579,350,cs),
(579,589,o),
(488,716,o),
(318,716,cs),
(148,716,o),
(57,589,o),
(57,350,cs),
(57,111,o),
(148,-16,o),
(318,-16,cs)
);
},
{
closed = 1;
nodes = (
(165,23,o),
(77,140,o),
(77,350,cs),
(77,560,o),
(165,677,o),
(318,677,cs),
(471,677,o),
(559,560,o),
(559,350,cs),
(559,140,o),
(471,23,o),
(318,23,cs)
);
}
);
width = 634;
}
);
unicode = 79;
},
{
color = 2;
glyphname = P;
lastChange = "2023-11-14 18:22:55 +0000";
layers = (
{
anchors = (
{
name = bottom;
pos = (310,0);
},
{
name = top;
pos = (310,700);
}
);
background = {
shapes = (
{
pos = (10,0);
ref = A;
}
);
};
layerId = m01;
shapes = (
{
closed = 1;
nodes = (
(177,0,l),
(171,61,o),
(164,111,o),
(161,172,cs),
(156,274,o),
(213,264,o),
(316,264,cs),
(414,264,o),
(626,245,o),
(626,478,cs),
(626,659,o),
(509,698,o),
(413,699,cs),
(65,701,l),
(68,350,ls),
(69,233,o),
(66,117,o),
(62,0,c)
);
},
{
closed = 1;
nodes = (
(244,329,o),
(207,332,o),
(182,341,cs),
(162,349,o),
(151,364,o),
(151,384,cs),
(151,405,o),
(161,419,o),
(180,427,cs),
(207,437,o),
(255,442,o),
(325,442,cs),
(414,442,o),
(446,439,o),
(471,427,cs),
(491,419,o),
(501,405,o),
(501,384,cs),
(501,366,o),
(493,352,o),
(475,344,cs),
(450,332,o),
(411,329,o),
(325,329,cs)
);
}
);
width = 662;
},
{
anchors = (
{
name = bottom;
pos = (312,0);
},
{
name = top;
pos = (312,700);
}
);
layerId = "60D037D9-62E9-4843-B070-F1594CB0B0D1";
shapes = (
{
closed = 1;
nodes = (
(118,0,l),
(115,61,o),
(114,111,o),
(115,172,cs),
(117,262,o),
(146,262,o),
(299,262,cs),
(453,262,o),
(588,298,o),
(588,478,cs),
(588,659,o),
(469,698,o),
(373,699,cs),
(93,701,l),
(95,350,ls),
(96,233,o),
(94,117,o),
(90,0,c)
);
},
{
closed = 1;
nodes = (
(128,293,o),
(128,285,o),
(121,350,cs),
(119,371,o),
(118,451,o),
(118,472,cs),
(118,493,o),
(118,577,o),
(120,598,cs),
(125,663,o),
(125,663,o),
(299,663,cs),
(443,663,o),
(496,643,o),
(527,603,cs),
(553,570,o),
(566,523,o),
(566,472,cs),
(566,421,o),
(552,381,o),
(522,349,cs),
(473,297,o),
(385,293,o),
(299,293,cs)
);
}
);
width = 646;
}
);
metricLeft = H;
metricRight = F;
unicode = 80;
},
{
color = 1;
glyphname = Q;
lastChange = "2023-11-14 18:24:40 +0000";
layers = (
{
anchors = (
{
name = bottom;
pos = (300,0);
},
{
name = top;
pos = (300,700);
}
);
background = {
shapes = (
{
closed = 1;
nodes = (
(537,-8,o),
(642,115,o),
(642,349,cs),
(642,584,o),
(536,710,o),
(338,710,cs),
(140,710,o),
(34,584,o),
(34,348,cs),
(34,114,o),
(138,-8,o),
(337,-8,cs)
);
},
{
closed = 1;
nodes = (
(139,196,o),
(109,207,o),
(109,280,cs),
(109,342,o),
(135,350,o),
(341,350,cs),
(548,350,o),
(575,342,o),
(575,280,cs),
(575,208,o),
(542,196,o),
(339,196,cs)
);
},
{
closed = 1;
nodes = (
(332,17,l),
(335,-28,o),
(343,-98,o),
(382,-160,cs),
(428,-234,o),
(520,-253,o),
(581,-253,cs),
(614,-253,o),
(676,-252,o),
(701,-238,c),
(701,-10,l),
(679,-18,o),
(596,-32,o),
(548,-32,cs),
(475,-32,o),
(412,-11,o),
(410,19,c)
);
}
);
};
layerId = m01;
shapes = (
{
closed = 1;
nodes = (
(581,-271,o),
(643,-270,o),
(668,-256,c),
(668,-28,l),
(646,-36,o),
(564,-50,o),
(516,-50,cs),
(449,-50,o),
(404,-32,o),
(395,-6,c),
(579,9,o),
(652,113,o),
(652,348,cs),
(652,606,o),
(565,710,o),
(347,710,cs),
(129,710,o),
(42,606,o),
(42,348,cs),
(42,112,o),
(115,8,o),
(300,-6,c),
(303,-50,o),
(315,-107,o),
(352,-166,cs),
(398,-240,o),
(487,-271,o),
(548,-271,cs)
);
},
{
closed = 1;
nodes = (
(181,196,o),
(117,220,o),
(117,280,cs),
(117,334,o),
(168,350,o),
(347,350,cs),
(526,350,o),
(577,334,o),
(577,280,cs),
(577,220,o),
(513,196,o),
(347,196,cs)
);
}
);
width = 704;
},
{
anchors = (
{
name = bottom;
pos = (300,0);
},
{
name = top;
pos = (300,700);
}
);
layerId = "60D037D9-62E9-4843-B070-F1594CB0B0D1";
shapes = (
{
closed = 1;
nodes = (
(569,-259,o),
(585,-258,o),
(604,-249,c),
(604,-221,l),
(582,-226,o),
(526,-236,o),
(481,-224,cs),
(382,-197,o),
(340,-117,o),
(319,-16,c),
(488,-15,o),
(579,112,o),
(579,350,cs),
(579,589,o),
(488,716,o),
(318,716,cs),
(148,716,o),
(57,589,o),
(57,350,cs),
(57,120,o),
(141,-6,o),
(298,-15,c),
(307,-56,o),
(320,-116,o),
(346,-161,cs),
(394,-242,o),
(483,-266,o),
(548,-261,cs)
);
},
{
closed = 1;
nodes = (
(165,23,o),
(77,140,o),
(77,350,cs),
(77,560,o),
(165,677,o),
(318,677,cs),
(471,677,o),
(559,560,o),
(559,350,cs),
(559,140,o),
(471,23,o),
(318,23,cs)
);
}
);
width = 634;
}
);
metricLeft = O;
unicode = 81;
},
{
color = 1;
glyphname = R;
lastChange = "2023-11-17 19:50:14 +0000";
layers = (
{
background = {
shapes = (
{
pos = (8,0);
ref = K;
}
);
};
layerId = "60D037D9-62E9-4843-B070-F1594CB0B0D1";
shapes = (
{
closed = 1;
nodes = (
(522,-8,o),
(540,-5,o),
(559,-1,c),
(559,29,l),
(528,22,o),
(487,21,o),
(442,34,cs),
(345,62,o),
(293,183,o),
(274,292,c),
(457,294,o),
(582,324,o),
(582,498,cs),
(582,679,o),
(426,698,o),
(299,699,cs),
(93,701,l),
(96,350,ls),
(97,233,o),
(94,117,o),
(90,0,c),
(118,0,l),
(115,61,o),
(114,111,o),
(115,172,cs),
(117,293,o),
(124,293,o),
(253,293,c),
(261,248,o),
(282,166,o),
(315,103,cs),
(351,35,o),
(416,-8,o),
(501,-8,cs)
);
},
{
closed = 1;
nodes = (
(124,320,o),
(122,326,o),
(117,377,cs),
(115,398,o),
(114,451,o),
(114,472,cs),
(114,493,o),
(114,573,o),
(116,594,cs),
(121,659,o),
(121,662,o),
(295,663,cs),
(439,664,o),
(489,642,o),
(524,605,cs),
(546,582,o),
(561,540,o),
(561,498,cs),
(561,456,o),
(552,415,o),
(524,381,cs),
(485,334,o),
(413,320,o),
(295,320,cs)
);
}
);
width = 637;
},
{
background = {
shapes = (
{
pos = (10,0);
ref = K;
}
);
};
layerId = m01;
shapes = (
{
closed = 1;
nodes = (
(520,-8,o),
(582,-7,o),
(607,7,c),
(607,235,l),
(585,227,o),
(502,213,o),
(454,213,cs),
(381,213,o),
(334,234,o),
(332,264,c),
(502,268,o),
(626,282,o),
(626,478,cs),
(626,659,o),
(509,698,o),
(413,699,cs),
(65,701,l),
(68,350,ls),
(69,233,o),
(66,117,o),
(62,0,c),
(177,0,l),
(171,61,o),
(164,111,o),
(161,172,cs),
(158,238,o),
(170,257,o),
(238,262,c),
(241,217,o),
(252,159,o),
(291,97,cs),
(337,23,o),
(426,-8,o),
(487,-8,cs)
);
},
{
closed = 1;
nodes = (
(244,329,o),
(207,332,o),
(182,341,cs),
(162,349,o),
(151,364,o),
(151,384,cs),
(151,405,o),
(161,419,o),
(180,427,cs),
(207,437,o),
(255,442,o),
(325,442,cs),
(414,442,o),
(446,439,o),
(471,427,cs),
(491,419,o),
(501,405,o),
(501,384,cs),
(501,366,o),
(493,352,o),
(475,344,cs),
(450,332,o),
(411,329,o),
(325,329,cs)
);
}
);
width = 668;
}
);
metricLeft = H;
metricRight = O;
unicode = 82;
},
{
color = 1;
glyphname = S;
lastChange = "2023-11-17 20:37:45 +0000";
layers = (
{
anchors = (
{
name = bottom;
pos = (278,-8);
},
{
name = top;
pos = (278,700);
}
);
background = {
shapes = (
{
closed = 1;
nodes = (
(448,-1,o),
(524,55,o),
(524,182,cs),
(524,303,o),
(420,340,o),
(334,363,cs),
(273,380,o),
(220,390,o),
(220,419,cs),
(220,435,o),
(238,445,o),
(310,447,cs),
(381,449,o),
(453,447,o),
(524,446,c),
(524,696,l),
(457,702,o),
(390,702,o),
(323,702,cs),
(148,702,o),
(42,618,o),
(42,479,cs),
(42,355,o),
(138,318,o),
(232,297,cs),
(292,284,o),
(352,278,o),
(384,259,cs),
(417,240,o),
(419,201,o),
(384,194,cs),
(339,185,o),
(70,201,o),
(47,202,c),
(48,0,l),
(283,-1,l)
);
}
);
};
backgroundImage = {
imagePath = /Downloads/IMG_7408.JPG;
locked = 1;
pos = (-859,-1771);
scale = (0.7854,0.7854);
};
layerId = m01;
shapes = (
{
closed = 1;
nodes = (
(437,-8,o),
(524,57,o),
(524,177,cs),
(524,274,o),
(468,307,o),
(334,346,cs),
(277,363,o),
(220,377,o),
(220,415,cs),
(220,439,o),
(244,449,o),
(310,452,cs),
(365,454,o),
(426,451,o),
(524,443,c),
(524,693,l),
(431,703,o),
(372,707,o),
(332,707,cs),
(147,707,o),
(42,619,o),
(42,482,cs),
(42,354,o),
(135,321,o),
(233,297,cs),
(315,277,o),
(409,262,o),
(409,221,cs),
(409,197,o),
(375,188,o),
(257,198,cs),
(162,206,o),
(117,218,o),
(52,234,c),
(53,7,l),
(123,-2,o),
(195,-8,o),
(273,-8,c)
);
}
);
width = 566;
},
{
anchors = (
{
name = bottom;
pos = (250,0);
},
{
name = top;
pos = (250,700);
}
);
background = {
shapes = (
{
closed = 1;
nodes = (
(341,-3,o),
(434,60,o),
(434,167,cs),
(434,284,o),
(339,314,o),
(250,347,cs),
(170,376,o),
(95,406,o),
(95,500,cs),
(95,595,o),
(164,661,o),
(262,661,cs),
(318,661,o),
(334,660,o),
(410,655,c),
(410,698,l),
(376,701,o),
(341,702,o),
(271,702,cs),
(153,702,o),
(63,621,o),
(63,513,cs),
(63,396,o),
(151,359,o),
(238,327,cs),
(326,295,o),
(413,268,o),
(413,173,cs),
(413,105,o),
(380,33,o),
(231,21,cs),
(185,17,o),
(100,21,o),
(77,24,c),
(78,3,l),
(113,1,o),
(149,-1,o),
(184,-1,cs)
);
}
);
};
layerId = "60D037D9-62E9-4843-B070-F1594CB0B0D1";
shapes = (
{
closed = 1;
nodes = (
(349,-8,o),
(444,61,o),
(444,180,cs),
(444,266,o),
(394,325,o),
(256,363,cs),
(133,397,o),
(90,454,o),
(90,523,cs),
(90,606,o),
(152,664,o),
(289,664,cs),
(325,664,o),
(363,660,o),
(409,651,c),
(416,694,l),
(346,703,o),
(311,705,o),
(288,705,cs),
(136,705,o),
(63,617,o),
(63,516,cs),
(63,436,o),
(109,379,o),
(250,337,cs),
(380,298,o),
(418,246,o),
(418,173,cs),
(418,64,o),
(327,33,o),
(201,33,cs),
(135,33,o),
(90,45,o),
(57,61,c),
(58,16,l),
(104,-3,o),
(156,-8,o),
(197,-8,cs)
);
}
);
width = 499;
}
);
metricLeft = O;
metricRight = O;
unicode = 83;
},
{
color = 2;
glyphname = T;
lastChange = "2023-11-21 15:58:31 +0000";
layers = (
{
background = {
shapes = (
{
closed = 1;
nodes = (
(566,699,l),
(257,701,o),
(157,700,o),
(48,701,c),
(52,467,o),
(52,234,o),
(48,0,c),
(164,0,o),
(266,0,o),
(566,0,c),
(566,193,l),
(557,192,o),
(330,192,o),
(309,192,cs),
(228,192,o),
(182,194,o),
(153,202,cs),
(127,208,o),
(118,221,o),
(118,239,cs),
(118,254,o),
(128,265,o),
(150,272,cs),
(179,282,o),
(231,286,o),
(309,286,cs),
(329,286,o),
(557,283,o),
(566,282,c),
(566,361,l),
(557,360,o),
(318,357,o),
(286,357,cs),
(219,357,o),
(179,358,o),
(155,366,cs),
(133,373,o),
(126,384,o),
(126,398,cs),
(126,413,o),
(134,424,o),
(153,431,cs),
(177,438,o),
(220,442,o),
(286,442,cs),
(318,442,o),
(557,442,o),
(566,441,c)
);
},
{
closed = 1;
nodes = (
(360,0,l),
(360,21,ls),
(360,200,o),
(355,350,o),
(355,388,cs),
(355,412,o),
(363,423,o),
(382,430,cs),
(406,437,o),
(449,441,o),
(515,441,cs),
(613,441,l),
(613,699,l),
(24,699,l),
(24,441,l),
(122,441,ls),
(188,441,o),
(231,437,o),
(255,430,cs),
(274,423,o),
(282,412,o),
(282,388,cs),
(282,350,o),
(281,205,o),
(278,28,c),
(277,19,o),
(277,10,o),
(277,0,c)
);
}
);
};
layerId = m01;
shapes = (
{
closed = 1;
nodes = (
(371,0,l),
(366,120,o),
(363,275,o),
(363,388,cs),
(363,420,o),
(363,432,o),
(390,441,cs),
(407,447,o),
(442,446,o),
(515,444,cs),
(613,441,l),
(613,699,l),
(24,699,l),
(24,441,l),
(122,444,ls),
(195,446,o),
(230,447,o),
(247,441,cs),
(274,432,o),
(274,420,o),
(274,388,cs),
(274,275,o),
(271,120,o),
(266,0,c)
);
}
);
width = 637;
},
{
layerId = "60D037D9-62E9-4843-B070-F1594CB0B0D1";
shapes = (
{
closed = 1;
nodes = (
(322,0,l),
(318,294,o),
(321,541,o),
(321,603,cs),
(321,633,o),
(329,652,o),
(348,659,cs),
(371,666,o),
(415,666,o),
(481,665,cs),
(579,664,l),
(579,699,l),
(40,699,l),
(40,664,l),
(138,665,ls),
(204,666,o),
(248,666,o),
(271,659,cs),
(290,652,o),
(298,633,o),
(298,603,cs),
(298,541,o),
(301,294,o),
(297,0,c)
);
}
);
width = 619;
}
);
unicode = 84;
},
{
color = 2;
glyphname = U;
lastChange = "2023-11-20 13:53:39 +0000";
layers = (
{
anchors = (
{
name = bottom;
pos = (251,0);
},
{
name = ogonek;
pos = (491,10);
},
{
name = top;
pos = (251,700);
},
{
name = topright;
pos = (531,700);
}
);
layerId = m01;
shapes = (
{
closed = 1;
nodes = (
(532,-9,o),
(594,59,o),
(596,302,cs),
(599,700,l),
(504,700,l),
(509,424,ls),
(511,337,o),
(496,329,o),
(319,329,cs),
(143,329,o),
(129,337,o),
(131,424,cs),
(137,700,l),
(42,700,l),
(43,310,ls),
(44,56,o),
(100,-9,o),
(319,-9,cs)
);
}
);
width = 641;
},
{
anchors = (
{
name = bottom;
pos = (281,0);
},
{
name = ogonek;
pos = (521,10);
},
{
name = top;
pos = (281,700);
},
{
name = topright;
pos = (561,700);
}
);
background = {
shapes = (
{
pos = (-19,0);
ref = H;
}
);
};
layerId = "60D037D9-62E9-4843-B070-F1594CB0B0D1";
shapes = (
{
closed = 1;
nodes = (
(504,-9,o),
(500,63,o),
(501,302,cs),
(503,700,l),
(477,700,l),
(479,180,ls),
(479,68,o),
(433,28,o),
(280,28,cs),
(127,28,o),
(81,68,o),
(81,180,cs),
(83,700,l),
(57,700,l),
(59,302,ls),
(60,63,o),
(56,-9,o),
(280,-9,cs)
);
}
);
width = 558;
}
);
metricLeft = O;
metricRight = O;
unicode = 85;
},
{
color = 2;
glyphname = V;
lastChange = "2023-11-21 16:50:38 +0000";
layers = (
{
layerId = m01;
shapes = (
{
closed = 1;
nodes = (
(534,0,l),
(559,224,o),
(586,452,o),
(626,700,c),
(495,700,l),
(491,623,o),
(473,501,o),
(458,366,cs),
(455,334,o),
(443,329,o),
(328,329,cs),
(213,329,o),
(201,334,o),
(198,366,cs),
(183,501,o),
(165,623,o),
(160,700,c),
(30,700,l),
(70,452,o),
(97,224,o),
(122,0,c)
);
}
);
width = 656;
},
{
layerId = "60D037D9-62E9-4843-B070-F1594CB0B0D1";
shapes = (
{
closed = 1;
nodes = (
(445,0,l),
(475,232,o),
(517,468,o),
(558,700,c),
(530,700,l),
(506,490,o),
(466,281,o),
(430,70,cs),
(425,39,o),
(417,37,o),
(307,37,cs),
(197,37,o),
(189,39,o),
(184,70,cs),
(148,281,o),
(108,490,o),
(84,700,c),
(56,700,l),
(97,468,o),
(139,232,o),
(169,0,c)
);
}
);
width = 614;
}
);
metricLeft = A;
metricRight = A;
unicode = 86;
},
{
color = 2;
glyphname = W;
lastChange = "2023-11-17 19:49:44 +0000";
layers = (
{
anchors = (
{
name = bottom;
pos = (289,0);
},
{
name = top;
pos = (289,700);
}
);
background = {
shapes = (
{
pos = (64,0);
ref = O;
}
);
};
layerId = m01;
shapes = (
{
closed = 1;
nodes = (
(349,0,l),
(366,319,o),
(371,347,o),
(410,347,cs),
(447,347,o),
(452,319,o),
(476,0,c),
(716,0,l),
(724,116,o),
(734,233,o),
(747,350,cs),
(760,467,o),
(776,583,o),
(795,700,c),
(682,700,l),
(683,603,o),
(682,518,o),
(674,451,cs),
(670,417,o),
(662,395,o),
(649,384,cs),
(637,372,o),
(633,371,o),
(597,371,cs),
(558,371,o),
(553,372,o),
(535,388,cs),
(508,414,o),
(503,437,o),
(467,700,c),
(358,700,l),
(322,437,o),
(317,414,o),
(290,388,cs),
(272,372,o),
(267,371,o),
(228,371,cs),
(192,371,o),
(188,372,o),
(176,384,cs),
(163,395,o),
(155,417,o),
(151,451,cs),
(143,518,o),
(142,603,o),
(143,700,c),
(30,700,l),
(49,583,o),
(65,467,o),
(78,350,cs),
(91,233,o),
(101,116,o),
(109,0,c)
);
}
);
width = 825;
},
{
anchors = (
{
name = bottom;
pos = (290,0);
},
{
name = top;
pos = (290,700);
}
);
layerId = "60D037D9-62E9-4843-B070-F1594CB0B0D1";
shapes = (
{
closed = 1;
nodes = (
(242,0,l),
(341,529,o),
(341,529,o),
(376,529,cs),
(412,529,o),
(412,529,o),
(511,0,c),
(639,0,l),
(643,116,o),
(653,233,o),
(663,350,cs),
(673,467,o),
(682,583,o),
(698,700,c),
(669,700,l),
(655,493,o),
(641,350,o),
(634,253,cs),
(626,136,o),
(623,81,o),
(620,68,cs),
(614,42,o),
(595,38,o),
(576,38,cs),
(538,38,o),
(525,46,o),
(520,68,cs),
(502,154,o),
(448,442,o),
(421,566,c),
(331,566,l),
(304,442,o),
(251,154,o),
(233,68,cs),
(228,46,o),
(215,38,o),
(177,38,cs),
(158,38,o),
(139,42,o),
(133,68,cs),
(130,81,o),
(127,136,o),
(119,253,cs),
(112,350,o),
(99,493,o),
(85,700,c),
(56,700,l),
(72,583,o),
(80,467,o),
(90,350,cs),
(100,233,o),
(110,116,o),
(114,0,c)
);
}
);
width = 754;
}
);
metricLeft = A;
metricRight = A;
unicode = 87;
},
{
color = 2;
glyphname = X;
lastChange = "2023-11-14 18:22:55 +0000";
layers = (
{
anchors = (
{
name = bottom;
pos = (269,0);
},
{
name = top;
pos = (269,700);
}
);
layerId = m01;
shapes = (
{
closed = 1;
nodes = (
(239,0,l),
(270,103,o),
(286,153,o),
(307,177,cs),
(326,200,o),
(351,200,o),
(400,200,cs),
(448,200,o),
(474,200,o),
(493,179,cs),
(515,155,o),
(530,105,o),
(562,0,c),
(680,0,l),
(550,313,o),
(537,331,o),
(537,361,cs),
(537,391,o),
(546,408,o),
(670,700,c),
(420,700,l),
(390,583,o),
(377,535,o),
(354,514,cs),
(338,500,o),
(317,500,o),
(281,500,cs),
(242,500,o),
(221,500,o),
(205,519,cs),
(186,542,o),
(173,592,o),
(147,700,c),
(40,700,l),
(163,408,o),
(175,391,o),
(175,361,cs),
(175,331,o),
(162,313,o),
(30,0,c)
);
}
);
width = 710;
},
{
anchors = (
{
name = bottom;
pos = (263,0);
},
{
name = top;
pos = (263,700);
}
);
layerId = "60D037D9-62E9-4843-B070-F1594CB0B0D1";
shapes = (
{
closed = 1;
nodes = (
(88,0,l),
(161,215,o),
(199,317,o),
(213,331,cs),
(223,341,o),
(232,343,o),
(298,343,cs),
(364,343,o),
(373,342,o),
(384,331,cs),
(398,317,o),
(435,215,o),
(508,0,c),
(540,0,l),
(430,291,o),
(409,331,o),
(409,361,cs),
(409,391,o),
(421,409,o),
(531,700,c),
(499,700,l),
(435,507,o),
(395,404,o),
(383,391,cs),
(372,380,o),
(363,379,o),
(298,379,cs),
(233,379,o),
(223,381,o),
(213,391,cs),
(201,404,o),
(161,509,o),
(97,700,c),
(65,700,l),
(175,409,o),
(187,391,o),
(187,361,cs),
(187,331,o),
(166,291,o),
(56,0,c)
);
}
);
width = 596;
}
);
metricLeft = A;
metricRight = A;
unicode = 88;
},
{
color = 1;
glyphname = Y;
lastChange = "2023-11-14 18:24:15 +0000";
layers = (
{
anchors = (
{
name = bottom;
pos = (242,0);
},
{
name = top;
pos = (242,700);
},
{
name = topleft;
pos = (-19,700);
}
);
background = {
shapes = (
{
pos = (-11,0);
ref = V;
},
{
closed = 1;
nodes = (
(396,-10,o),
(572,54,o),
(588,240,cs),
(589,255,o),
(594,268,o),
(620,700,c),
(529,700,l),
(529,615,o),
(530,571,o),
(509,547,cs),
(486,522,o),
(438,522,o),
(337,522,cs),
(134,522,o),
(134,522,o),
(133,700,c),
(42,700,l),
(47,630,ls),
(69,327,o),
(121,267,o),
(307,267,cs),
(418,267,o),
(475,302,o),
(500,302,cs),
(515,302,o),
(514,286,o),
(504,270,cs),
(492,250,o),
(354,164,o),
(106,252,c),
(106,0,l),
(150,-6,o),
(191,-10,o),
(227,-10,cs)
);
}
);
};
layerId = m01;
shapes = (
{
closed = 1;
nodes = (
(396,-10,o),
(561,46,o),
(585,222,cs),
(590,255,o),
(590,297,o),
(620,700,c),
(529,700,l),
(529,615,o),
(530,571,o),
(509,547,cs),
(486,522,o),
(438,522,o),
(337,522,cs),
(134,522,o),
(134,522,o),
(133,700,c),
(42,700,l),
(47,630,ls),
(69,334,o),
(121,275,o),
(307,275,cs),
(418,275,o),
(475,310,o),
(500,310,cs),
(515,310,o),
(516,289,o),
(504,270,cs),
(496,256,o),
(429,202,o),
(308,195,cs),
(252,191,o),
(184,197,o),
(106,222,c),
(106,0,l),
(150,-6,o),
(191,-10,o),
(227,-10,cs)
);
}
);
width = 662;
},
{
anchors = (
{
name = bottom;
pos = (324,0);
},
{
name = top;
pos = (324,700);
},
{
name = topleft;
pos = (44,700);
}
);
background = {
shapes = (
{
pos = (660,105);
ref = R;
scale = (-1,1);
}
);
};
layerId = "60D037D9-62E9-4843-B070-F1594CB0B0D1";
shapes = (
{
closed = 1;
nodes = (
(385,-10,o),
(506,55,o),
(533,241,cs),
(538,276,o),
(541,268,o),
(567,700,c),
(539,700,l),
(535,562,o),
(527,442,o),
(524,425,cs),
(520,402,o),
(422,402,o),
(314,402,cs),
(145,402,o),
(94,408,o),
(86,700,c),
(57,700,l),
(62,630,ls),
(81,364,o),
(147,371,o),
(334,371,cs),
(437,371,o),
(506,379,o),
(517,371,cs),
(523,367,o),
(524,335,o),
(519,294,cs),
(497,125,o),
(429,35,o),
(259,26,cs),
(213,23,o),
(159,27,o),
(95,42,c),
(95,0,l),
(139,-6,o),
(180,-10,o),
(216,-10,cs)
);
}
);
width = 622;
}
);
metricLeft = O;
metricRight = O;
unicode = 89;
},
{
color = 1;
glyphname = Z;
lastChange = "2023-11-17 19:49:32 +0000";
layers = (
{
anchors = (
{
name = bottom;
pos = (338,0);
},
{
name = center;
pos = (338,334);
},
{
name = top;
pos = (338,700);
}
);
background = {
shapes = (
{
pos = (17,0);
ref = E;
}
);
};
layerId = m01;
shapes = (
{
closed = 1;
nodes = (
(596,0,l),
(596,202,l),
(493,198,o),
(414,198,o),
(312,198,cs),
(268,198,o),
(264,199,o),
(264,211,cs),
(264,227,o),
(271,231,o),
(353,271,cs),
(407,297,o),
(459,318,o),
(596,371,c),
(596,700,l),
(42,700,l),
(42,439,l),
(123,439,o),
(155,438,o),
(234,439,cs),
(404,441,o),
(419,440,o),
(421,426,cs),
(422,418,o),
(421,412,o),
(402,400,cs),
(345,361,o),
(115,248,o),
(42,215,c),
(42,0,l)
);
}
);
width = 638;
},
{
anchors = (
{
name = bottom;
pos = (317,0);
},
{
name = center;
pos = (317,350);
},
{
name = top;
pos = (317,700);
}
);
background = {
shapes = (
{
pos = (15,0);
ref = E;
}
);
};
layerId = "60D037D9-62E9-4843-B070-F1594CB0B0D1";
shapes = (
{
closed = 1;
nodes = (
(513,0,l),
(513,37,l),
(380,35,o),
(285,35,o),
(255,35,cs),
(84,35,o),
(83,37,o),
(82,78,cs),
(81,112,o),
(85,125,o),
(107,147,cs),
(156,195,o),
(417,424,o),
(513,510,c),
(513,700,l),
(57,700,l),
(57,665,l),
(138,665,o),
(254,669,o),
(333,669,cs),
(477,669,o),
(486,669,o),
(486,591,cs),
(486,538,o),
(487,531,o),
(445,489,cs),
(383,427,o),
(116,194,o),
(57,139,c),
(57,0,l)
);
}
);
width = 568;
}
);
metricLeft = O;
metricRight = O;
unicode = 90;
},
{
color = 4;
glyphname = a;
lastChange = "2023-11-21 17:23:00 +0000";
layers = (
{
anchors = (
{
name = bottom;
pos = (297,0);
},
{
name = ogonek;
pos = (522,10);
},
{
name = top;
pos = (297,500);
}
);
background = {
shapes = (
{
pos = (646,0);
ref = n.ss01;
scale = (-1,1);
},
{
closed = 1;
nodes = (
(391,-16,o),
(415,11,o),
(447,50,cs),
(470,78,o),
(471,90,o),
(487,90,cs),
(510,90,o),
(503,52,o),
(502,0,c),
(592,0,l),
(588,233,o),
(588,267,o),
(592,500,c),
(505,500,l),
(506,448,o),
(513,410,o),
(496,410,cs),
(480,410,o),
(481,421,o),
(454,450,cs),
(423,483,o),
(387,516,o),
(278,516,cs),
(114,516,o),
(36,431,o),
(36,250,cs),
(36,60,o),
(114,-16,o),
(278,-16,cs)
);
},
{
closed = 1;
nodes = (
(174,106,o),
(120,123,o),
(120,175,cs),
(120,227,o),
(174,244,o),
(288,244,cs),
(402,244,o),
(456,227,o),
(456,175,cs),
(456,123,o),
(402,106,o),
(288,106,cs)
);
}
);
};
layerId = m01;
shapes = (
{
closed = 1;
nodes = (
(407,-16,o),
(443,34,o),
(463,66,cs),
(473,82,o),
(479,90,o),
(487,90,cs),
(501,90,o),
(504,76,o),
(504,54,cs),
(504,39,o),
(504,21,o),
(502,0,c),
(592,0,l),
(588,233,o),
(588,267,o),
(592,500,c),
(505,500,l),
(507,475,o),
(508,452,o),
(508,437,cs),
(508,420,o),
(505,410,o),
(496,410,cs),
(489,410,o),
(480,421,o),
(469,436,cs),
(447,467,o),
(406,516,o),
(278,516,cs),
(114,516,o),
(36,431,o),
(36,250,cs),
(36,60,o),
(114,-16,o),
(278,-16,cs)
);
},
{
closed = 1;
nodes = (
(144,106,o),
(123,115,o),
(123,175,cs),
(123,235,o),
(144,244,o),
(288,244,cs),
(432,244,o),
(453,235,o),
(453,175,cs),
(453,115,o),
(432,106,o),
(288,106,cs)
);
}
);
width = 638;
},
{
anchors = (
{
name = bottom;
pos = (298,0);
},
{
name = ogonek;
pos = (530,10);
},
{
name = top;
pos = (298,480);
}
);
background = {
shapes = (
{
closed = 1;
nodes = (
(331,-16,o),
(383,1,o),
(418,41,cs),
(450,76,o),
(462,87,o),
(468,87,cs),
(476,87,o),
(478,72,o),
(478,0,c),
(510,0,l),
(505,180,o),
(505,300,o),
(510,480,c),
(478,480,l),
(478,408,o),
(476,393,o),
(468,393,cs),
(462,393,o),
(450,404,o),
(418,439,cs),
(383,479,o),
(331,496,o),
(280,496,cs),
(148,496,o),
(69,400,o),
(69,240,cs),
(69,80,o),
(148,-16,o),
(280,-16,cs)
);
},
{
closed = 1;
nodes = (
(160,21,o),
(92,106,o),
(92,240,cs),
(92,374,o),
(160,459,o),
(269,459,cs),
(404,459,o),
(483,378,o),
(483,240,cs),
(483,102,o),
(404,21,o),
(269,21,cs)
);
}
);
};
layerId = "60D037D9-62E9-4843-B070-F1594CB0B0D1";
shapes = (
{
closed = 1;
nodes = (
(366,-16,o),
(414,30,o),
(442,62,cs),
(455,77,o),
(465,87,o),
(472,87,cs),
(477,87,o),
(481,80,o),
(481,50,cs),
(481,38,o),
(481,22,o),
(480,0,c),
(510,0,l),
(505,180,o),
(505,300,o),
(510,480,c),
(479,480,l),
(481,457,o),
(481,440,o),
(481,427,cs),
(480,400,o),
(477,393,o),
(472,393,cs),
(466,393,o),
(454,405,o),
(439,421,cs),
(410,452,o),
(363,496,o),
(275,496,cs),
(145,496,o),
(62,400,o),
(62,240,cs),
(62,80,o),
(145,-16,o),
(275,-16,cs)
);
},
{
closed = 1;
nodes = (
(151,21,o),
(85,106,o),
(85,240,cs),
(85,374,o),
(150,459,o),
(275,459,cs),
(399,459,o),
(484,384,o),
(484,240,cs),
(484,96,o),
(400,21,o),
(275,21,cs)
);
}
);
width = 586;
}
);
metricLeft = o;
metricRight = n;
unicode = 97;
},
{
color = 3;
glyphname = b;
lastChange = "2023-11-21 17:49:26 +0000";
layers = (
{
anchors = (
{
name = bottom;
pos = (328,0);
},
{
name = center;
pos = (328,250);
},
{
name = top;
pos = (328,500);
}
);
background = {
shapes = (
{
pos = (626,0);
ref = a;
scale = (-1,1);
}
);
};
layerId = m01;
shapes = (
{
closed = 1;
nodes = (
(534,-16,o),
(612,60,o),
(612,250,cs),
(612,431,o),
(534,516,o),
(370,516,cs),
(242,516,o),
(201,467,o),
(179,436,cs),
(168,421,o),
(159,410,o),
(152,410,cs),
(143,410,o),
(140,420,o),
(140,437,cs),
(140,511,o),
(142,620,o),
(147,740,c),
(54,740,l),
(60,395,o),
(60,345,o),
(56,0,c),
(146,0,l),
(144,21,o),
(144,39,o),
(144,54,cs),
(144,76,o),
(147,90,o),
(161,90,cs),
(169,90,o),
(175,82,o),
(185,66,cs),
(205,34,o),
(241,-16,o),
(370,-16,cs)
);
},
{
closed = 1;
nodes = (
(216,106,o),
(195,115,o),
(195,175,cs),
(195,235,o),
(216,244,o),
(360,244,cs),
(504,244,o),
(525,235,o),
(525,175,cs),
(525,115,o),
(504,106,o),
(360,106,cs)
);
}
);
width = 648;
},
{
anchors = (
{
name = bottom;
pos = (304,0);
},
{
name = center;
pos = (304,240);
},
{
name = top;
pos = (304,480);
}
);
layerId = "60D037D9-62E9-4843-B070-F1594CB0B0D1";
shapes = (
{
closed = 1;
nodes = (
(462,-16,o),
(545,80,o),
(545,240,cs),
(545,400,o),
(462,496,o),
(332,496,cs),
(244,496,o),
(197,452,o),
(168,421,cs),
(153,405,o),
(141,393,o),
(135,393,cs),
(130,393,o),
(126,400,o),
(126,427,cs),
(126,504,o),
(126,656,o),
(129,740,c),
(96,740,l),
(102,393,o),
(102,346,o),
(97,0,c),
(127,0,l),
(126,22,o),
(126,38,o),
(126,50,cs),
(126,80,o),
(130,87,o),
(135,87,cs),
(142,87,o),
(152,77,o),
(165,62,cs),
(193,30,o),
(241,-16,o),
(332,-16,cs)
);
},
{
closed = 1;
nodes = (
(207,21,o),
(123,96,o),
(123,240,cs),
(123,384,o),
(208,459,o),
(332,459,cs),
(457,459,o),
(522,374,o),
(522,240,cs),
(522,106,o),
(456,21,o),
(332,21,cs)
);
}
);
width = 607;
}
);
metricLeft = h;
metricRight = o;
unicode = 98;
},
{
color = 2;
glyphname = c;
lastChange = "2023-11-20 13:42:18 +0000";
layers = (
{
anchors = (
{
name = bottom;
pos = (355,0);
},
{
name = top;
pos = (355,500);
}
);
layerId = m01;
shapes = (
{
closed = 1;
nodes = (
(353,-16,o),
(404,-9,o),
(450,12,c),
(451,118,l),
(415,100,o),
(341,98,o),
(300,98,cs),
(142,98,o),
(119,106,o),
(119,165,cs),
(119,225,o),
(142,234,o),
(300,234,cs),
(344,234,o),
(412,234,o),
(451,214,c),
(451,486,l),
(406,509,o),
(350,516,o),
(300,516,cs),
(119,516,o),
(36,431,o),
(36,246,cs),
(36,66,o),
(119,-16,o),
(300,-16,cs)
);
}
);
width = 487;
},
{
anchors = (
{
name = bottom;
pos = (257,0);
},
{
name = top;
pos = (257,480);
}
);
guides = (
{
locked = 1;
pos = (157,240);
}
);
layerId = "60D037D9-62E9-4843-B070-F1594CB0B0D1";
shapes = (
{
closed = 1;
nodes = (
(368,-16,o),
(403,-9,o),
(451,5,c),
(451,41,l),
(391,25,o),
(342,20,o),
(305,20,cs),
(172,20,o),
(84,86,o),
(84,240,cs),
(84,394,o),
(172,460,o),
(305,460,cs),
(342,460,o),
(391,455,o),
(451,439,c),
(451,475,l),
(403,489,o),
(368,496,o),
(302,496,cs),
(160,496,o),
(62,406,o),
(62,240,cs),
(62,74,o),
(160,-16,o),
(302,-16,cs)
);
}
);
width = 513;
}
);
metricLeft = o;
metricRight = o;
unicode = 99;
},
{
color = 3;
glyphname = d;
lastChange = "2023-11-21 17:41:17 +0000";
layers = (
{
anchors = (
{
name = bottom;
pos = (320,0);
},
{
name = center;
pos = (320,250);
},
{
name = top;
pos = (320,500);
},
{
name = topright;
pos = (620,740);
}
);
layerId = m01;
shapes = (
{
closed = 1;
nodes = (
(407,-16,o),
(443,34,o),
(463,66,cs),
(473,82,o),
(479,90,o),
(487,90,cs),
(501,90,o),
(504,76,o),
(504,54,cs),
(504,39,o),
(504,21,o),
(502,0,c),
(592,0,l),
(588,345,o),
(588,395,o),
(594,740,c),
(501,740,l),
(506,620,o),
(508,511,o),
(508,437,cs),
(508,420,o),
(505,410,o),
(496,410,cs),
(489,410,o),
(480,421,o),
(469,436,cs),
(447,467,o),
(406,516,o),
(278,516,cs),
(114,516,o),
(36,431,o),
(36,250,cs),
(36,60,o),
(114,-16,o),
(278,-16,cs)
);
},
{
closed = 1;
nodes = (
(144,106,o),
(123,115,o),
(123,175,cs),
(123,235,o),
(144,244,o),
(288,244,cs),
(432,244,o),
(453,235,o),
(453,175,cs),
(453,115,o),
(432,106,o),
(288,106,cs)
);
}
);
width = 648;
},
{
anchors = (
{
name = bottom;
pos = (294,0);
},
{
name = center;
pos = (294,240);
},
{
name = top;
pos = (294,480);
},
{
name = topright;
pos = (568,740);
}
);
background = {
shapes = (
{
closed = 1;
nodes = (
(409,-16,o),
(449,87,o),
(472,87,cs),
(481,87,o),
(484,72,o),
(480,0,c),
(510,0,l),
(505,277,o),
(505,462,o),
(510,740,c),
(480,740,l),
(484,453,o),
(481,393,o),
(472,393,cs),
(449,393,o),
(409,496,o),
(275,496,cs),
(145,496,o),
(62,400,o),
(62,240,cs),
(62,80,o),
(145,-16,o),
(275,-16,cs)
);
},
{
closed = 1;
nodes = (
(151,21,o),
(85,106,o),
(85,240,cs),
(85,374,o),
(150,459,o),
(275,459,cs),
(398,459,o),
(483,381,o),
(483,240,cs),
(483,105,o),
(399,21,o),
(275,21,cs)
);
}
);
};
layerId = "60D037D9-62E9-4843-B070-F1594CB0B0D1";
shapes = (
{
closed = 1;
nodes = (
(366,-16,o),
(414,30,o),
(442,62,cs),
(455,77,o),
(465,87,o),
(472,87,cs),
(477,87,o),
(481,80,o),
(481,50,cs),
(481,38,o),
(481,22,o),
(480,0,c),
(510,0,l),
(505,346,o),
(505,393,o),
(511,740,c),
(478,740,l),
(481,656,o),
(481,504,o),
(481,427,cs),
(481,400,o),
(477,393,o),
(472,393,cs),
(466,393,o),
(454,405,o),
(439,421,cs),
(410,452,o),
(363,496,o),
(275,496,cs),
(145,496,o),
(62,400,o),
(62,240,cs),
(62,80,o),
(145,-16,o),
(275,-16,cs)
);
},
{
closed = 1;
nodes = (
(151,21,o),
(85,106,o),
(85,240,cs),
(85,374,o),
(150,459,o),
(275,459,cs),
(399,459,o),
(484,384,o),
(484,240,cs),
(484,96,o),
(400,21,o),
(275,21,cs)
);
}
);
width = 607;
}
);
metricLeft = o;
metricRight = "=|h";
unicode = 100;
},
{
color = 2;
glyphname = e;
lastChange = "2023-11-21 16:35:44 +0000";
layers = (
{
background = {
shapes = (
{
closed = 1;
nodes = (
(409,-15,o),
(461,-10,o),
(504,2,c),
(504,150,l),
(435,135,o),
(382,126,o),
(301,126,cs),
(238,126,o),
(161,132,o),
(133,191,c),
(532,191,l),
(532,290,o),
(530,360,o),
(502,411,cs),
(462,483,o),
(397,511,o),
(315,516,cs),
(165,525,o),
(45,458,o),
(37,272,cs),
(28,74,o),
(140,-20,o),
(354,-16,cs)
);
},
{
closed = 1;
nodes = (
(188,250,o),
(150,258,o),
(150,280,cs),
(150,302,o),
(183,310,o),
(287,310,cs),
(400,310,o),
(442,302,o),
(442,280,cs),
(442,258,o),
(403,250,o),
(296,250,cs)
);
}
);
};
backgroundImage = {
imagePath = "../../../../Downloads/Images/e-ExtraBold.tif";
locked = 1;
pos = (-969,-3564);
scale = (1.4452,1.4452);
};
layerId = m01;
shapes = (
{
closed = 1;
nodes = (
(415,-15,o),
(465,-9,o),
(504,2,c),
(504,150,l),
(421,132,o),
(370,126,o),
(313,126,cs),
(208,126,o),
(154,147,o),
(133,191,c),
(532,191,l),
(532,433,o),
(474,516,o),
(304,516,cs),
(129,516,o),
(43,427,o),
(37,272,cs),
(28,78,o),
(136,-20,o),
(364,-16,cs)
);
},
{
closed = 1;
nodes = (
(140,304,o),
(159,313,o),
(290,313,cs),
(421,313,o),
(440,304,o),
(440,243,c),
(140,243,l)
);
}
);
width = 547;
},
{
background = {
shapes = (
{
closed = 1;
nodes = (
(386,-16,o),
(423,-10,o),
(474,6,c),
(474,41,l),
(413,25,o),
(382,21,o),
(328,21,cs),
(178,21,o),
(106,75,o),
(86,201,c),
(502,201,l),
(502,294,o),
(492,352,o),
(469,395,cs),
(433,459,o),
(365,496,o),
(283,496,cs),
(134,496,o),
(64,390,o),
(62,247,cs),
(60,79,o),
(153,-16,o),
(317,-16,cs)
);
},
{
closed = 1;
nodes = (
(164,229,o),
(97,232,o),
(88,238,cs),
(84,240,o),
(82,249,o),
(84,274,cs),
(92,387,o),
(154,459,o),
(283,459,cs),
(407,459,o),
(474,393,o),
(480,274,cs),
(481,255,o),
(478,241,o),
(475,238,cs),
(469,233,o),
(380,229,o),
(283,229,cs)
);
}
);
};
guides = (
{
angle = 90;
pos = (293,259);
}
);
layerId = "60D037D9-62E9-4843-B070-F1594CB0B0D1";
shapes = (
{
closed = 1;
nodes = (
(370,-16,o),
(417,-6,o),
(474,11,c),
(474,41,l),
(413,25,o),
(369,21,o),
(328,21,cs),
(178,21,o),
(106,75,o),
(86,201,c),
(502,201,l),
(502,357,o),
(454,496,o),
(283,496,cs),
(134,496,o),
(64,390,o),
(62,247,cs),
(60,79,o),
(153,-16,o),
(317,-16,cs)
);
},
{
closed = 1;
nodes = (
(86,391,o),
(154,459,o),
(283,459,cs),
(417,459,o),
(478,385,o),
(478,228,c),
(86,228,l)
);
}
);
width = 564;
}
);
metricLeft = o;
unicode = 101;
},
{
color = 3;
glyphname = f;
lastChange = "2023-11-20 13:44:27 +0000";
layers = (
{
background = {
shapes = (
{
closed = 1;
nodes = (
(198,129,o),
(198,206,q),
(198,250,l),
(381,250,l),
(381,540,l),
(132,540,l),
(210,517,l),
(204,528,o),
(198,532,q),
(194,536,o),
(194,541,q),
(194,554,o),
(205,565,o),
(246,570,o),
(295,570,q),
(315,570,o),
(358,566,o),
(375,562,q),
(369,777,l),
(353,781,o),
(329,784,o),
(310,784,q),
(222,784,o),
(135,719,o),
(135,634,q),
(135,594,o),
(156,531,o),
(172,520,q),
(160,540,l),
(93,540,l),
(93,250,l),
(154,250,l),
(154,195,l),
(154,99,o),
(151,0,q),
(202,0,l)
);
}
);
};
layerId = m01;
shapes = (
{
closed = 1;
nodes = (
(215,0,l),
(207,91,o),
(205,183,o),
(204,274,c),
(403,274,l),
(403,500,l),
(213,500,ls),
(209,500,o),
(202,501,o),
(202,508,cs),
(202,547,o),
(246,577,o),
(301,577,cs),
(338,577,o),
(377,558,o),
(390,550,c),
(387,752,l),
(365,767,o),
(318,780,o),
(273,780,cs),
(162,780,o),
(108,703,o),
(108,618,cs),
(108,571,o),
(124,537,o),
(130,519,cs),
(131,516,o),
(132,512,o),
(132,510,cs),
(132,504,o),
(125,500,o),
(119,500,cs),
(44,500,l),
(44,274,l),
(126,274,l),
(126,199,o),
(126,89,o),
(121,0,c)
);
}
);
width = 433;
},
{
background = {
shapes = (
{
pos = (-31,788);
ref = t;
scale = (1,-1);
}
);
};
layerId = "60D037D9-62E9-4843-B070-F1594CB0B0D1";
shapes = (
{
closed = 1;
nodes = (
(132,0,l),
(129,149,o),
(129,298,o),
(129,447,c),
(274,447,l),
(274,480,l),
(133,480,ls),
(128,480,o),
(126,482,o),
(125,484,cs),
(110,515,o),
(82,705,o),
(242,705,cs),
(277,705,o),
(316,697,o),
(343,681,c),
(343,722,l),
(311,735,o),
(277,741,o),
(245,741,cs),
(146,741,o),
(92,682,o),
(92,578,cs),
(92,543,o),
(98,519,o),
(102,498,cs),
(103,493,o),
(103,493,o),
(103,488,cs),
(103,481,o),
(99,480,o),
(91,480,cs),
(39,480,l),
(39,447,l),
(104,447,l),
(104,298,o),
(104,149,o),
(101,0,c)
);
}
);
width = 272;
}
);
metricLeft = i;
unicode = 102;
},
{
color = 3;
glyphname = g;
lastChange = "2023-11-21 17:47:20 +0000";
layers = (
{
anchors = (
{
name = bottom;
pos = (281,-227);
},
{
name = top;
pos = (281,500);
}
);
background = {
shapes = (
{
pos = (6,0);
ref = a;
},
{
closed = 1;
nodes = (
(434,-204,o),
(595,-153,o),
(591,124,cs),
(589,232,o),
(587,319,o),
(591,500,c),
(505,500,l),
(508,441,o),
(511,410,o),
(495,410,cs),
(479,410,o),
(477,428,o),
(443,462,cs),
(415,490,o),
(371,515,o),
(291,516,cs),
(135,518,o),
(37,466,o),
(36,258,cs),
(35,58,o),
(96,-16,o),
(291,-16,cs),
(379,-16,o),
(413,10,o),
(436,36,cs),
(461,63,o),
(472,97,o),
(488,90,cs),
(502,84,o),
(488,53,o),
(466,23,cs),
(432,-25,o),
(387,-51,o),
(291,-53,cs),
(237,-54,o),
(170,-48,o),
(91,-9,c),
(91,-197,l),
(153,-205,o),
(246,-212,o),
(317,-209,cs)
);
},
{
closed = 1;
nodes = (
(168,106,o),
(118,123,o),
(118,175,cs),
(118,227,o),
(168,244,o),
(282,244,cs),
(396,244,o),
(457,227,o),
(457,175,cs),
(457,123,o),
(396,106,o),
(282,106,cs)
);
}
);
};
layerId = m01;
shapes = (
{
closed = 1;
nodes = (
(483,-227,o),
(584,-131,o),
(584,61,cs),
(584,311,o),
(584,367,o),
(594,500,c),
(505,500,l),
(508,473,o),
(508,460,o),
(508,440,cs),
(508,418,o),
(505,410,o),
(496,410,cs),
(489,410,o),
(483,415,o),
(471,432,cs),
(430,491,o),
(372,516,o),
(279,516,cs),
(113,516,o),
(36,431,o),
(36,247,cs),
(36,65,o),
(110,-16,o),
(276,-16,cs),
(363,-16,o),
(424,8,o),
(456,54,cs),
(476,83,o),
(482,90,o),
(488,90,cs),
(498,90,o),
(502,81,o),
(502,58,cs),
(502,-40,o),
(444,-85,o),
(319,-85,cs),
(267,-85,o),
(206,-77,o),
(131,-61,c),
(131,-209,l),
(173,-221,o),
(224,-227,o),
(281,-227,cs)
);
},
{
closed = 1;
nodes = (
(144,106,o),
(123,115,o),
(123,175,cs),
(123,235,o),
(144,244,o),
(288,244,cs),
(432,244,o),
(453,235,o),
(453,175,cs),
(453,115,o),
(432,106,o),
(288,106,cs)
);
}
);
width = 640;
},
{
anchors = (
{
name = bottom;
pos = (271,-207);
},
{
name = top;
pos = (275,480);
}
);
background = {
shapes = (
{
closed = 1;
nodes = (
(409,-16,o),
(451,87,o),
(471,87,cs),
(481,87,o),
(490,58,o),
(485,27,cs),
(458,-127,o),
(380,-181,o),
(256,-181,cs),
(214,-181,o),
(153,-175,o),
(92,-159,c),
(92,-194,l),
(143,-210,o),
(200,-217,o),
(245,-217,cs),
(410,-217,o),
(504,-124,o),
(504,47,cs),
(504,210,o),
(505,318,o),
(510,480,c),
(480,480,l),
(484,408,o),
(481,393,o),
(472,393,cs),
(449,393,o),
(409,496,o),
(275,496,cs),
(145,496,o),
(62,400,o),
(62,240,cs),
(62,80,o),
(145,-16,o),
(275,-16,cs)
);
},
{
closed = 1;
nodes = (
(151,21,o),
(85,106,o),
(85,240,cs),
(85,374,o),
(150,459,o),
(276,459,cs),
(398,459,o),
(483,380,o),
(483,242,cs),
(483,105,o),
(399,21,o),
(275,21,cs)
);
}
);
};
layerId = "60D037D9-62E9-4843-B070-F1594CB0B0D1";
shapes = (
{
closed = 1;
nodes = (
(421,-207,o),
(504,-117,o),
(504,47,cs),
(504,210,o),
(505,318,o),
(510,480,c),
(479,480,l),
(481,461,o),
(482,446,o),
(482,435,cs),
(482,401,o),
(479,393,o),
(472,393,cs),
(467,393,o),
(455,405,o),
(433,427,cs),
(407,454,o),
(360,496,o),
(275,496,cs),
(145,496,o),
(62,400,o),
(62,240,cs),
(62,80,o),
(145,-16,o),
(275,-16,cs),
(367,-16,o),
(417,32,o),
(439,58,cs),
(460,83,o),
(466,87,o),
(471,87,cs),
(479,87,o),
(482,74,o),
(482,39,cs),
(482,-89,o),
(402,-171,o),
(277,-171,cs),
(239,-171,o),
(185,-164,o),
(125,-143,c),
(125,-182,l),
(175,-198,o),
(223,-207,o),
(271,-207,cs)
);
},
{
closed = 1;
nodes = (
(151,21,o),
(85,106,o),
(85,240,cs),
(85,374,o),
(150,459,o),
(276,459,cs),
(398,459,o),
(483,380,o),
(483,242,cs),
(483,105,o),
(399,21,o),
(275,21,cs)
);
}
);
width = 586;
}
);
metricLeft = o;
metricRight = n;
unicode = 103;
},
{
color = 4;
glyphname = h;
lastChange = "2023-11-21 17:23:00 +0000";
layers = (
{
anchors = (
{
name = bottom;
pos = (306,0);
},
{
name = center;
pos = (306,800);
},
{
name = top;
pos = (306,800);
}
);
layerId = m01;
shapes = (
{
closed = 1;
nodes = (
(145,0,l),
(142,83,o),
(141,128,o),
(141,176,cs),
(141,228,o),
(154,233,o),
(303,233,cs),
(452,233,o),
(465,228,o),
(465,176,cs),
(465,111,o),
(465,78,o),
(460,0,c),
(551,0,l),
(548,62,o),
(547,195,o),
(547,356,cs),
(547,477,o),
(460,516,o),
(358,516,cs),
(181,516,o),
(177,410,o),
(152,410,cs),
(138,410,o),
(137,436,o),
(141,740,c),
(54,740,l),
(59,395,o),
(59,345,o),
(54,0,c)
);
}
);
width = 597;
},
{
anchors = (
{
name = bottom;
pos = (267,0);
},
{
name = center;
pos = (267,800);
},
{
name = top;
pos = (267,800);
}
);
layerId = "60D037D9-62E9-4843-B070-F1594CB0B0D1";
shapes = (
{
closed = 1;
nodes = (
(128,0,l),
(125,143,o),
(116,296,o),
(131,337,cs),
(153,398,o),
(217,459,o),
(337,459,cs),
(437,459,o),
(492,417,o),
(492,328,cs),
(492,205,o),
(491,135,o),
(486,0,c),
(518,0,l),
(516,58,o),
(515,167,o),
(515,356,cs),
(515,419,o),
(484,496,o),
(346,496,cs),
(188,496,o),
(152,393,o),
(137,393,cs),
(128,393,o),
(128,407,o),
(128,740,c),
(96,740,l),
(101,394,o),
(101,345,o),
(96,0,c)
);
}
);
width = 594;
}
);
metricRight = n;
unicode = 104;
},
{
color = 1;
glyphname = i;
lastChange = "2023-11-17 19:42:32 +0000";
layers = (
{
anchors = (
{
name = bottom;
pos = (221,0);
}
);
background = {
shapes = (
{
closed = 1;
nodes = (
(395,0,l),
(395,38,o),
(395,57,o),
(395,95,c),
(296,95,l),
(295,253,o),
(297,308,o),
(299,500,c),
(48,500,l),
(49,418,o),
(50,332,o),
(49,250,c),
(105,250,o),
(162,250,o),
(218,250,c),
(220,203,o),
(221,142,o),
(219,95,c),
(161,95,o),
(102,95,o),
(44,95,c),
(44,57,o),
(44,38,o),
(44,0,c)
);
},
{
closed = 1;
nodes = (
(309,636,o),
(338,653,o),
(338,700,cs),
(338,749,o),
(309,766,o),
(226,766,cs),
(143,766,o),
(114,749,o),
(114,700,cs),
(114,653,o),
(143,636,o),
(226,636,cs)
);
}
);
};
layerId = m01;
shapes = (
{
closed = 1;
nodes = (
(395,0,l),
(395,89,l),
(372,87,o),
(352,86,o),
(333,86,cs),
(284,86,o),
(280,94,o),
(280,130,cs),
(280,301,o),
(282,472,o),
(284,500,c),
(60,500,l),
(61,261,l),
(84,262,o),
(119,263,o),
(143,264,cs),
(203,268,o),
(208,261,o),
(208,178,cs),
(208,93,o),
(204,86,o),
(158,86,cs),
(126,86,o),
(83,86,o),
(44,89,c),
(44,0,l)
);
},
{
closed = 1;
nodes = (
(319,620,o),
(352,645,o),
(352,692,cs),
(352,733,o),
(319,764,o),
(244,764,cs),
(165,764,o),
(131,738,o),
(131,692,cs),
(131,650,o),
(165,620,o),
(244,620,cs)
);
}
);
width = 401;
},
{
anchors = (
{
name = bottom;
pos = (223,0);
}
);
guides = (
{
pos = (738,11);
}
);
layerId = "60D037D9-62E9-4843-B070-F1594CB0B0D1";
shapes = (
{
closed = 1;
nodes = (
(412,0,l),
(412,32,l),
(375,32,o),
(338,32,o),
(324,32,cs),
(242,32,o),
(236,43,o),
(236,71,cs),
(236,299,o),
(237,362,o),
(237,480,c),
(49,480,l),
(49,449,l),
(56,450,o),
(125,452,o),
(154,451,cs),
(216,449,o),
(215,456,o),
(215,91,cs),
(215,32,o),
(216,32,o),
(115,32,cs),
(56,32,o),
(98,32,o),
(39,32,c),
(39,0,l)
);
},
{
closed = 1;
nodes = (
(251,656,o),
(266,671,o),
(266,696,cs),
(266,725,o),
(249,740,o),
(215,740,cs),
(179,740,o),
(164,725,o),
(164,696,cs),
(164,668,o),
(179,656,o),
(215,656,cs)
);
}
);
width = 436;
}
);
unicode = 105;
},
{
color = 1;
glyphname = j;
lastChange = "2023-11-17 19:43:48 +0000";
layers = (
{
background = {
shapes = (
{
pos = (35,0);
ref = i;
}
);
};
layerId = m01;
shapes = (
{
closed = 1;
nodes = (
(47,-215,o),
(88,-222,o),
(125,-222,cs),
(225,-222,o),
(314,-171,o),
(314,-8,cs),
(314,78,o),
(313,417,o),
(314,500,c),
(96,500,l),
(96,261,l),
(140,263,o),
(174,263,o),
(208,263,cs),
(231,263,o),
(236,263,o),
(240,229,cs),
(243,204,o),
(245,162,o),
(245,136,cs),
(245,117,o),
(244,94,o),
(239,70,cs),
(224,-1,o),
(180,-36,o),
(108,-36,cs),
(69,-36,o),
(37,-26,o),
(10,-6,c),
(10,-203,l)
);
},
{
closed = 1;
nodes = (
(318,620,o),
(352,645,o),
(352,690,cs),
(352,733,o),
(321,764,o),
(241,764,cs),
(167,764,o),
(131,738,o),
(131,693,cs),
(131,649,o),
(166,620,o),
(245,620,cs)
);
}
);
width = 360;
},
{
layerId = "60D037D9-62E9-4843-B070-F1594CB0B0D1";
shapes = (
{
closed = 1;
nodes = (
(-6,-195,o),
(30,-203,o),
(63,-203,cs),
(162,-203,o),
(236,-134,o),
(236,47,cs),
(236,275,o),
(237,362,o),
(237,480,c),
(49,480,l),
(49,449,l),
(56,450,o),
(122,450,o),
(151,450,cs),
(209,450,o),
(210,448,o),
(214,350,cs),
(215,326,o),
(215,305,o),
(215,276,cs),
(215,218,o),
(214,141,o),
(214,39,cs),
(214,-105,o),
(149,-166,o),
(61,-166,cs),
(29,-166,o),
(-6,-158,o),
(-42,-143,c),
(-42,-182,l)
);
},
{
closed = 1;
nodes = (
(251,656,o),
(266,670,o),
(266,697,cs),
(266,725,o),
(249,740,o),
(214,740,cs),
(179,740,o),
(164,725,o),
(164,697,cs),
(164,668,o),
(179,656,o),
(214,656,cs)
);
}
);
width = 336;
}
);
unicode = 106;
},
{
color = 1;
glyphname = k;
lastChange = "2023-11-21 17:23:00 +0000";
layers = (
{
anchors = (
{
name = bottom;
pos = (260,0);
},
{
name = top;
pos = (260,740);
}
);
layerId = m01;
shapes = (
{
closed = 1;
nodes = (
(313,-23,o),
(484,0,c),
(484,189,l),
(399,184,o),
(337,181,o),
(238,234,cs),
(228,240,o),
(226,243,o),
(226,253,cs),
(226,262,o),
(229,264,o),
(243,268,cs),
(394,313,o),
(483,339,o),
(483,500,c),
(303,500,l),
(296,368,o),
(287,350,o),
(208,350,cs),
(147,350,o),
(141,361,o),
(141,483,cs),
(141,583,o),
(145,665,o),
(145,740,c),
(54,740,l),
(60,494,o),
(60,246,o),
(54,0,c),
(145,0,l),
(141,55,o),
(136,113,o),
(136,167,cs),
(136,208,o),
(139,215,o),
(157,215,cs),
(177,215,o),
(176,207,o),
(191,166,cs),
(248,9,o)
);
}
);
width = 520;
},
{
anchors = (
{
name = bottom;
pos = (242,0);
},
{
name = top;
pos = (242,740);
}
);
background = {
shapes = (
{
closed = 1;
nodes = (
(316,290,ls),
(370,290,o),
(379,286,o),
(386,311,cs),
(399,356,o),
(419,429,o),
(437,501,c),
(418,501,l),
(397,418,o),
(384,355,o),
(373,328,cs),
(369,318,o),
(360,309,o),
(315,306,cs),
(264,304,o),
(188,307,o),
(67,307,c),
(68,290,l)
);
},
{
closed = 1;
nodes = (
(71,0,l),
(69,252,l),
(69,328,l),
(75,801,l),
(50,801,l),
(57,534,o),
(57,267,o),
(54,0,c)
);
},
{
closed = 1;
nodes = (
(464,0,l),
(441,114,o),
(418,231,o),
(377,304,c),
(365,290,l),
(397,231,o),
(413,131,o),
(440,0,c)
);
}
);
};
layerId = "60D037D9-62E9-4843-B070-F1594CB0B0D1";
shapes = (
{
closed = 1;
nodes = (
(420,0,o),
(536,0,c),
(536,29,l),
(420,22,o),
(366,57,o),
(293,229,cs),
(285,248,o),
(284,251,o),
(284,256,cs),
(284,262,o),
(286,262,o),
(299,266,cs),
(409,299,o),
(439,338,o),
(458,480,c),
(420,480,l),
(415,362,o),
(377,274,o),
(185,274,cs),
(124,274,o),
(120,283,o),
(120,430,cs),
(120,625,o),
(127,642,o),
(127,740,c),
(96,740,l),
(102,494,o),
(102,236,o),
(96,0,c),
(127,0,l),
(126,14,o),
(117,133,o),
(117,190,cs),
(117,244,o),
(125,251,o),
(184,251,cs),
(258,251,o),
(262,240,o),
(273,216,cs),
(377,-4,o)
);
}
);
width = 598;
}
);
metricLeft = h;
metricRight = o;
unicode = 107;
},
{
color = 1;
glyphname = l;
lastChange = "2023-11-21 16:59:34 +0000";
layers = (
{
anchors = (
{
name = bottom;
pos = (129,0);
},
{
name = center;
pos = (164,437);
},
{
name = top;
pos = (131,740);
},
{
name = topright;
pos = (325,740);
}
);
layerId = m01;
shapes = (
{
closed = 1;
nodes = (
(262,-8,o),
(301,0,o),
(324,0,c),
(324,218,l),
(301,214,o),
(272,213,o),
(249,213,cs),
(200,213,o),
(193,236,o),
(193,272,cs),
(193,683,o),
(198,712,o),
(200,740,c),
(-24,740,l),
(-23,501,l),
(0,502,o),
(35,503,o),
(59,504,cs),
(107,506,o),
(120,503,o),
(120,404,cs),
(119,99,ls),
(119,13,o),
(171,-6,o),
(224,-7,cs)
);
}
);
width = 355;
},
{
anchors = (
{
name = bottom;
pos = (154,0);
},
{
name = center;
pos = (152,240);
},
{
name = top;
pos = (158,740);
},
{
name = topright;
pos = (287,740);
}
);
layerId = "60D037D9-62E9-4843-B070-F1594CB0B0D1";
shapes = (
{
closed = 1;
nodes = (
(250,-16,o),
(282,-7,o),
(308,3,c),
(308,44,l),
(278,33,o),
(257,22,o),
(222,22,cs),
(178,22,o),
(154,40,o),
(154,79,cs),
(154,450,o),
(156,548,o),
(158,740,c),
(0,740,l),
(0,709,l),
(38,709,o),
(15,709,o),
(91,709,cs),
(129,709,o),
(132,700,o),
(132,600,cs),
(132,70,ls),
(132,18,o),
(158,-16,o),
(219,-16,cs)
);
}
);
width = 337;
}
);
unicode = 108;
},
{
color = 4;
glyphname = m;
lastChange = "2023-11-21 17:23:00 +0000";
layers = (
{
layerId = "60D037D9-62E9-4843-B070-F1594CB0B0D1";
shapes = (
{
closed = 1;
nodes = (
(112,0,l),
(110,85,o),
(110,119,o),
(110,254,cs),
(110,390,o),
(181,459,o),
(301,459,cs),
(397,459,o),
(460,413,o),
(457,275,cs),
(455,183,o),
(454,92,o),
(452,0,c),
(480,0,l),
(479,99,o),
(478,189,o),
(478,288,cs),
(478,403,o),
(559,459,o),
(674,459,cs),
(770,459,o),
(827,413,o),
(824,275,cs),
(822,183,o),
(821,92,o),
(819,0,c),
(847,0,l),
(846,102,o),
(845,194,o),
(845,296,cs),
(845,433,o),
(786,496,o),
(684,496,cs),
(517,496,o),
(501,391,o),
(473,391,cs),
(445,391,o),
(437,496,o),
(305,496,cs),
(168,496,o),
(137,384,o),
(117,384,cs),
(103,384,o),
(111,440,o),
(112,480,c),
(86,480,l),
(89,246,o),
(89,221,o),
(86,0,c)
);
}
);
width = 923;
},
{
background = {
shapes = (
{
pos = (-57,0);
ref = n.ss01;
},
{
closed = 1;
nodes = (
(94,0,l),
(91,67,o),
(89,117,o),
(90,145,cs),
(93,219,o),
(116,233,o),
(256,233,cs),
(396,233,o),
(420,219,o),
(422,145,cs),
(423,117,o),
(418,67,o),
(415,0,c),
(498,0,l),
(495,67,o),
(493,117,o),
(494,145,cs),
(497,219,o),
(520,233,o),
(660,233,cs),
(800,233,o),
(829,219,o),
(826,145,cs),
(825,117,o),
(822,67,o),
(819,0,c),
(909,0,l),
(907,119,o),
(907,210,o),
(907,329,cs),
(907,441,o),
(840,510,o),
(690,515,cs),
(629,517,o),
(563,494,o),
(520,453,cs),
(489,423,o),
(491,409,o),
(479,409,cs),
(462,409,o),
(461,434,o),
(421,476,cs),
(389,509,o),
(326,519,o),
(272,515,cs),
(210,510,o),
(164,481,o),
(138,453,cs),
(116,430,o),
(109,410,o),
(91,410,cs),
(76,410,o),
(84,481,o),
(84,500,c),
(4,500,l),
(8,267,o),
(8,233,o),
(4,0,c)
);
}
);
};
layerId = m01;
shapes = (
{
closed = 1;
nodes = (
(144,0,l),
(140,81,o),
(139,121,o),
(140,145,cs),
(143,226,o),
(155,233,o),
(292,233,cs),
(435,233,o),
(447,226,o),
(447,145,cs),
(447,116,o),
(446,89,o),
(440,0,c),
(523,0,l),
(519,84,o),
(518,122,o),
(519,145,cs),
(522,226,o),
(534,233,o),
(671,233,cs),
(814,233,o),
(826,226,o),
(826,145,cs),
(826,127,o),
(825,109,o),
(819,0,c),
(909,0,l),
(907,79,o),
(907,129,o),
(907,329,cs),
(907,447,o),
(851,515,o),
(698,515,cs),
(547,515,o),
(545,409,o),
(511,409,cs),
(479,409,o),
(497,515,o),
(327,515,cs),
(186,515,o),
(181,410,o),
(141,410,cs),
(133,410,o),
(132,420,o),
(134,500,c),
(54,500,l),
(58,267,o),
(58,233,o),
(54,0,c)
);
}
);
width = 955;
}
);
metricLeft = n;
metricRight = n;
unicode = 109;
},
{
color = 5;
glyphname = n;
lastChange = "2023-11-21 17:22:08 +0000";
layers = (
{
anchors = (
{
name = bottom;
pos = (304,0);
},
{
name = top;
pos = (304,500);
}
);
background = {
shapes = (
{
pos = (640,0);
ref = a;
scale = (-1,1);
}
);
};
layerId = m01;
shapes = (
{
closed = 1;
nodes = (
(145,0,l),
(142,83,o),
(141,128,o),
(141,176,cs),
(141,228,o),
(154,233,o),
(303,233,cs),
(452,233,o),
(465,228,o),
(465,176,cs),
(465,111,o),
(465,78,o),
(460,0,c),
(551,0,l),
(548,62,o),
(547,195,o),
(547,356,cs),
(547,477,o),
(460,516,o),
(358,516,cs),
(235,516,o),
(197,466,o),
(180,442,cs),
(165,421,o),
(157,410,o),
(149,410,cs),
(142,410,o),
(139,413,o),
(139,441,cs),
(139,455,o),
(140,473,o),
(142,500,c),
(54,500,l),
(59,267,o),
(59,233,o),
(54,0,c)
);
}
);
width = 597;
},
{
anchors = (
{
name = bottom;
pos = (297,0);
},
{
name = top;
pos = (297,480);
}
);
background = {
shapes = (
{
closed = 1;
nodes = (
(108,0,l),
(106,66,o),
(106,80,o),
(106,254,cs),
(106,381,o),
(185,459,o),
(314,459,cs),
(436,459,o),
(492,401,o),
(492,275,cs),
(492,189,o),
(490,104,o),
(487,0,c),
(516,0,l),
(514,103,o),
(514,161,o),
(514,296,cs),
(514,426,o),
(450,496,o),
(330,496,cs),
(210,496,o),
(118,429,o),
(106,333,c),
(106,418,o),
(108,447,o),
(108,480,c),
(79,480,l),
(82,246,o),
(82,221,o),
(79,0,c)
);
}
);
};
layerId = "60D037D9-62E9-4843-B070-F1594CB0B0D1";
shapes = (
{
closed = 1;
nodes = (
(117,0,l),
(114,143,o),
(106,296,o),
(121,337,cs),
(143,398,o),
(207,459,o),
(327,459,cs),
(427,459,o),
(482,417,o),
(482,328,cs),
(482,205,o),
(482,135,o),
(477,0,c),
(508,0,l),
(506,58,o),
(505,167,o),
(505,356,cs),
(505,419,o),
(474,496,o),
(336,496,cs),
(227,496,o),
(176,449,o),
(158,426,cs),
(137,399,o),
(131,393,o),
(127,393,cs),
(121,393,o),
(119,394,o),
(118,422,cs),
(118,435,o),
(118,453,o),
(118,480,c),
(86,480,l),
(91,256,o),
(91,224,o),
(86,0,c)
);
}
);
width = 584;
}
);
unicode = 110;
},
{
color = 5;
glyphname = o;
lastChange = "2023-11-20 13:35:52 +0000";
layers = (
{
anchors = (
{
name = bottom;
pos = (300,0);
},
{
name = center;
pos = (300,250);
},
{
name = ogonek;
pos = (527,10);
},
{
name = top;
pos = (300,500);
},
{
name = topright;
pos = (564,500);
}
);
layerId = m01;
shapes = (
{
closed = 1;
nodes = (
(482,-16,o),
(564,65,o),
(564,246,cs),
(564,431,o),
(480,516,o),
(300,516,cs),
(121,516,o),
(36,430,o),
(36,246,cs),
(36,65,o),
(118,-16,o),
(300,-16,cs)
);
},
{
closed = 1;
nodes = (
(145,98,o),
(123,106,o),
(123,165,cs),
(123,225,o),
(145,234,o),
(300,234,cs),
(455,234,o),
(477,225,o),
(477,165,cs),
(477,106,o),
(455,98,o),
(300,98,cs)
);
}
);
width = 600;
},
{
anchors = (
{
name = bottom;
pos = (289,0);
},
{
name = center;
pos = (289,239);
},
{
name = ogonek;
pos = (525,10);
},
{
name = top;
pos = (289,480);
},
{
name = topright;
pos = (564,480);
}
);
guides = (
{
angle = 90;
pos = (289,239);
showMeasurement = 1;
},
{
pos = (289,239);
showMeasurement = 1;
}
);
layerId = "60D037D9-62E9-4843-B070-F1594CB0B0D1";
shapes = (
{
closed = 1;
nodes = (
(438,-16,o),
(516,92,o),
(516,240,cs),
(516,388,o),
(438,496,o),
(289,496,cs),
(140,496,o),
(62,388,o),
(62,240,cs),
(62,92,o),
(140,-16,o),
(289,-16,cs)
);
},
{
closed = 1;
nodes = (
(154,21,o),
(83,106,o),
(83,240,cs),
(83,374,o),
(154,459,o),
(289,459,cs),
(424,459,o),
(495,374,o),
(495,240,cs),
(495,106,o),
(424,21,o),
(289,21,cs)
);
}
);
width = 578;
}
);
unicode = 111;
},
{
color = 3;
glyphname = p;
lastChange = "2023-11-21 17:47:29 +0000";
layers = (
{
anchors = (
{
name = bottom;
pos = (324,0);
},
{
name = top;
pos = (324,500);
}
);
background = {
shapes = (
{
pos = (119,0);
ref = b;
}
);
};
layerId = m01;
shapes = (
{
closed = 1;
nodes = (
(146,-226,l),
(144,-117,o),
(144,-24,o),
(144,54,cs),
(144,76,o),
(147,90,o),
(161,90,cs),
(169,90,o),
(175,82,o),
(185,66,cs),
(205,34,o),
(241,-16,o),
(370,-16,cs),
(534,-16,o),
(612,60,o),
(612,250,cs),
(612,431,o),
(534,516,o),
(370,516,cs),
(242,516,o),
(201,467,o),
(179,436,cs),
(168,421,o),
(159,410,o),
(152,410,cs),
(143,410,o),
(140,420,o),
(140,437,cs),
(140,452,o),
(142,475,o),
(147,500,c),
(54,500,l),
(60,188,o),
(60,139,o),
(56,-226,c)
);
},
{
closed = 1;
nodes = (
(216,106,o),
(195,115,o),
(195,175,cs),
(195,235,o),
(216,244,o),
(360,244,cs),
(504,244,o),
(525,235,o),
(525,175,cs),
(525,115,o),
(504,106,o),
(360,106,cs)
);
}
);
width = 648;
},
{
anchors = (
{
name = bottom;
pos = (304,0);
},
{
name = top;
pos = (304,480);
}
);
layerId = "60D037D9-62E9-4843-B070-F1594CB0B0D1";
shapes = (
{
closed = 1;
nodes = (
(129,-207,l),
(126,-138,o),
(126,-11,o),
(126,53,cs),
(126,80,o),
(130,87,o),
(135,87,cs),
(141,87,o),
(153,75,o),
(168,59,cs),
(197,28,o),
(244,-16,o),
(332,-16,cs),
(462,-16,o),
(545,80,o),
(545,240,cs),
(545,400,o),
(462,496,o),
(332,496,cs),
(241,496,o),
(193,450,o),
(165,418,cs),
(152,403,o),
(142,393,o),
(135,393,cs),
(130,393,o),
(126,400,o),
(126,430,cs),
(126,442,o),
(126,458,o),
(127,480,c),
(97,480,l),
(102,159,o),
(102,115,o),
(96,-207,c)
);
},
{
closed = 1;
nodes = (
(208,21,o),
(123,96,o),
(123,240,cs),
(123,384,o),
(207,459,o),
(332,459,cs),
(456,459,o),
(522,374,o),
(522,240,cs),
(522,106,o),
(457,21,o),
(332,21,cs)
);
}
);
width = 607;
}
);
metricLeft = h;
metricRight = o;
unicode = 112;
},
{
color = 3;
glyphname = q;
lastChange = "2023-11-21 17:48:07 +0000";
layers = (
{
anchors = (
{
name = bottom;
pos = (306,0);
},
{
name = top;
pos = (306,500);
}
);
layerId = m01;
shapes = (
{
closed = 1;
nodes = (
(588,139,o),
(588,188,o),
(594,500,c),
(501,500,l),
(506,475,o),
(508,452,o),
(508,437,cs),
(508,420,o),
(505,410,o),
(496,410,cs),
(489,410,o),
(480,421,o),
(469,436,cs),
(447,467,o),
(406,516,o),
(278,516,cs),
(114,516,o),
(36,431,o),
(36,250,cs),
(36,60,o),
(114,-16,o),
(278,-16,cs),
(407,-16,o),
(443,34,o),
(463,66,cs),
(473,82,o),
(479,90,o),
(487,90,cs),
(501,90,o),
(504,76,o),
(504,54,cs),
(504,-24,o),
(504,-117,o),
(502,-226,c),
(592,-226,l)
);
},
{
closed = 1;
nodes = (
(144,106,o),
(123,115,o),
(123,175,cs),
(123,235,o),
(144,244,o),
(288,244,cs),
(432,244,o),
(453,235,o),
(453,175,cs),
(453,115,o),
(432,106,o),
(288,106,cs)
);
}
);
width = 648;
},
{
anchors = (
{
name = bottom;
pos = (304,0);
},
{
name = top;
pos = (304,480);
}
);
layerId = "60D037D9-62E9-4843-B070-F1594CB0B0D1";
shapes = (
{
closed = 1;
nodes = (
(505,115,o),
(505,159,o),
(510,480,c),
(480,480,l),
(481,458,o),
(481,442,o),
(481,430,cs),
(481,400,o),
(477,393,o),
(472,393,cs),
(465,393,o),
(455,403,o),
(442,418,cs),
(414,450,o),
(366,496,o),
(275,496,cs),
(145,496,o),
(62,400,o),
(62,240,cs),
(62,80,o),
(145,-16,o),
(275,-16,cs),
(363,-16,o),
(410,28,o),
(439,59,cs),
(454,75,o),
(466,87,o),
(472,87,cs),
(477,87,o),
(481,80,o),
(481,53,cs),
(481,-11,o),
(481,-138,o),
(478,-207,c),
(511,-207,l)
);
},
{
closed = 1;
nodes = (
(150,21,o),
(85,106,o),
(85,240,cs),
(85,374,o),
(151,459,o),
(275,459,cs),
(400,459,o),
(484,384,o),
(484,240,cs),
(484,96,o),
(399,21,o),
(275,21,cs)
);
}
);
width = 607;
}
);
metricLeft = o;
metricRight = "=|h";
unicode = 113;
},
{
color = 2;
glyphname = r;
lastChange = "2023-11-21 17:23:00 +0000";
layers = (
{
anchors = (
{
name = bottom;
pos = (282,0);
},
{
name = top;
pos = (282,500);
}
);
background = {
shapes = (
{
pos = (-1,0);
ref = n.ss01;
}
);
};
layerId = m01;
shapes = (
{
closed = 1;
nodes = (
(135,0,l),
(133,58,o),
(131,117,o),
(131,175,cs),
(131,228,o),
(146,233,o),
(313,233,cs),
(352,233,o),
(382,232,o),
(404,229,c),
(404,509,l),
(377,514,o),
(362,516,o),
(329,516,cs),
(198,516,o),
(171,410,o),
(151,410,cs),
(140,410,o),
(139,417,o),
(140,500,c),
(54,500,l),
(58,267,o),
(58,233,o),
(54,0,c)
);
}
);
width = 422;
},
{
anchors = (
{
name = bottom;
pos = (282,0);
},
{
name = top;
pos = (282,480);
}
);
layerId = "60D037D9-62E9-4843-B070-F1594CB0B0D1";
shapes = (
{
closed = 1;
nodes = (
(118,0,l),
(115,134,o),
(107,278,o),
(121,317,cs),
(144,379,o),
(207,463,o),
(332,463,cs),
(339,463,o),
(350,462,o),
(358,460,c),
(360,496,l),
(351,499,o),
(342,500,o),
(332,500,cs),
(178,500,o),
(142,373,o),
(127,373,cs),
(118,373,o),
(118,376,o),
(118,480,c),
(86,480,l),
(91,256,o),
(91,224,o),
(86,0,c)
);
}
);
width = 387;
}
);
metricLeft = n;
unicode = 114;
},
{
color = 1;
glyphname = s;
lastChange = "2023-11-14 18:24:08 +0000";
layers = (
{
anchors = (
{
name = bottom;
pos = (270,0);
},
{
name = top;
pos = (270,508);
}
);
layerId = m01;
shapes = (
{
closed = 1;
nodes = (
(391,-16,o),
(472,32,o),
(472,114,cs),
(472,180,o),
(432,206,o),
(291,231,cs),
(217,244,o),
(191,255,o),
(191,273,cs),
(191,285,o),
(208,289,o),
(261,289,cs),
(312,289,o),
(359,285,o),
(460,274,c),
(460,502,l),
(383,511,o),
(337,514,o),
(300,514,cs),
(134,514,o),
(36,449,o),
(36,339,cs),
(36,255,o),
(87,218,o),
(241,190,cs),
(311,177,o),
(345,162,o),
(345,145,cs),
(345,131,o),
(324,125,o),
(268,125,cs),
(213,125,o),
(152,135,o),
(52,159,c),
(49,3,l),
(99,-10,o),
(163,-16,o),
(251,-16,cs)
);
}
);
width = 508;
},
{
anchors = (
{
name = bottom;
pos = (255,0);
},
{
name = top;
pos = (255,480);
}
);
layerId = "60D037D9-62E9-4843-B070-F1594CB0B0D1";
shapes = (
{
closed = 1;
nodes = (
(353,-16,o),
(423,31,o),
(423,108,cs),
(423,172,o),
(383,193,o),
(230,238,cs),
(129,268,o),
(92,295,o),
(92,356,cs),
(92,416,o),
(153,458,o),
(239,458,cs),
(279,458,o),
(354,452,o),
(398,439,c),
(398,480,l),
(340,493,o),
(292,496,o),
(246,496,cs),
(134,496,o),
(62,441,o),
(62,356,cs),
(62,288,o),
(106,249,o),
(218,217,cs),
(364,177,o),
(399,146,o),
(399,105,cs),
(399,53,o),
(345,21,o),
(227,21,cs),
(165,21,o),
(106,31,o),
(68,46,c),
(68,4,l),
(117,-10,o),
(170,-16,o),
(238,-16,cs)
);
}
);
width = 485;
}
);
metricLeft = o;
metricRight = o;
unicode = 115;
},
{
color = 0;
glyphname = t;
lastChange = "2023-11-17 06:18:40 +0000";
layers = (
{
anchors = (
{
name = bottom;
pos = (237,0);
},
{
name = center;
pos = (237,250);
},
{
name = top;
pos = (237,500);
},
{
name = topright;
pos = (394,650);
}
);
background = {
shapes = (
{
closed = 1;
nodes = (
(328,-10,o),
(386,5,o),
(421,27,c),
(421,227,l),
(386,208,o),
(317,188,o),
(249,188,cs),
(134,188,o),
(107,215,o),
(106,265,c),
(108,484,l),
(111,630,l),
(31,630,l),
(31,484,l),
(29,277,l),
(15,56,o),
(109,-10,o),
(249,-10,cs)
);
},
{
closed = 1;
nodes = (
(47,500,l),
(-46,500,l),
(-46,290,l),
(44,289,l)
);
},
{
closed = 1;
nodes = (
(451,290,l),
(451,500,l),
(92,500,l),
(91,290,l)
);
}
);
};
layerId = m01;
shapes = (
{
closed = 1;
nodes = (
(313,-8,o),
(347,4,o),
(373,20,c),
(373,222,l),
(360,214,o),
(329,200,o),
(283,200,cs),
(232,200,o),
(204,230,o),
(191,256,cs),
(183,272,o),
(193,274,o),
(199,274,c),
(389,274,l),
(389,500,l),
(190,500,l),
(191,545,o),
(191,589,o),
(195,634,c),
(109,634,l),
(112,589,o),
(112,545,o),
(112,500,c),
(30,500,l),
(30,274,l),
(105,274,l),
(111,274,o),
(122,270,o),
(116,255,cs),
(44,82,o),
(161,-8,o),
(244,-8,cs)
);
}
);
width = 424;
},
{
anchors = (
{
name = bottom;
pos = (240,0);
},
{
name = center;
pos = (240,240);
},
{
name = top;
pos = (240,480);
},
{
name = topright;
pos = (464,800);
}
);
layerId = "60D037D9-62E9-4843-B070-F1594CB0B0D1";
shapes = (
{
closed = 1;
nodes = (
(276,0,o),
(311,6,o),
(343,19,c),
(343,61,l),
(316,45,o),
(275,37,o),
(245,37,cs),
(144,37,o),
(70,93,o),
(123,434,cs),
(125,445,o),
(128,447,o),
(134,447,cs),
(274,447,l),
(274,480,l),
(127,480,l),
(128,566,o),
(127,485,o),
(130,634,c),
(99,634,l),
(102,485,o),
(101,566,o),
(102,480,c),
(39,480,l),
(39,447,l),
(90,447,ls),
(100,447,o),
(104,446,o),
(101,429,cs),
(39,57,o),
(135,0,o),
(249,0,cs)
);
}
);
width = 373;
}
);
unicode = 116;
},
{
color = 2;
glyphname = u;
lastChange = "2023-11-21 17:07:38 +0000";
layers = (
{
anchors = (
{
name = bottom;
pos = (275,0);
},
{
name = ogonek;
pos = (52,10);
},
{
name = top;
pos = (275,500);
},
{
name = topright;
pos = (16,500);
}
);
background = {
shapes = (
{
angle = 180;
pos = (566,500);
ref = o;
}
);
};
layerId = m01;
shapes = (
{
closed = 1;
nodes = (
(462,-16,o),
(524,42,o),
(524,213,cs),
(524,322,o),
(525,414,o),
(528,500,c),
(443,500,l),
(449,428,o),
(452,377,o),
(452,330,cs),
(452,270,o),
(440,265,o),
(282,265,cs),
(124,265,o),
(112,270,o),
(112,330,cs),
(112,377,o),
(115,428,o),
(121,500,c),
(36,500,l),
(39,414,o),
(40,322,o),
(40,213,cs),
(40,42,o),
(102,-16,o),
(282,-16,cs)
);
}
);
width = 564;
},
{
anchors = (
{
name = bottom;
pos = (265,-16);
},
{
name = ogonek;
pos = (492,10);
},
{
name = top;
pos = (264,480);
},
{
name = topright;
pos = (529,480);
}
);
layerId = "60D037D9-62E9-4843-B070-F1594CB0B0D1";
shapes = (
{
closed = 1;
nodes = (
(389,-16,o),
(463,63,o),
(463,193,cs),
(463,307,o),
(465,421,o),
(468,480,c),
(431,480,l),
(436,413,o),
(439,318,o),
(439,211,cs),
(439,75,o),
(391,23,o),
(265,23,cs),
(137,23,o),
(91,73,o),
(91,211,cs),
(91,318,o),
(94,413,o),
(99,480,c),
(62,480,l),
(65,421,o),
(67,307,o),
(67,193,cs),
(67,63,o),
(141,-16,o),
(265,-16,cs)
);
}
);
width = 530;
}
);
metricLeft = o;
metricRight = o;
unicode = 117;
},
{
color = 1;
glyphname = v;
lastChange = "2023-11-21 16:59:13 +0000";
layers = (
{
anchors = (
{
name = bottom;
pos = (276,0);
},
{
name = top;
pos = (276,500);
}
);
background = {
shapes = (
{
closed = 1;
nodes = (
(347,0,ls),
(408,0,o),
(426,-8,o),
(454,108,cs),
(479,210,o),
(463,143,o),
(486,245,cs),
(543,500,l),
(463,500,l),
(418,305,ls),
(414,286,o),
(400,280,o),
(384,278,cs),
(360,275,o),
(317,274,o),
(275,274,cs),
(240,275,o),
(206,276,o),
(183,278,cs),
(164,280,o),
(156,289,o),
(149,315,cs),
(104,500,l),
(24,500,l),
(81,260,ls),
(104,150,o),
(91,210,o),
(114,109,cs),
(141,-8,o),
(156,0,o),
(221,0,cs)
);
}
);
};
layerId = m01;
shapes = (
{
closed = 1;
nodes = (
(452,0,l),
(470,128,o),
(498,259,o),
(558,500,c),
(448,500,l),
(438,410,o),
(431,362,o),
(422,315,cs),
(415,277,o),
(404,274,o),
(285,274,cs),
(167,274,o),
(156,277,o),
(149,315,cs),
(139,368,o),
(131,424,o),
(122,500,c),
(12,500,l),
(70,271,o),
(99,131,o),
(117,0,c)
);
}
);
width = 570;
},
{
anchors = (
{
name = bottom;
pos = (286,0);
},
{
name = top;
pos = (286,480);
}
);
background = {
shapes = (
{
closed = 1;
nodes = (
(324,0,ls),
(378,0,o),
(387,-4,o),
(394,21,cs),
(515,480,l),
(494,480,l),
(381,38,ls),
(374,10,o),
(368,17,o),
(283,17,cs),
(203,17,o),
(195,10,o),
(188,38,cs),
(77,480,l),
(56,480,l),
(174,23,ls),
(181,-3,o),
(197,0,o),
(247,0,cs)
);
}
);
};
layerId = "60D037D9-62E9-4843-B070-F1594CB0B0D1";
shapes = (
{
closed = 1;
nodes = (
(345,-4,l),
(399,161,o),
(457,319,o),
(524,480,c),
(486,480,l),
(433,334,o),
(385,193,o),
(343,64,cs),
(333,34,o),
(328,33,o),
(286,33,cs),
(244,33,o),
(239,34,o),
(229,64,cs),
(187,193,o),
(139,334,o),
(86,480,c),
(48,480,l),
(115,319,o),
(173,161,o),
(227,-4,c)
);
}
);
width = 572;
}
);
unicode = 118;
},
{
color = 0;
glyphname = w;
lastChange = "2023-11-21 17:04:09 +0000";
layers = (
{
anchors = (
{
name = bottom;
pos = (359,0);
},
{
name = top;
pos = (359,500);
}
);
background = {
shapes = (
{
closed = 1;
nodes = (
(407,0,l),
(517,0,ls),
(571,0,o),
(589,-8,o),
(616,109,cs),
(639,210,o),
(627,150,o),
(650,260,c),
(596,343,l),
(588,315,ls),
(581,289,o),
(573,280,o),
(554,278,cs),
(531,276,o),
(524,275,o),
(405,276,c),
(356,276,o),
(363,275,o),
(334,278,cs),
(314,280,o),
(305,288,o),
(298,315,c),
(242,245,l),
(264,143,o),
(248,210,o),
(270,108,cs),
(295,-8,o),
(310,0,o),
(366,0,cs)
);
},
{
closed = 1;
nodes = (
(48,0,l),
(89,0,ls),
(145,0,o),
(160,-8,o),
(185,108,cs),
(207,210,o),
(191,143,o),
(213,245,c),
(157,315,l),
(150,288,o),
(141,280,o),
(121,278,cs),
(92,275,o),
(99,276,o),
(56,276,c),
(-38,275,o),
(-51,276,o),
(-74,278,cs),
(-93,280,o),
(-101,289,o),
(-108,315,cs),
(-116,343,l),
(-170,260,l),
(-147,150,o),
(-159,210,o),
(-136,109,cs),
(-109,-8,o),
(-91,0,o),
(-37,0,cs)
);
},
{
closed = 1;
nodes = (
(-107,260,l),
(-108,315,l),
(-147,500,l),
(-227,500,l),
(-170,260,l)
);
},
{
closed = 1;
nodes = (
(267,500,l),
(187,500,l),
(154,304,l),
(213,245,l)
);
},
{
closed = 1;
nodes = (
(301,304,l),
(268,500,l),
(188,500,l),
(242,245,l)
);
},
{
closed = 1;
nodes = (
(650,260,l),
(707,500,l),
(627,500,l),
(588,315,l),
(587,260,l)
);
}
);
};
layerId = m01;
shapes = (
{
closed = 1;
nodes = (
(305,0,l),
(320,228,o),
(325,248,o),
(361,248,cs),
(397,248,o),
(402,228,o),
(417,0,c),
(642,0,l),
(654,146,o),
(683,341,o),
(710,500,c),
(620,500,l),
(613,382,o),
(610,322,o),
(597,291,cs),
(586,262,o),
(581,260,o),
(531,260,cs),
(467,260,o),
(460,262,o),
(446,289,cs),
(430,319,o),
(424,379,o),
(410,500,c),
(312,500,l),
(298,369,o),
(291,310,o),
(273,283,cs),
(259,262,o),
(253,260,o),
(192,260,cs),
(146,260,o),
(141,262,o),
(127,285,cs),
(111,313,o),
(107,373,o),
(102,500,c),
(12,500,l),
(49,294,o),
(60,209,o),
(80,0,c)
);
}
);
width = 722;
},
{
anchors = (
{
name = bottom;
pos = (362,0);
},
{
name = top;
pos = (362,480);
}
);
layerId = "60D037D9-62E9-4843-B070-F1594CB0B0D1";
shapes = (
{
closed = 1;
nodes = (
(295,0,l),
(345,389,o),
(337,450,o),
(365,450,cs),
(393,450,o),
(384,389,o),
(435,0,c),
(619,0,l),
(651,227,o),
(658,282,o),
(681,480,c),
(649,480,l),
(626,212,o),
(614,86,o),
(605,53,cs),
(599,32,o),
(591,30,o),
(528,30,cs),
(473,30,o),
(461,32,o),
(455,53,cs),
(445,88,o),
(430,227,o),
(401,480,c),
(329,480,l),
(300,212,o),
(285,88,o),
(275,53,cs),
(269,32,o),
(260,30,o),
(205,30,cs),
(142,30,o),
(134,32,o),
(128,53,cs),
(119,86,o),
(103,212,o),
(80,480,c),
(48,480,l),
(76,282,o),
(78,227,o),
(111,0,c)
);
}
);
width = 729;
}
);
metricLeft = v;
metricRight = v;
unicode = 119;
},
{
color = 3;
glyphname = x;
lastChange = "2023-11-21 16:47:45 +0000";
layers = (
{
background = {
shapes = (
{
closed = 1;
nodes = (
(446,130,ls),
(520,130,o),
(530,138,o),
(553,239,cs),
(613,500,l),
(531,500,l),
(518,445,ls),
(508,405,o),
(502,404,o),
(382,404,cs),
(284,404,ls),
(164,404,o),
(158,405,o),
(148,445,cs),
(135,500,l),
(53,500,l),
(113,239,ls),
(136,138,o),
(146,130,o),
(220,130,cs)
);
},
{
closed = 1;
nodes = (
(412,87,ls),
(473,87,o),
(478,85,o),
(494,59,cs),
(531,0,l),
(613,0,l),
(553,99,ls),
(530,137,o),
(520,140,o),
(446,140,cs),
(220,140,ls),
(146,140,o),
(136,137,o),
(113,99,cs),
(53,0,l),
(135,0,l),
(172,59,ls),
(188,85,o),
(193,87,o),
(254,87,cs)
);
}
);
};
layerId = m01;
shapes = (
{
closed = 1;
nodes = (
(189,0,l),
(219,90,o),
(228,110,o),
(245,127,cs),
(260,142,o),
(270,144,o),
(322,144,cs),
(366,144,o),
(382,142,o),
(395,129,cs),
(413,111,o),
(431,73,o),
(455,0,c),
(553,0,l),
(484,140,o),
(455,199,o),
(443,228,cs),
(436,245,o),
(434,250,o),
(434,259,cs),
(434,273,o),
(435,276,o),
(442,292,cs),
(453,318,o),
(479,370,o),
(545,500,c),
(338,500,l),
(313,413,o),
(300,383,o),
(284,369,cs),
(275,361,o),
(263,359,o),
(225,359,cs),
(195,359,o),
(178,363,o),
(170,373,cs),
(150,399,o),
(137,430,o),
(117,500,c),
(24,500,l),
(95,363,o),
(116,319,o),
(128,291,cs),
(134,277,o),
(136,269,o),
(136,259,cs),
(136,248,o),
(136,246,o),
(127,226,cs),
(103,174,o),
(55,78,o),
(16,0,c)
);
}
);
width = 569;
},
{
layerId = "60D037D9-62E9-4843-B070-F1594CB0B0D1";
shapes = (
{
closed = 1;
nodes = (
(74,0,l),
(116,108,o),
(155,194,o),
(174,216,cs),
(192,237,o),
(198,239,o),
(250,239,cs),
(305,239,o),
(311,237,o),
(326,215,cs),
(335,202,o),
(363,144,o),
(432,0,c),
(472,0,l),
(418,94,o),
(386,150,o),
(345,229,cs),
(337,245,o),
(334,252,o),
(334,259,cs),
(334,267,o),
(337,274,o),
(344,286,cs),
(360,314,o),
(400,376,o),
(468,480,c),
(428,480,l),
(369,372,o),
(344,328,o),
(324,295,cs),
(311,274,o),
(305,272,o),
(250,272,cs),
(195,272,o),
(189,274,o),
(176,295,cs),
(152,335,o),
(123,386,o),
(71,480,c),
(35,480,l),
(121,346,o),
(144,308,o),
(157,285,cs),
(164,273,o),
(166,267,o),
(166,259,cs),
(166,252,o),
(164,244,o),
(155,226,cs),
(141,198,o),
(114,146,o),
(34,0,c)
);
}
);
width = 506;
}
);
unicode = 120;
},
{
color = 0;
glyphname = y;
lastChange = "2023-11-21 17:04:09 +0000";
layers = (
{
anchors = (
{
name = bottom;
pos = (285,0);
},
{
name = top;
pos = (285,500);
}
);
background = {
shapes = (
{
closed = 1;
nodes = (
(404,-228,o),
(574,-197,o),
(574,61,cs),
(574,265,o),
(566,296,o),
(582,500,c),
(495,500,l),
(496,448,o),
(504,410,o),
(486,410,cs),
(471,410,o),
(446,191,o),
(446,175,cs),
(446,123,o),
(392,106,o),
(278,106,cs),
(164,106,o),
(110,123,o),
(110,175,cs),
(110,205,o),
(128,224,o),
(166,234,c),
(166,501,l),
(71,470,o),
(26,387,o),
(26,247,cs),
(26,59,o),
(106,-16,o),
(266,-16,cs),
(457,-16,o),
(445,90,o),
(478,90,cs),
(490,90,o),
(492,76,o),
(492,58,cs),
(492,-53,o),
(417,-85,o),
(309,-85,cs),
(262,-85,o),
(204,-79,o),
(121,-61,c),
(121,-209,l),
(160,-220,o),
(210,-226,o),
(271,-227,cs)
);
}
);
};
guides = (
{
angle = 256.2054;
locked = 1;
pos = (510,305);
}
);
layerId = m01;
shapes = (
{
closed = 1;
nodes = (
(311,0,ls),
(338,0,o),
(346,-3,o),
(346,-10,cs),
(346,-16,o),
(342,-28,o),
(333,-42,cs),
(312,-74,o),
(262,-85,o),
(197,-85,cs),
(157,-85,o),
(95,-79,o),
(25,-61,c),
(25,-209,l),
(56,-220,o),
(99,-227,o),
(184,-227,cs),
(358,-227,o),
(406,-126,o),
(453,70,cs),
(558,500,l),
(468,500,l),
(432,315,ls),
(425,277,o),
(413,274,o),
(285,274,cs),
(158,274,o),
(146,277,o),
(139,315,cs),
(102,500,l),
(12,500,l),
(107,109,ls),
(128,24,o),
(147,0,o),
(214,0,cs)
);
}
);
width = 570;
},
{
anchors = (
{
name = bottom;
pos = (298,0);
},
{
name = top;
pos = (298,480);
}
);
guides = (
{
locked = 1;
pos = (-118,-207);
}
);
layerId = "60D037D9-62E9-4843-B070-F1594CB0B0D1";
shapes = (
{
closed = 1;
nodes = (
(339,0,ls),
(356,0,o),
(363,-1,o),
(363,-6,cs),
(363,-14,o),
(360,-22,o),
(353,-38,cs),
(323,-106,o),
(274,-168,o),
(181,-168,cs),
(150,-168,o),
(104,-161,o),
(49,-140,c),
(49,-183,l),
(94,-199,o),
(134,-207,o),
(173,-207,cs),
(308,-207,o),
(359,-106,o),
(398,16,cs),
(548,480,l),
(512,480,l),
(380,42,ls),
(376,29,o),
(370,28,o),
(298,28,cs),
(225,28,o),
(219,29,o),
(215,42,cs),
(84,480,l),
(48,480,l),
(196,23,ls),
(203,1,o),
(209,0,o),
(269,0,cs)
);
}
);
width = 596;
}
);
metricLeft = v;
metricRight = v;
unicode = 121;
},
{
color = 0;
glyphname = z;
lastChange = "2023-11-17 19:47:49 +0000";
layers = (
{
anchors = (
{
name = bottom;
pos = (247,0);
},
{
name = center;
pos = (247,250);
},
{
name = top;
pos = (247,500);
}
);
layerId = m01;
shapes = (
{
closed = 1;
nodes = (
(464,0,l),
(464,157,l),
(369,149,o),
(326,144,o),
(247,144,cs),
(215,144,o),
(212,145,o),
(212,153,cs),
(212,162,o),
(214,164,o),
(239,177,cs),
(279,199,o),
(360,227,o),
(464,265,c),
(464,500,l),
(42,500,l),
(42,318,l),
(85,318,o),
(249,322,o),
(292,319,cs),
(328,316,o),
(331,314,o),
(331,296,cs),
(331,286,o),
(329,284,o),
(312,272,cs),
(281,251,o),
(205,219,o),
(42,154,c),
(42,0,l)
);
}
);
width = 484;
},
{
anchors = (
{
name = bottom;
pos = (229,0);
},
{
name = center;
pos = (229,240);
},
{
name = top;
pos = (229,480);
}
);
layerId = "60D037D9-62E9-4843-B070-F1594CB0B0D1";
shapes = (
{
closed = 1;
nodes = (
(418,0,l),
(418,35,l),
(311,29,o),
(237,27,o),
(151,26,cs),
(82,25,o),
(76,26,o),
(76,41,cs),
(76,54,o),
(75,59,o),
(87,71,cs),
(213,191,o),
(249,232,o),
(418,388,c),
(418,480,l),
(52,480,l),
(52,443,l),
(111,444,o),
(229,446,o),
(289,447,cs),
(393,449,o),
(396,449,o),
(396,429,cs),
(396,416,o),
(396,408,o),
(386,398,cs),
(352,361,o),
(130,153,o),
(52,77,c),
(52,0,l)
);
}
);
width = 470;
}
);
unicode = 122;
},
{
color = 8;
glyphname = m.alt;
lastChange = "2023-11-17 17:56:35 +0000";
layers = (
{
anchors = (
{
name = bottom;
pos = (472,0);
},
{
name = top;
pos = (472,500);
}
);
background = {
shapes = (
{
closed = 1;
nodes = (
(424,0,l),
(479,0,l),
(478,255,l),
(429,196,l)
);
},
{
closed = 1;
nodes = (
(20,0,l),
(100,0,l),
(95,193,l),
(96,500,l),
(20,500,l)
);
},
{
closed = 1;
nodes = (
(95,167,l),
(95,193,ls),
(95,220,o),
(110,228,o),
(129,230,cs),
(180,235,o),
(351,235,o),
(395,230,cs),
(414,228,o),
(429,220,o),
(429,193,c),
(471,116,l),
(481,208,o),
(481,301,o),
(471,393,cs),
(464,458,o),
(430,508,o),
(333,508,cs),
(332,508,l),
(230,508,ls),
(133,508,o),
(99,458,o),
(92,393,cs),
(82,301,o),
(82,208,o),
(92,116,c)
);
},
{
closed = 1;
nodes = (
(455,255,l),
(454,0,l),
(509,0,l),
(504,196,l)
);
},
{
closed = 1;
nodes = (
(837,500,l),
(838,193,l),
(833,0,l),
(913,0,l),
(913,500,l)
);
},
{
closed = 1;
nodes = (
(851,208,o),
(851,301,o),
(841,393,cs),
(834,458,o),
(800,508,o),
(703,508,cs),
(601,508,l),
(600,508,ls),
(503,508,o),
(469,458,o),
(462,393,cs),
(452,301,o),
(452,208,o),
(462,116,c),
(504,193,l),
(504,220,o),
(519,228,o),
(538,230,cs),
(582,235,o),
(753,235,o),
(804,230,cs),
(823,228,o),
(838,220,o),
(838,193,cs),
(838,167,l),
(841,116,l)
);
}
);
};
layerId = m01;
shapes = (
{
closed = 1;
nodes = (
(100,0,l),
(95,193,ls),
(95,250,o),
(212,234,o),
(263,234,cs),
(313,234,o),
(427,249,o),
(429,195,c),
(424,0,l),
(509,0,l),
(504,195,l),
(506,250,o),
(623,234,o),
(672,234,cs),
(724,234,o),
(838,249,o),
(838,193,cs),
(833,0,l),
(913,0,l),
(913,500,l),
(837,500,l),
(837,416,l),
(825,469,o),
(788,508,o),
(652,508,cs),
(516,508,o),
(480,471,o),
(467,419,c),
(453,471,o),
(417,508,o),
(282,508,cs),
(145,508,o),
(108,469,o),
(96,416,c),
(96,500,l),
(20,500,l),
(20,0,l)
);
}
);
width = 943;
},
{
anchors = (
{
name = bottom;
pos = (452,0);
},
{
name = top;
pos = (452,480);
}
);
layerId = "60D037D9-62E9-4843-B070-F1594CB0B0D1";
shapes = (
{
closed = 1;
nodes = (
(71,0,l),
(67,230,ls),
(70,415,o),
(56,466,o),
(248,466,cs),
(453,471,o),
(434,388,o),
(434,196,cs),
(429,0,l),
(454,0,l),
(449,196,ls),
(449,390,o),
(433,471,o),
(632,466,cs),
(823,466,o),
(813,421,o),
(816,230,cs),
(812,0,l),
(833,0,l),
(833,500,l),
(815,500,l),
(815,436,l),
(799,479,o),
(772,508,o),
(634,508,cs),
(511,508,o),
(472,500,o),
(445,392,c),
(428,497,o),
(364,508,o),
(250,508,cs),
(111,508,o),
(84,479,o),
(68,436,c),
(68,500,l),
(50,500,l),
(50,0,l)
);
}
);
width = 903;
}
);
},
{
color = 8;
glyphname = n.alt;
lastChange = "2023-11-17 17:56:35 +0000";
layers = (
{
layerId = "60D037D9-62E9-4843-B070-F1594CB0B0D1";
shapes = (
{
closed = 1;
nodes = (
(105,0,l),
(100,193,ls),
(100,220,o),
(115,228,o),
(134,230,cs),
(185,235,o),
(391,235,o),
(435,230,cs),
(454,228,o),
(468,220,o),
(469,195,c),
(464,0,l),
(544,0,l),
(543,223,ls),
(544,280,o),
(542,337,o),
(536,393,cs),
(529,458,o),
(495,508,o),
(398,508,cs),
(235,508,ls),
(150,508,o),
(113,469,o),
(101,416,c),
(101,500,l),
(25,500,l),
(25,0,l)
);
}
);
width = 600;
},
{
layerId = m01;
shapes = (
{
closed = 1;
nodes = (
(105,0,l),
(100,193,ls),
(100,220,o),
(115,228,o),
(134,230,cs),
(185,235,o),
(391,235,o),
(435,230,cs),
(454,228,o),
(468,220,o),
(469,195,c),
(464,0,l),
(544,0,l),
(543,223,ls),
(544,280,o),
(542,337,o),
(536,393,cs),
(529,458,o),
(495,508,o),
(398,508,cs),
(235,508,ls),
(150,508,o),
(113,469,o),
(101,416,c),
(101,500,l),
(25,500,l),
(25,0,l)
);
}
);
width = 600;
}
);
},
{
color = 2;
glyphname = e.001;
layers = (
{
background = {
shapes = (
{
closed = 1;
nodes = (
(409,-15,o),
(461,-10,o),
(504,2,c),
(504,150,l),
(435,135,o),
(382,126,o),
(301,126,cs),
(238,126,o),
(161,132,o),
(133,191,c),
(532,191,l),
(532,290,o),
(530,360,o),
(502,411,cs),
(462,483,o),
(397,511,o),
(315,516,cs),
(165,525,o),
(45,458,o),
(37,272,cs),
(28,74,o),
(140,-20,o),
(354,-16,cs)
);
},
{
closed = 1;
nodes = (
(188,250,o),
(150,258,o),
(150,280,cs),
(150,302,o),
(183,310,o),
(287,310,cs),
(400,310,o),
(442,302,o),
(442,280,cs),
(442,258,o),
(403,250,o),
(296,250,cs)
);
}
);
};
backgroundImage = {
imagePath = "../../../../Downloads/Images/e-ExtraBold.tif";
locked = 1;
pos = (-969,-3564);
scale = (1.4452,1.4452);
};
layerId = m01;
shapes = (
{
closed = 1;
nodes = (
(415,-15,o),
(465,-9,o),
(504,2,c),
(504,150,l),
(421,132,o),
(370,126,o),
(301,126,cs),
(207,126,o),
(154,147,o),
(133,191,c),
(532,191,l),
(532,310,o),
(523,371,o),
(499,415,cs),
(465,477,o),
(415,516,o),
(274,516,cs),
(155,516,o),
(44,455,o),
(37,272,cs),
(28,78,o),
(136,-20,o),
(354,-16,cs)
);
},
{
closed = 1;
nodes = (
(226,254,o),
(213,254,o),
(181,257,cs),
(147,260,o),
(140,271,o),
(140,287,cs),
(140,333,o),
(152,337,o),
(290,337,cs),
(428,337,o),
(440,333,o),
(440,287,cs),
(440,271,o),
(433,260,o),
(398,257,cs),
(366,254,o),
(354,254,o),
(290,254,cs)
);
}
);
width = 547;
},
{
guides = (
{
angle = 90;
pos = (293,259);
}
);
layerId = "60D037D9-62E9-4843-B070-F1594CB0B0D1";
shapes = (
{
closed = 1;
nodes = (
(386,-16,o),
(423,-10,o),
(474,6,c),
(474,41,l),
(413,25,o),
(382,21,o),
(328,21,cs),
(178,21,o),
(106,75,o),
(86,201,c),
(502,201,l),
(502,294,o),
(492,352,o),
(469,395,cs),
(433,459,o),
(365,496,o),
(283,496,cs),
(134,496,o),
(64,390,o),
(62,247,cs),
(60,79,o),
(153,-16,o),
(317,-16,cs)
);
},
{
closed = 1;
nodes = (
(164,229,o),
(97,232,o),
(88,238,cs),
(84,240,o),
(82,249,o),
(84,274,cs),
(92,387,o),
(154,459,o),
(283,459,cs),
(407,459,o),
(474,393,o),
(480,274,cs),
(481,255,o),
(478,241,o),
(475,238,cs),
(469,233,o),
(380,229,o),
(283,229,cs)
);
}
);
width = 564;
}
);
metricLeft = o;
},
{
color = 8;
glyphname = e.ss01;
lastChange = "2023-11-17 17:56:35 +0000";
layers = (
{
layerId = "60D037D9-62E9-4843-B070-F1594CB0B0D1";
shapes = (
{
closed = 1;
nodes = (
(379,-16,o),
(430,-9,o),
(476,12,c),
(477,118,l),
(441,100,o),
(367,98,o),
(326,98,cs),
(217,98,o),
(167,114,o),
(167,133,cs),
(167,148,o),
(181,158,o),
(214,158,cs),
(454,158,l),
(454,212,l),
(199,212,ls),
(171,212,o),
(151,223,o),
(151,239,cs),
(151,273,o),
(230,285,o),
(326,285,cs),
(370,285,o),
(438,285,o),
(477,265,c),
(477,486,l),
(432,509,o),
(376,516,o),
(326,516,cs),
(145,516,o),
(62,431,o),
(62,246,cs),
(62,66,o),
(145,-16,o),
(326,-16,cs)
);
}
);
width = 626;
},
{
background = {
shapes = (
{
closed = 1;
nodes = (
(412,-12,o),
(453,-6,o),
(503,0,c),
(503,150,l),
(491,134,o),
(387,108,o),
(299,108,cs),
(234,108,o),
(174,122,o),
(143,147,cs),
(132,156,o),
(126,165,o),
(126,172,cs),
(126,176,o),
(128,179,o),
(133,179,cs),
(143,179,o),
(160,168,o),
(169,164,cs),
(202,149,o),
(246,143,o),
(301,143,cs),
(390,143,o),
(453,159,o),
(491,192,cs),
(524,220,o),
(540,262,o),
(540,318,cs),
(540,448,o),
(456,516,o),
(292,516,cs),
(115,516,o),
(36,437,o),
(36,262,cs),
(36,149,o),
(69,49,o),
(180,8,cs),
(231,-11,o),
(300,-16,o),
(353,-14,cs)
);
},
{
closed = 1;
nodes = (
(174,197,o),
(121,210,o),
(121,239,cs),
(121,269,o),
(175,279,o),
(286,279,cs),
(413,279,o),
(469,266,o),
(469,238,cs),
(469,210,o),
(416,197,o),
(295,197,cs)
);
}
);
};
layerId = m01;
shapes = (
{
closed = 1;
nodes = (
(360,-16,o),
(418,-9,o),
(470,12,c),
(471,118,l),
(430,100,o),
(346,98,o),
(300,98,cs),
(191,98,o),
(141,114,o),
(141,133,cs),
(141,148,o),
(155,158,o),
(188,158,cs),
(428,158,l),
(428,212,l),
(173,212,ls),
(145,212,o),
(125,223,o),
(125,239,cs),
(125,258,o),
(157,265,o),
(300,265,cs),
(344,265,o),
(433,263,o),
(471,245,c),
(471,486,l),
(421,509,o),
(357,516,o),
(300,516,cs),
(119,516,o),
(36,431,o),
(36,246,cs),
(36,66,o),
(119,-16,o),
(300,-16,cs)
);
}
);
width = 501;
}
);
metricLeft = o;
},
{
color = 3;
glyphname = zero;
lastChange = "2023-11-20 13:45:00 +0000";
layers = (
{
layerId = m01;
shapes = (
{
closed = 1;
nodes = (
(566,-8,o),
(652,93,o),
(652,348,cs),
(652,606,o),
(565,710,o),
(347,710,cs),
(129,710,o),
(42,606,o),
(42,348,cs),
(42,93,o),
(128,-8,o),
(347,-8,cs)
);
},
{
closed = 1;
nodes = (
(146,259,o),
(117,270,o),
(117,343,cs),
(117,404,o),
(146,413,o),
(347,413,cs),
(548,413,o),
(577,404,o),
(577,343,cs),
(577,270,o),
(548,259,o),
(347,259,cs)
);
}
);
width = 694;
},
{
layerId = "60D037D9-62E9-4843-B070-F1594CB0B0D1";
shapes = (
{
closed = 1;
nodes = (
(566,-8,o),
(652,93,o),
(652,348,cs),
(652,606,o),
(565,710,o),
(347,710,cs),
(129,710,o),
(42,606,o),
(42,348,cs),
(42,93,o),
(128,-8,o),
(347,-8,cs)
);
},
{
closed = 1;
nodes = (
(181,196,o),
(117,220,o),
(117,280,cs),
(117,334,o),
(168,350,o),
(347,350,cs),
(526,350,o),
(577,334,o),
(577,280,cs),
(577,220,o),
(513,196,o),
(347,196,cs)
);
}
);
width = 694;
}
);
unicode = 48;
},
{
color = 0;
glyphname = one;
lastChange = "2023-11-17 20:33:00 +0000";
layers = (
{
layerId = m01;
shapes = (
{
closed = 1;
nodes = (
(507,0,l),
(507,106,l),
(380,106,l),
(380,700,l),
(248,685,o),
(165,681,o),
(48,686,c),
(48,436,l),
(119,443,o),
(168,446,o),
(210,446,c),
(210,106,l),
(49,106,l),
(49,0,l)
);
}
);
width = 555;
},
{
layerId = "60D037D9-62E9-4843-B070-F1594CB0B0D1";
shapes = (
{
closed = 1;
nodes = (
(507,0,l),
(507,106,l),
(380,106,l),
(380,700,l),
(248,700,o),
(209,706,o),
(48,686,c),
(48,436,l),
(119,443,o),
(168,446,o),
(210,446,c),
(210,106,l),
(49,106,l),
(49,0,l)
);
}
);
width = 600;
}
);
unicode = 49;
},
{
color = 3;
glyphname = two;
lastChange = "2023-11-20 13:49:21 +0000";
layers = (
{
layerId = m01;
shapes = (
{
closed = 1;
nodes = (
(541,0,l),
(541,202,l),
(438,198,o),
(414,198,o),
(312,198,cs),
(248,198,o),
(155,199,o),
(155,228,cs),
(155,269,o),
(249,277,o),
(331,297,cs),
(429,321,o),
(552,354,o),
(552,482,cs),
(552,619,o),
(447,707,o),
(262,707,cs),
(222,707,o),
(163,703,o),
(70,693,c),
(70,443,l),
(139,452,o),
(229,457,o),
(284,455,cs),
(361,452,o),
(374,442,o),
(374,418,cs),
(374,387,o),
(356,379,o),
(230,346,cs),
(111,315,o),
(42,278,o),
(42,158,cs),
(42,0,l)
);
}
);
width = 594;
},
{
layerId = "60D037D9-62E9-4843-B070-F1594CB0B0D1";
shapes = (
{
closed = 1;
nodes = (
(541,0,l),
(541,202,l),
(438,198,o),
(414,198,o),
(312,198,cs),
(248,198,o),
(155,199,o),
(155,228,cs),
(155,269,o),
(249,277,o),
(331,297,cs),
(429,321,o),
(552,354,o),
(552,482,cs),
(552,619,o),
(447,707,o),
(262,707,cs),
(222,707,o),
(163,703,o),
(70,693,c),
(70,443,l),
(168,451,o),
(229,454,o),
(284,452,cs),
(350,449,o),
(374,439,o),
(374,415,cs),
(374,377,o),
(287,363,o),
(230,346,cs),
(110,311,o),
(42,278,o),
(42,158,cs),
(42,0,l)
);
}
);
width = 594;
}
);
unicode = 50;
},
{
color = 3;
glyphname = three;
lastChange = "2023-11-17 20:33:09 +0000";
layers = (
{
layerId = m01;
shapes = (
{
closed = 1;
nodes = (
(395,0,ls),
(568,0,o),
(593,91,o),
(593,165,cs),
(593,224,o),
(573,244,o),
(553,264,cs),
(520,296,o),
(520,308,o),
(520,321,cs),
(520,335,o),
(520,347,o),
(553,379,cs),
(589,413,o),
(593,449,o),
(593,493,cs),
(593,643,o),
(520,700,o),
(362,700,c),
(62,700,l),
(67,439,l),
(74,441,o),
(191,442,o),
(342,442,cs),
(405,442,o),
(444,439,o),
(467,431,cs),
(486,425,o),
(495,414,o),
(495,398,cs),
(495,382,o),
(486,372,o),
(466,366,cs),
(445,360,o),
(414,357,o),
(362,357,cs),
(306,357,o),
(96,360,o),
(74,361,c),
(74,282,l),
(90,283,o),
(283,286,o),
(334,286,cs),
(395,286,o),
(441,281,o),
(471,272,cs),
(493,265,o),
(503,255,o),
(503,238,cs),
(503,220,o),
(492,209,o),
(469,202,cs),
(441,195,o),
(400,192,o),
(319,192,cs),
(201,192,o),
(77,194,o),
(67,197,c),
(62,0,l)
);
}
);
width = 633;
},
{
layerId = "60D037D9-62E9-4843-B070-F1594CB0B0D1";
shapes = (
{
closed = 1;
nodes = (
(395,0,ls),
(568,0,o),
(593,91,o),
(593,165,cs),
(593,224,o),
(573,244,o),
(553,264,cs),
(520,296,o),
(520,308,o),
(520,321,cs),
(520,335,o),
(520,347,o),
(553,379,cs),
(589,413,o),
(593,449,o),
(593,493,cs),
(593,643,o),
(520,700,o),
(362,700,c),
(62,700,l),
(67,439,l),
(74,441,o),
(191,442,o),
(342,442,cs),
(405,442,o),
(444,439,o),
(467,431,cs),
(486,425,o),
(495,414,o),
(495,398,cs),
(495,382,o),
(486,372,o),
(466,366,cs),
(445,360,o),
(414,357,o),
(362,357,cs),
(306,357,o),
(96,360,o),
(74,361,c),
(74,282,l),
(90,283,o),
(283,286,o),
(334,286,cs),
(395,286,o),
(441,281,o),
(471,272,cs),
(493,265,o),
(503,255,o),
(503,238,cs),
(503,220,o),
(492,209,o),
(469,202,cs),
(441,195,o),
(400,192,o),
(319,192,cs),
(201,192,o),
(77,194,o),
(67,197,c),
(62,0,l)
);
}
);
width = 600;
}
);
unicode = 51;
},
{
color = 3;
glyphname = five;
lastChange = "2023-11-17 20:33:09 +0000";
layers = (
{
layerId = m01;
shapes = (
{
closed = 1;
nodes = (
(455,-7,o),
(560,49,o),
(560,160,cs),
(560,288,o),
(437,321,o),
(339,345,cs),
(257,365,o),
(163,373,o),
(163,414,cs),
(163,443,o),
(256,444,o),
(320,444,cs),
(422,444,o),
(446,444,o),
(549,440,c),
(549,700,l),
(50,700,l),
(50,341,l),
(118,332,o),
(193,317,o),
(238,308,cs),
(301,295,o),
(382,265,o),
(382,227,cs),
(382,203,o),
(358,193,o),
(292,190,cs),
(237,188,o),
(149,191,o),
(51,199,c),
(51,3,l),
(144,-7,o),
(230,-7,o),
(270,-7,cs)
);
}
);
width = 608;
},
{
layerId = "60D037D9-62E9-4843-B070-F1594CB0B0D1";
shapes = (
{
closed = 1;
nodes = (
(455,-7,o),
(560,49,o),
(560,160,cs),
(560,288,o),
(437,321,o),
(339,345,cs),
(257,365,o),
(163,373,o),
(163,414,cs),
(163,443,o),
(256,444,o),
(320,444,cs),
(422,444,o),
(446,444,o),
(549,440,c),
(549,700,l),
(50,700,l),
(50,341,l),
(118,332,o),
(193,317,o),
(238,308,cs),
(301,295,o),
(382,265,o),
(382,227,cs),
(382,203,o),
(358,193,o),
(292,190,cs),
(237,188,o),
(149,191,o),
(51,199,c),
(51,3,l),
(144,-7,o),
(230,-7,o),
(270,-7,cs)
);
}
);
width = 600;
}
);
unicode = 53;
},
{
color = 3;
glyphname = six;
lastChange = "2023-11-20 13:45:20 +0000";
layers = (
{
layerId = m01;
shapes = (
{
closed = 1;
nodes = (
(531,-15,o),
(618,54,o),
(618,220,cs),
(618,372,o),
(531,433,o),
(340,433,cs),
(185,433,o),
(148,341,o),
(133,356,cs),
(110,379,o),
(226,495,o),
(363,502,cs),
(464,507,o),
(520,488,o),
(575,464,c),
(575,689,l),
(550,697,o),
(505,706,o),
(472,708,cs),
(290,721,o),
(193,648,o),
(133,583,cs),
(51,495,o),
(19,260,o),
(78,119,cs),
(112,28,o),
(197,-15,o),
(340,-15,cs)
);
},
{
closed = 1;
nodes = (
(156,193,o),
(130,201,o),
(130,255,cs),
(130,320,o),
(156,329,o),
(337,329,cs),
(520,329,o),
(546,320,o),
(546,255,cs),
(546,201,o),
(520,193,o),
(337,193,cs)
);
}
);
width = 666;
},
{
layerId = "60D037D9-62E9-4843-B070-F1594CB0B0D1";
shapes = (
{
closed = 1;
nodes = (
(531,-15,o),
(618,54,o),
(618,220,cs),
(618,372,o),
(531,433,o),
(340,433,cs),
(185,433,o),
(148,341,o),
(133,356,cs),
(110,379,o),
(226,495,o),
(363,502,cs),
(464,507,o),
(520,488,o),
(575,464,c),
(575,689,l),
(550,697,o),
(505,706,o),
(472,708,cs),
(290,721,o),
(193,648,o),
(133,583,cs),
(51,495,o),
(19,260,o),
(78,119,cs),
(112,28,o),
(197,-15,o),
(340,-15,cs)
);
},
{
closed = 1;
nodes = (
(176,193,o),
(130,207,o),
(130,255,cs),
(130,308,o),
(187,329,o),
(337,329,cs),
(488,329,o),
(546,308,o),
(546,255,cs),
(546,207,o),
(499,193,o),
(337,193,cs)
);
}
);
width = 666;
}
);
unicode = 54;
},
{
color = 3;
glyphname = nine;
lastChange = "2023-11-20 13:45:34 +0000";
layers = (
{
layerId = m01;
shapes = (
{
closed = 1;
nodes = (
(368,-26,o),
(465,47,o),
(525,112,cs),
(607,200,o),
(639,435,o),
(580,576,cs),
(546,667,o),
(461,710,o),
(318,710,cs),
(127,710,o),
(40,608,o),
(40,442,cs),
(40,279,o),
(127,230,o),
(318,230,cs),
(473,230,o),
(510,322,o),
(525,307,cs),
(548,284,o),
(432,168,o),
(295,161,cs),
(194,156,o),
(138,175,o),
(83,199,c),
(83,6,l),
(108,-2,o),
(153,-11,o),
(186,-13,cs)
);
},
{
closed = 1;
nodes = (
(138,337,o),
(112,346,o),
(112,411,cs),
(112,465,o),
(138,473,o),
(321,473,cs),
(502,473,o),
(528,465,o),
(528,411,cs),
(528,346,o),
(502,337,o),
(321,337,cs)
);
}
);
width = 640;
},
{
layerId = "60D037D9-62E9-4843-B070-F1594CB0B0D1";
shapes = (
{
closed = 1;
nodes = (
(368,-26,o),
(465,47,o),
(525,112,cs),
(607,200,o),
(639,435,o),
(580,576,cs),
(546,667,o),
(461,710,o),
(318,710,cs),
(127,710,o),
(40,608,o),
(40,442,cs),
(40,279,o),
(127,230,o),
(318,230,cs),
(473,230,o),
(510,322,o),
(525,307,cs),
(548,284,o),
(432,168,o),
(295,161,cs),
(194,156,o),
(138,175,o),
(83,199,c),
(83,6,l),
(108,-2,o),
(153,-11,o),
(186,-13,cs)
);
},
{
closed = 1;
nodes = (
(170,337,o),
(112,358,o),
(112,411,cs),
(112,459,o),
(159,473,o),
(321,473,cs),
(482,473,o),
(528,459,o),
(528,411,cs),
(528,358,o),
(471,337,o),
(321,337,cs)
);
}
);
width = 640;
}
);
unicode = 57;
},
{
color = 3;
glyphname = five.001;
layers = (
{
layerId = m01;
shapes = (
{
closed = 1;
nodes = (
(455,-7,o),
(560,49,o),
(560,160,cs),
(560,288,o),
(437,321,o),
(339,345,cs),
(257,365,o),
(163,373,o),
(163,414,cs),
(163,443,o),
(256,444,o),
(320,444,cs),
(422,444,o),
(446,444,o),
(549,440,c),
(549,700,l),
(50,700,l),
(50,341,l),
(118,332,o),
(193,317,o),
(238,308,cs),
(301,295,o),
(382,265,o),
(382,227,cs),
(382,203,o),
(358,193,o),
(292,190,cs),
(237,188,o),
(149,191,o),
(51,199,c),
(51,3,l),
(144,-7,o),
(230,-7,o),
(270,-7,cs)
);
}
);
width = 608;
},
{
layerId = "60D037D9-62E9-4843-B070-F1594CB0B0D1";
shapes = (
{
closed = 1;
nodes = (
(455,-7,o),
(560,49,o),
(560,160,cs),
(560,288,o),
(437,321,o),
(339,345,cs),
(257,365,o),
(163,373,o),
(163,414,cs),
(163,443,o),
(256,444,o),
(320,444,cs),
(422,444,o),
(446,444,o),
(549,440,c),
(549,700,l),
(50,700,l),
(50,341,l),
(118,332,o),
(193,317,o),
(238,308,cs),
(301,295,o),
(382,265,o),
(382,227,cs),
(382,203,o),
(358,193,o),
(292,190,cs),
(237,188,o),
(149,191,o),
(51,199,c),
(51,3,l),
(144,-7,o),
(230,-7,o),
(270,-7,cs)
);
}
);
width = 600;
}
);
},
{
color = 1;
glyphname = period;
lastChange = "2023-11-20 12:42:59 +0000";
layers = (
{
layerId = m01;
shapes = (
{
closed = 1;
nodes = (
(260,-14,o),
(298,14,o),
(298,68,cs),
(298,115,o),
(260,150,o),
(174,150,cs),
(88,150,o),
(50,120,o),
(50,68,cs),
(50,19,o),
(84,-14,o),
(174,-14,cs)
);
}
);
width = 332;
},
{
layerId = "60D037D9-62E9-4843-B070-F1594CB0B0D1";
shapes = (
{
closed = 1;
nodes = (
(174,-16,o),
(189,1,o),
(189,27,cs),
(189,59,o),
(171,74,o),
(134,74,cs),
(96,74,o),
(80,59,o),
(80,27,cs),
(80,-3,o),
(96,-16,o),
(134,-16,cs)
);
}
);
width = 251;
}
);
unicode = 46;
},
{
color = 1;
glyphname = comma;
lastChange = "2023-11-20 14:23:03 +0000";
layers = (
{
layerId = m01;
shapes = (
{
closed = 1;
nodes = (
(228,-113,o),
(295,-34,o),
(306,26,cs),
(311,51,o),
(309,83,o),
(292,107,c),
(111,67,l),
(111,67,o),
(151,49,o),
(163,30,cs),
(201,-32,o),
(149,-76,o),
(116,-86,c),
(116,-138,l)
);
},
{
closed = 1;
nodes = (
(265,-16,o),
(304,13,o),
(304,67,cs),
(304,114,o),
(265,149,o),
(179,149,cs),
(89,149,o),
(50,119,o),
(50,67,cs),
(50,18,o),
(89,-16,o),
(179,-16,cs)
);
}
);
width = 384;
},
{
layerId = "60D037D9-62E9-4843-B070-F1594CB0B0D1";
shapes = (
{
closed = 1;
nodes = (
(128,-94,o),
(176,-69,o),
(188,-13,cs),
(191,1,o),
(192,29,o),
(187,42,c),
(141,37,l),
(146,18,o),
(151,15,o),
(154,-2,cs),
(161,-47,o),
(131,-74,o),
(105,-82,c),
(103,-93,l)
);
},
{
closed = 1;
nodes = (
(174,-16,o),
(189,1,o),
(189,27,cs),
(189,59,o),
(171,74,o),
(134,74,cs),
(96,74,o),
(80,59,o),
(80,27,cs),
(80,-3,o),
(96,-16,o),
(134,-16,cs)
);
}
);
width = 252;
}
);
metricLeft = period;
unicode = 44;
},
{
color = 1;
glyphname = ellipsis;
lastChange = "2023-11-21 17:48:07 +0000";
layers = (
{
background = {
anchors = (
{
name = "#entry";
pos = (-4808,0);
},
{
name = "#exit";
pos = (-4599,0);
}
);
shapes = (
{
closed = 1;
nodes = (
(-4634,-16,o),
(-4619,1,o),
(-4619,27,cs),
(-4619,59,o),
(-4637,74,o),
(-4674,74,cs),
(-4712,74,o),
(-4728,59,o),
(-4728,27,cs),
(-4728,-3,o),
(-4712,-16,o),
(-4674,-16,cs)
);
},
{
closed = 1;
nodes = (
(-4634,-16,o),
(-4619,1,o),
(-4619,27,cs),
(-4619,59,o),
(-4637,74,o),
(-4674,74,cs),
(-4712,74,o),
(-4728,59,o),
(-4728,27,cs),
(-4728,-3,o),
(-4712,-16,o),
(-4674,-16,cs)
);
},
{
closed = 1;
nodes = (
(-4634,-16,o),
(-4619,1,o),
(-4619,27,cs),
(-4619,59,o),
(-4637,74,o),
(-4674,74,cs),
(-4712,74,o),
(-4728,59,o),
(-4728,27,cs),
(-4728,-3,o),
(-4712,-16,o),
(-4674,-16,cs)
);
}
);
};
layerId = "60D037D9-62E9-4843-B070-F1594CB0B0D1";
shapes = (
{
alignment = 1;
pos = (20,0);
ref = period;
},
{
alignment = 1;
pos = (271,0);
ref = period;
},
{
alignment = 1;
pos = (522,0);
ref = period;
}
);
width = 793;
},
{
background = {
anchors = (
{
name = "#entry";
pos = (-2816,0);
},
{
name = "#exit";
pos = (-2507,0);
}
);
shapes = (
{
closed = 1;
nodes = (
(-2556,-14,o),
(-2518,15,o),
(-2518,69,cs),
(-2518,116,o),
(-2556,151,o),
(-2642,151,cs),
(-2732,151,o),
(-2771,121,o),
(-2771,69,cs),
(-2771,20,o),
(-2732,-14,o),
(-2642,-14,cs)
);
},
{
closed = 1;
nodes = (
(-2556,-14,o),
(-2518,15,o),
(-2518,69,cs),
(-2518,116,o),
(-2556,151,o),
(-2642,151,cs),
(-2732,151,o),
(-2771,121,o),
(-2771,69,cs),
(-2771,20,o),
(-2732,-14,o),
(-2642,-14,cs)
);
},
{
closed = 1;
nodes = (
(-2556,-14,o),
(-2518,15,o),
(-2518,69,cs),
(-2518,116,o),
(-2556,151,o),
(-2642,151,cs),
(-2732,151,o),
(-2771,121,o),
(-2771,69,cs),
(-2771,20,o),
(-2732,-14,o),
(-2642,-14,cs)
);
}
);
};
layerId = m01;
shapes = (
{
alignment = 1;
pos = (20,0);
ref = period;
},
{
alignment = 1;
pos = (352,0);
ref = period;
},
{
alignment = 1;
pos = (684,0);
ref = period;
}
);
width = 1036;
}
);
metricLeft = "=+20";
metricRight = "=+20";
unicode = 8230;
},
{
color = 1;
glyphname = exclam;
lastChange = "2023-11-20 13:02:24 +0000";
layers = (
{
layerId = "60D037D9-62E9-4843-B070-F1594CB0B0D1";
shapes = (
{
closed = 1;
nodes = (
(142,162,l),
(142,382,o),
(146,443,o),
(171,700,c),
(98,700,l),
(117,503,o),
(121,407,o),
(121,162,c)
);
},
{
closed = 1;
nodes = (
(174,-16,o),
(189,1,o),
(189,27,cs),
(189,59,o),
(171,74,o),
(134,74,cs),
(96,74,o),
(80,59,o),
(80,27,cs),
(80,-3,o),
(96,-16,o),
(134,-16,cs)
);
}
);
width = 251;
},
{
layerId = m01;
shapes = (
{
closed = 1;
nodes = (
(193,228,l),
(198,433,o),
(208,526,o),
(224,703,c),
(84,703,l),
(100,526,o),
(108,433,o),
(113,228,c)
);
},
{
pos = (-20,0);
ref = period;
}
);
width = 308;
}
);
unicode = 33;
},
{
color = 1;
glyphname = question;
lastChange = "2023-11-21 16:38:27 +0000";
layers = (
{
layerId = "60D037D9-62E9-4843-B070-F1594CB0B0D1";
shapes = (
{
closed = 1;
nodes = (
(121,158,l),
(123,278,o),
(249,277,o),
(331,297,cs),
(429,321,o),
(552,354,o),
(552,482,cs),
(552,619,o),
(447,707,o),
(262,707,cs),
(222,707,o),
(163,703,o),
(70,693,c),
(70,443,l),
(168,451,o),
(229,454,o),
(284,452,cs),
(350,449,o),
(374,439,o),
(374,415,cs),
(374,377,o),
(287,363,o),
(230,346,cs),
(110,311,o),
(42,278,o),
(42,158,c)
);
}
);
width = 600;
},
{
layerId = m01;
shapes = (
{
closed = 1;
nodes = (
(223,211,l),
(212,277,o),
(300,288,o),
(331,297,cs),
(412,321,o),
(552,354,o),
(552,496,cs),
(552,619,o),
(447,707,o),
(262,707,cs),
(222,707,o),
(163,703,o),
(70,693,c),
(70,443,l),
(157,452,o),
(211,456,o),
(260,456,cs),
(357,456,o),
(374,449,o),
(374,413,cs),
(374,381,o),
(353,362,o),
(298,346,cs),
(178,311,o),
(132,282,o),
(144,211,c)
);
},
{
pos = (7,0);
ref = period;
}
);
width = 572;
}
);
unicode = 63;
},
{
color = 1;
glyphname = bullet;
lastChange = "2023-11-20 14:49:00 +0000";
layers = (
{
layerId = "60D037D9-62E9-4843-B070-F1594CB0B0D1";
width = 600;
},
{
layerId = m01;
shapes = (
{
closed = 1;
nodes = (
(408,249,o),
(456,299,o),
(456,394,cs),
(456,477,o),
(408,539,o),
(300,539,cs),
(192,539,o),
(144,486,o),
(144,394,cs),
(144,307,o),
(187,249,o),
(300,249,cs)
);
}
);
width = 600;
}
);
unicode = 8226;
},
{
color = 1;
glyphname = asterisk;
lastChange = "2023-11-20 14:38:16 +0000";
layers = (
{
layerId = "60D037D9-62E9-4843-B070-F1594CB0B0D1";
width = 600;
},
{
layerId = m01;
shapes = (
{
closed = 1;
nodes = (
(209,486,l),
(290,434,l),
(333,508,l),
(242,543,l),
(333,576,l),
(290,651,l),
(209,598,l),
(219,689,l),
(133,689,l),
(141,598,l),
(60,651,l),
(18,576,l),
(108,543,l),
(18,508,l),
(60,434,l),
(141,486,l),
(133,396,l),
(219,396,l)
);
}
);
width = 353;
}
);
unicode = 42;
},
{
color = 1;
glyphname = numbersign;
lastChange = "2023-11-20 14:51:52 +0000";
layers = (
{
layerId = "60D037D9-62E9-4843-B070-F1594CB0B0D1";
width = 600;
},
{
layerId = m01;
shapes = (
{
closed = 1;
nodes = (
(248,680,l),
(193,680,l),
(77,44,l),
(133,44,l)
);
},
{
closed = 1;
nodes = (
(499,680,l),
(445,680,l),
(329,44,l),
(385,44,l)
);
},
{
closed = 1;
nodes = (
(552,315,l),
(6,315,l),
(6,146,l),
(552,146,l)
);
},
{
closed = 1;
nodes = (
(573,574,l),
(27,574,l),
(27,406,l),
(573,406,l)
);
}
);
width = 600;
}
);
unicode = 35;
},
{
color = 1;
glyphname = slash;
lastChange = "2023-11-20 14:45:40 +0000";
layers = (
{
layerId = "60D037D9-62E9-4843-B070-F1594CB0B0D1";
width = 600;
},
{
layerId = m01;
shapes = (
{
closed = 1;
nodes = (
(149,169,o),
(256,435,o),
(378,700,c),
(276,700,l),
(175,435,o),
(67,169,o),
(-50,-96,c),
(52,-96,l)
);
}
);
width = 388;
}
);
unicode = 47;
},
{
color = 1;
glyphname = hyphen;
lastChange = "2023-11-17 17:57:25 +0000";
layers = (
{
layerId = m01;
shapes = (
{
closed = 1;
nodes = (
(417,232,l),
(417,329,l),
(45,329,l),
(45,232,l)
);
}
);
width = 462;
},
{
layerId = "60D037D9-62E9-4843-B070-F1594CB0B0D1";
shapes = (
{
closed = 1;
nodes = (
(389,260,l),
(389,301,l),
(45,301,l),
(45,260,l)
);
}
);
width = 434;
}
);
unicode = 45;
},
{
color = 1;
glyphname = endash;
lastChange = "2023-11-20 16:12:36 +0000";
layers = (
{
layerId = "60D037D9-62E9-4843-B070-F1594CB0B0D1";
width = 600;
},
{
layerId = m01;
shapes = (
{
closed = 1;
nodes = (
(555,232,l),
(555,329,l),
(45,329,l),
(45,232,l)
);
}
);
width = 600;
}
);
unicode = 8211;
},
{
color = 1;
glyphname = emdash;
lastChange = "2023-11-20 16:13:13 +0000";
layers = (
{
layerId = "60D037D9-62E9-4843-B070-F1594CB0B0D1";
width = 600;
},
{
layerId = m01;
shapes = (
{
closed = 1;
nodes = (
(1068,232,l),
(1068,329,l),
(4,329,l),
(4,232,l)
);
}
);
width = 1076;
}
);
unicode = 8212;
},
{
color = 1;
glyphname = underscore;
lastChange = "2023-11-20 16:13:35 +0000";
layers = (
{
layerId = "60D037D9-62E9-4843-B070-F1594CB0B0D1";
width = 600;
},
{
layerId = m01;
shapes = (
{
closed = 1;
nodes = (
(555,-97,l),
(555,0,l),
(45,0,l),
(45,-97,l)
);
}
);
width = 600;
}
);
unicode = 95;
},
{
color = 1;
glyphname = parenleft;
lastChange = "2023-11-20 14:15:11 +0000";
layers = (
{
layerId = "60D037D9-62E9-4843-B070-F1594CB0B0D1";
width = 600;
},
{
layerId = m01;
shapes = (
{
closed = 1;
nodes = (
(122,14,o),
(122,257,qs),
(122,501,o),
(250,700,q),
(137,700,l),
(82,604,o),
(24,380,o),
(24,258,qs),
(24,135,o),
(83,-89,o),
(137,-185,q),
(250,-185,l)
);
}
);
width = 257;
}
);
unicode = 40;
},
{
color = 1;
glyphname = braceleft;
lastChange = "2023-11-20 13:23:33 +0000";
layers = (
{
layerId = "60D037D9-62E9-4843-B070-F1594CB0B0D1";
width = 600;
},
{
layerId = m01;
shapes = (
{
closed = 1;
nodes = (
(340,-2,l),
(244,-7,l),
(220,-7,o),
(194,5,o),
(183,30,o),
(183,51,q),
(183,177,l),
(183,204,o),
(159,245,o),
(134,253,q),
(159,260,o),
(183,301,o),
(183,328,q),
(183,453,l),
(183,476,o),
(196,502,o),
(223,511,o),
(244,511,q),
(340,506,l),
(340,700,l),
(279,700,l),
(225,700,o),
(153,662,o),
(117,582,o),
(117,519,q),
(117,409,l),
(117,396,o),
(106,379,o),
(88,371,o),
(78,371,q),
(12,371,l),
(15,292,o),
(15,214,o),
(12,135,c),
(78,135,l),
(98,135,o),
(117,115,o),
(117,96,q),
(117,-15,l),
(117,-83,o),
(157,-163,o),
(229,-196,o),
(279,-196,q),
(340,-196,l)
);
}
);
width = 352;
}
);
unicode = 123;
},
{
color = 1;
glyphname = bracketleft;
lastChange = "2023-11-20 16:07:27 +0000";
layers = (
{
layerId = "60D037D9-62E9-4843-B070-F1594CB0B0D1";
width = 600;
},
{
layerId = m01;
shapes = (
{
closed = 1;
nodes = (
(117,40,o),
(117,40,o),
(117,259,cs),
(118,464,o),
(118,464,o),
(263,464,c),
(263,700,l),
(40,700,l),
(48,401,o),
(48,103,o),
(40,-196,c),
(263,-196,l),
(263,40,l)
);
}
);
width = 296;
}
);
unicode = 91;
},
{
color = 0;
glyphname = shortequalmod;
lastChange = "2023-11-21 14:21:31 +0000";
layers = (
{
layerId = "60D037D9-62E9-4843-B070-F1594CB0B0D1";
width = 600;
},
{
layerId = m01;
shapes = (
{
closed = 1;
nodes = (
(175,432,o),
(60,434,q),
(60,345,l),
(175,348,o),
(287,345,q),
(287,434,l)
);
},
{
closed = 1;
nodes = (
(175,310,o),
(60,313,q),
(60,224,l),
(175,226,o),
(287,224,q),
(287,313,l)
);
}
);
width = 337;
}
);
unicode = 42890;
},
{
color = 0;
glyphname = at;
lastChange = "2023-11-21 15:51:27 +0000";
layers = (
{
layerId = "60D037D9-62E9-4843-B070-F1594CB0B0D1";
width = 600;
},
{
layerId = m01;
shapes = (
{
closed = 1;
nodes = (
(476,47,o),
(468,131,o),
(493,131,cs),
(511,131,o),
(506,100,o),
(505,59,c),
(575,59,l),
(572,243,o),
(572,269,o),
(575,452,c),
(506,452,l),
(507,411,o),
(514,382,o),
(499,382,cs),
(477,382,o),
(476,464,o),
(329,464,cs),
(200,464,o),
(139,398,o),
(139,256,cs),
(139,107,o),
(200,47,o),
(329,47,cs)
);
},
{
closed = 1;
nodes = (
(224,143,o),
(208,150,o),
(208,197,cs),
(208,244,o),
(224,251,o),
(337,251,cs),
(450,251,o),
(466,244,o),
(466,197,cs),
(466,150,o),
(450,143,o),
(337,143,cs)
);
},
{
closed = 1;
nodes = (
(499,-13,o),
(623,7,o),
(676,52,cs),
(732,100,o),
(821,233,o),
(744,477,cs),
(690,649,o),
(495,675,o),
(343,666,cs),
(113,653,o),
(26,498,o),
(18,239,cs),
(13,70,o),
(69,-147,o),
(287,-181,cs),
(493,-213,o),
(607,-154,o),
(649,-139,cs),
(649,-139,o),
(620,-32,o),
(612,-1,cs),
(612,-1,o),
(268,-130,o),
(104,65,cs),
(56,123,o),
(39,263,o),
(76,357,cs),
(123,477,o),
(229,525,o),
(352,530,cs),
(450,534,o),
(566,528,o),
(640,477,cs),
(705,431,o),
(728,385,o),
(731,325,cs),
(733,287,o),
(726,236,o),
(701,198,cs),
(660,136,o),
(574,121,o),
(573,209,cs),
(572,272,o),
(512,413,o),
(506,349,cs),
(500,285,o),
(510,113,o),
(505,59,cs)
);
}
);
width = 792;
}
);
unicode = 64;
},
{
color = 0;
glyphname = section;
lastChange = "2023-11-21 08:40:10 +0000";
layers = (
{
layerId = "60D037D9-62E9-4843-B070-F1594CB0B0D1";
width = 600;
},
{
layerId = m01;
shapes = (
{
closed = 1;
nodes = (
(457,154,l),
(497,200,o),
(495,235,o),
(488,259,cs),
(477,298,o),
(428,320,o),
(334,347,cs),
(250,371,o),
(220,381,o),
(220,415,cs),
(220,439,o),
(244,449,o),
(310,452,cs),
(365,454,o),
(426,451,o),
(524,443,c),
(524,693,l),
(431,703,o),
(372,707,o),
(332,707,cs),
(147,707,o),
(42,624,o),
(42,487,cs),
(42,359,o),
(137,333,o),
(233,302,cs),
(372,257,o),
(390,261,o),
(403,238,cs),
(411,224,o),
(403,203,o),
(380,188,c)
);
},
{
closed = 1;
nodes = (
(109,359,l),
(69,313,o),
(71,276,o),
(78,254,cs),
(90,216,o),
(138,193,o),
(232,166,cs),
(316,142,o),
(346,132,o),
(346,98,cs),
(346,74,o),
(322,64,o),
(256,61,cs),
(201,59,o),
(140,62,o),
(42,70,c),
(42,-180,l),
(135,-190,o),
(194,-194,o),
(234,-194,cs),
(419,-194,o),
(524,-111,o),
(524,26,cs),
(524,154,o),
(429,180,o),
(333,211,cs),
(194,256,o),
(176,252,o),
(163,275,cs),
(155,289,o),
(163,310,o),
(186,325,c)
);
}
);
width = 600;
}
);
unicode = 167;
},
{
color = 0;
glyphname = copyright;
lastChange = "2023-11-21 15:56:12 +0000";
layers = (
{
layerId = "60D037D9-62E9-4843-B070-F1594CB0B0D1";
width = 600;
},
{
anchors = (
{
name = bottom;
pos = (482,104);
},
{
name = top;
pos = (482,604);
}
);
layerId = m01;
shapes = (
{
closed = 1;
nodes = (
(612,-12,o),
(746,124,o),
(746,349,cs),
(746,574,o),
(612,710,o),
(390,710,cs),
(167,710,o),
(32,575,o),
(32,352,cs),
(32,125,o),
(167,-12,o),
(390,-12,cs)
);
},
{
closed = 1;
nodes = (
(199,89,o),
(83,187,o),
(83,349,cs),
(83,511,o),
(199,609,o),
(390,609,cs),
(580,609,o),
(695,511,o),
(695,349,cs),
(695,187,o),
(580,89,o),
(390,89,cs)
);
},
{
closed = 1;
nodes = (
(449,153,o),
(488,158,o),
(523,174,c),
(523,254,l),
(496,241,o),
(440,239,o),
(409,239,cs),
(290,239,o),
(272,245,o),
(272,290,cs),
(272,335,o),
(290,342,o),
(409,342,cs),
(443,342,o),
(494,342,o),
(523,327,c),
(523,532,l),
(489,550,o),
(447,555,o),
(409,555,cs),
(272,555,o),
(210,491,o),
(210,351,cs),
(210,215,o),
(272,153,o),
(409,153,cs)
);
}
);
width = 778;
}
);
unicode = 169;
},
{
color = 0;
glyphname = trademark;
lastChange = "2023-11-21 16:00:44 +0000";
layers = (
{
layerId = "60D037D9-62E9-4843-B070-F1594CB0B0D1";
width = 783;
},
{
anchors = (
{
name = bottom;
pos = (1090,0);
},
{
name = top;
pos = (1090,700);
}
);
layerId = m01;
shapes = (
{
closed = 1;
nodes = (
(286,206,l),
(283,289,o),
(281,400,o),
(281,480,cs),
(281,502,o),
(281,511,o),
(299,517,cs),
(312,521,o),
(337,521,o),
(388,519,cs),
(457,517,l),
(457,699,l),
(41,699,l),
(41,517,l),
(110,519,ls),
(162,521,o),
(187,521,o),
(199,517,cs),
(217,511,o),
(217,502,o),
(217,480,cs),
(217,400,o),
(215,289,o),
(212,206,c)
);
},
{
closed = 1;
nodes = (
(606,206,l),
(595,274,o),
(589,333,o),
(589,381,cs),
(589,409,o),
(591,419,o),
(603,429,cs),
(609,436,o),
(619,438,o),
(646,438,cs),
(681,438,o),
(685,437,o),
(698,426,cs),
(716,407,o),
(720,389,o),
(746,206,c),
(819,206,l),
(845,389,o),
(848,407,o),
(868,426,cs),
(881,437,o),
(884,438,o),
(920,438,cs),
(946,438,o),
(956,436,o),
(963,429,cs),
(974,419,o),
(977,409,o),
(977,381,cs),
(977,333,o),
(970,274,o),
(959,206,c),
(1036,206,l),
(1034,288,o),
(1032,370,o),
(1032,453,cs),
(1032,535,o),
(1034,618,o),
(1036,700,c),
(826,700,l),
(813,474,o),
(811,455,o),
(783,455,cs),
(755,455,o),
(752,474,o),
(740,700,c),
(529,700,l),
(532,618,o),
(533,535,o),
(533,453,cs),
(533,370,o),
(532,288,o),
(529,206,c)
);
}
);
width = 1091;
}
);
unicode = 8482;
},
{
color = 0;
glyphname = degree;
lastChange = "2023-11-21 14:08:55 +0000";
layers = (
{
layerId = "60D037D9-62E9-4843-B070-F1594CB0B0D1";
width = 600;
},
{
layerId = m01;
shapes = (
{
closed = 1;
nodes = (
(220,455,o),
(252,492,o),
(252,584,cs),
(252,678,o),
(220,716,o),
(141,716,cs),
(62,716,o),
(30,678,o),
(30,584,cs),
(30,492,o),
(61,455,o),
(141,455,cs)
);
},
{
closed = 1;
nodes = (
(68,552,o),
(57,556,o),
(57,583,cs),
(57,605,o),
(68,608,o),
(141,608,cs),
(214,608,o),
(224,605,o),
(224,583,cs),
(224,556,o),
(214,552,o),
(141,552,cs)
);
}
);
width = 286;
}
);
unicode = 176;
},
{
color = 0;
glyphname = bar;
lastChange = "2023-11-21 14:10:27 +0000";
layers = (
{
layerId = "60D037D9-62E9-4843-B070-F1594CB0B0D1";
width = 600;
},
{
layerId = m01;
shapes = (
{
closed = 1;
nodes = (
(231,-88,l),
(226,208,o),
(226,503,o),
(231,799,c),
(150,799,l),
(155,503,o),
(155,208,o),
(150,-88,c)
);
}
);
width = 381;
}
);
unicode = 124;
},
{
color = 8;
glyphname = brokenbar;
kernLeft = bar;
kernRight = bar;
lastChange = "2023-11-21 14:16:48 +0000";
layers = (
{
layerId = "60D037D9-62E9-4843-B070-F1594CB0B0D1";
width = 50;
},
{
layerId = m01;
shapes = (
{
closed = 1;
nodes = (
(231,431,l),
(229,527,o),
(229,624,o),
(231,720,c),
(150,720,l),
(152,624,o),
(152,527,o),
(150,431,c)
);
},
{
closed = 1;
nodes = (
(231,29,l),
(229,126,o),
(229,222,o),
(231,318,c),
(150,318,l),
(152,222,o),
(152,126,o),
(150,29,c)
);
}
);
width = 381;
}
);
metricLeft = "=bar";
metricRight = "=|";
unicode = 166;
},
{
color = 8;
glyphname = estimated;
kernLeft = estimated;
kernRight = estimated;
lastChange = "2023-11-17 18:23:52 +0000";
layers = (
{
layerId = "60D037D9-62E9-4843-B070-F1594CB0B0D1";
shapes = (
{
closed = 1;
nodes = (
(557,-5,o),
(635,33,o),
(724,131,c),
(654,131,l),
(600,70,o),
(511,22,o),
(416,22,cs),
(274,22,o),
(179,108,o),
(179,143,cs),
(179,311,ls),
(179,328,o),
(185,329,o),
(194,329,cs),
(792,329,l),
(782,557,o),
(638,682,o),
(416,682,cs),
(196,682,o),
(40,544,o),
(40,338,cs),
(40,129,o),
(196,-5,o),
(416,-5,cs)
);
},
{
closed = 1;
nodes = (
(183,350,o),
(179,353,o),
(179,359,cs),
(179,538,ls),
(179,568,o),
(280,658,o),
(415,658,cs),
(522,658,o),
(652,585,o),
(652,531,cs),
(652,366,ls),
(652,354,o),
(650,350,o),
(636,350,cs),
(194,350,ls)
);
}
);
width = 832;
},
{
layerId = m01;
shapes = (
{
closed = 1;
nodes = (
(576,0,o),
(657,39,o),
(749,141,c),
(677,141,l),
(621,78,o),
(529,28,o),
(430,28,cs),
(283,28,o),
(185,117,o),
(185,153,cs),
(185,327,ls),
(185,345,o),
(191,346,o),
(200,346,cs),
(820,346,l),
(809,582,o),
(660,712,o),
(430,712,cs),
(202,712,o),
(40,569,o),
(40,355,cs),
(40,139,o),
(202,0,o),
(430,0,cs)
);
},
{
closed = 1;
nodes = (
(189,368,o),
(185,371,o),
(185,377,cs),
(185,563,ls),
(185,594,o),
(289,687,o),
(429,687,cs),
(540,687,o),
(675,611,o),
(675,556,cs),
(675,385,ls),
(675,372,o),
(673,368,o),
(658,368,cs),
(200,368,ls)
);
}
);
width = 860;
}
);
metricLeft = "=40";
metricRight = "=|";
unicode = 8494;
},
{
color = 0;
glyphname = cent;
lastChange = "2023-11-21 07:06:46 +0000";
layers = (
{
layerId = "60D037D9-62E9-4843-B070-F1594CB0B0D1";
width = 600;
},
{
layerId = m01;
shapes = (
{
ref = c;
},
{
closed = 1;
nodes = (
(346,-88,l),
(341,143,o),
(341,374,o),
(346,605,c),
(265,605,l),
(270,374,o),
(270,143,o),
(265,-88,c)
);
}
);
width = 487;
}
);
unicode = 162;
},
{
color = 8;
glyphname = currency;
kernLeft = currency;
kernRight = currency;
lastChange = "2023-11-21 16:49:02 +0000";
layers = (
{
layerId = "60D037D9-62E9-4843-B070-F1594CB0B0D1";
shapes = (
{
closed = 1;
nodes = (
(372,188,o),
(444,260,o),
(444,350,cs),
(444,440,o),
(372,512,o),
(282,512,cs),
(192,512,o),
(120,440,o),
(120,350,cs),
(120,260,o),
(192,188,o),
(282,188,cs)
);
},
{
closed = 1;
nodes = (
(184,268,o),
(170,274,o),
(170,322,cs),
(170,371,o),
(184,378,o),
(282,378,cs),
(380,378,o),
(394,371,o),
(394,322,cs),
(394,274,o),
(380,268,o),
(282,268,cs)
);
},
{
closed = 1;
nodes = (
(514,538,l),
(474,581,l),
(365,469,l),
(400,435,l)
);
},
{
closed = 1;
nodes = (
(474,120,l),
(514,163,l),
(400,266,l),
(365,232,l)
);
},
{
closed = 1;
nodes = (
(199,469,l),
(90,581,l),
(50,538,l),
(164,435,l)
);
},
{
closed = 1;
nodes = (
(50,163,l),
(90,120,l),
(199,232,l),
(164,266,l)
);
}
);
width = 564;
},
{
layerId = m01;
shapes = (
{
closed = 1;
nodes = (
(372,188,o),
(444,260,o),
(444,350,cs),
(444,440,o),
(372,512,o),
(282,512,cs),
(192,512,o),
(120,440,o),
(120,350,cs),
(120,260,o),
(192,188,o),
(282,188,cs)
);
},
{
closed = 1;
nodes = (
(184,268,o),
(170,274,o),
(170,322,cs),
(170,371,o),
(184,378,o),
(282,378,cs),
(380,378,o),
(394,371,o),
(394,322,cs),
(394,274,o),
(380,268,o),
(282,268,cs)
);
},
{
closed = 1;
nodes = (
(514,538,l),
(474,581,l),
(365,469,l),
(400,435,l)
);
},
{
closed = 1;
nodes = (
(474,120,l),
(514,163,l),
(400,266,l),
(365,232,l)
);
},
{
closed = 1;
nodes = (
(199,469,l),
(90,581,l),
(50,538,l),
(164,435,l)
);
},
{
closed = 1;
nodes = (
(50,163,l),
(90,120,l),
(199,232,l),
(164,266,l)
);
}
);
width = 564;
}
);
metricLeft = "=50";
metricRight = "=|";
unicode = 164;
},
{
color = 0;
glyphname = dollar;
lastChange = "2023-11-21 07:08:33 +0000";
layers = (
{
layerId = "60D037D9-62E9-4843-B070-F1594CB0B0D1";
width = 600;
},
{
layerId = m01;
shapes = (
{
ref = S;
},
{
closed = 1;
nodes = (
(354,-88,l),
(349,208,o),
(349,503,o),
(354,799,c),
(273,799,l),
(278,503,o),
(278,208,o),
(273,-88,c)
);
}
);
width = 566;
}
);
unicode = 36;
},
{
color = 0;
glyphname = euro;
lastChange = "2023-11-21 07:12:19 +0000";
layers = (
{
layerId = "60D037D9-62E9-4843-B070-F1594CB0B0D1";
width = 600;
},
{
layerId = m01;
shapes = (
{
ref = C;
},
{
closed = 1;
nodes = (
(347,263,l),
(210,261,o),
(74,261,o),
(-63,263,c),
(-63,224,l),
(74,226,o),
(210,226,o),
(347,224,c)
);
},
{
closed = 1;
nodes = (
(347,322,l),
(210,320,o),
(74,320,o),
(-63,322,c),
(-63,283,l),
(74,285,o),
(210,285,o),
(347,283,c)
);
}
);
width = 585;
}
);
unicode = 8364;
},
{
color = 0;
glyphname = kip;
lastChange = "2023-11-21 12:10:13 +0000";
layers = (
{
layerId = "60D037D9-62E9-4843-B070-F1594CB0B0D1";
width = 600;
},
{
layerId = m01;
shapes = (
{
ref = K;
},
{
closed = 1;
nodes = (
(610,338,l),
(404,333,o),
(218,333,o),
(12,338,c),
(12,257,l),
(218,262,o),
(404,262,o),
(610,257,c)
);
}
);
width = 697;
}
);
unicode = 8365;
},
{
glyphname = naira;
lastChange = "2023-11-21 11:54:50 +0000";
layers = (
{
layerId = "60D037D9-62E9-4843-B070-F1594CB0B0D1";
width = 600;
},
{
layerId = m01;
shapes = (
{
pos = (72,0);
ref = N;
},
{
closed = 1;
nodes = (
(782,546,l),
(548,541,o),
(269,541,o),
(30,546,c),
(30,457,l),
(269,462,o),
(548,462,o),
(782,457,c)
);
},
{
closed = 1;
nodes = (
(782,269,l),
(548,264,o),
(269,264,o),
(30,269,c),
(30,180,l),
(269,185,o),
(548,185,o),
(782,180,c)
);
}
);
width = 812;
}
);
unicode = 8358;
},
{
color = 0;
glyphname = sterling;
lastChange = "2023-11-21 16:05:44 +0000";
layers = (
{
layerId = "60D037D9-62E9-4843-B070-F1594CB0B0D1";
width = 600;
},
{
layerId = m01;
shapes = (
{
closed = 1;
nodes = (
(16,0,l),
(513,0,l),
(513,199,l),
(140,199,l),
(16,182,l)
);
},
{
closed = 1;
nodes = (
(488,683,l),
(436,697,o),
(187,756,o),
(94,644,cs),
(-13,516,o),
(67,412,o),
(114,348,cs),
(171,270,o),
(87,199,o),
(16,182,cs),
(14,182,o),
(148,118,o),
(193,229,cs),
(226,311,o),
(132,357,o),
(171,414,cs),
(206,465,o),
(357,468,o),
(490,386,c)
);
},
{
closed = 1;
nodes = (
(413,298,l),
(276,296,o),
(140,296,o),
(3,298,c),
(3,259,l),
(140,261,o),
(276,261,o),
(413,259,c)
);
},
{
closed = 1;
nodes = (
(413,357,l),
(276,355,o),
(140,355,o),
(3,357,c),
(3,318,l),
(140,320,o),
(276,320,o),
(413,318,c)
);
}
);
width = 600;
}
);
unicode = 163;
},
{
color = 0;
glyphname = plus;
lastChange = "2023-11-21 07:39:43 +0000";
layers = (
{
layerId = "60D037D9-62E9-4843-B070-F1594CB0B0D1";
width = 600;
},
{
layerId = m01;
shapes = (
{
closed = 1;
nodes = (
(234,331,o),
(34,335,q),
(34,181,l),
(194,185,o),
(429,181,q),
(429,335,l)
);
},
{
closed = 1;
nodes = (
(252,258,o),
(256,455,q),
(203,455,l),
(207,258,o),
(203,61,q),
(256,61,l)
);
}
);
width = 463;
}
);
unicode = 43;
},
{
color = 0;
glyphname = minus;
lastChange = "2023-11-21 07:29:33 +0000";
layers = (
{
layerId = "60D037D9-62E9-4843-B070-F1594CB0B0D1";
width = 600;
},
{
layerId = m01;
shapes = (
{
closed = 1;
nodes = (
(234,331,o),
(34,335,q),
(34,181,l),
(234,185,o),
(429,181,q),
(429,335,l)
);
}
);
width = 459;
}
);
unicode = 8722;
},
{
color = 0;
glyphname = multiply;
lastChange = "2023-11-21 07:56:54 +0000";
layers = (
{
layerId = "60D037D9-62E9-4843-B070-F1594CB0B0D1";
width = 600;
},
{
layerId = m01;
shapes = (
{
closed = 1;
nodes = (
(145,64,l),
(309,233,o),
(425,343,q),
(316,452,l),
(177,308,o),
(36,173,q)
);
},
{
closed = 1;
nodes = (
(420,120,l),
(247,278,o),
(86,442,q),
(41,397,l),
(208,240,o),
(374,74,q)
);
}
);
width = 461;
}
);
unicode = 215;
},
{
color = 0;
glyphname = divide;
lastChange = "2023-11-21 08:02:31 +0000";
layers = (
{
layerId = "60D037D9-62E9-4843-B070-F1594CB0B0D1";
width = 600;
},
{
layerId = m01;
shapes = (
{
ref = minus;
},
{
closed = 1;
nodes = (
(284,48,o),
(307,65,o),
(307,97,cs),
(307,126,o),
(284,147,o),
(232,147,cs),
(180,147,o),
(157,129,o),
(157,97,cs),
(157,68,o),
(178,48,o),
(232,48,cs)
);
},
{
closed = 1;
nodes = (
(284,371,o),
(307,388,o),
(307,420,cs),
(307,449,o),
(284,470,o),
(232,470,cs),
(180,470,o),
(157,452,o),
(157,420,cs),
(157,391,o),
(178,371,o),
(232,371,cs)
);
}
);
width = 459;
}
);
unicode = 247;
},
{
color = 0;
glyphname = equal;
lastChange = "2023-11-21 07:31:02 +0000";
layers = (
{
layerId = "60D037D9-62E9-4843-B070-F1594CB0B0D1";
width = 600;
},
{
layerId = m01;
shapes = (
{
closed = 1;
nodes = (
(304,433,o),
(104,437,q),
(104,283,l),
(304,287,o),
(499,283,q),
(499,437,l)
);
},
{
closed = 1;
nodes = (
(304,222,o),
(104,226,q),
(104,72,l),
(304,76,o),
(499,72,q),
(499,226,l)
);
}
);
width = 600;
}
);
unicode = 61;
},
{
color = 0;
glyphname = notequal;
lastChange = "2023-11-21 08:42:13 +0000";
layers = (
{
layerId = "60D037D9-62E9-4843-B070-F1594CB0B0D1";
width = 600;
},
{
layerId = m01;
shapes = (
{
closed = 1;
nodes = (
(304,433,o),
(104,437,q),
(104,283,l),
(304,287,o),
(499,283,q),
(499,437,l)
);
},
{
closed = 1;
nodes = (
(304,222,o),
(104,226,q),
(104,72,l),
(304,76,o),
(499,72,q),
(499,226,l)
);
},
{
closed = 1;
nodes = (
(422,500,l),
(369,500,l),
(181,0,l),
(234,0,l)
);
}
);
width = 600;
}
);
unicode = 8800;
},
{
color = 0;
glyphname = percent;
lastChange = "2023-11-21 08:25:32 +0000";
layers = (
{
layerId = "60D037D9-62E9-4843-B070-F1594CB0B0D1";
width = 600;
},
{
layerId = m01;
shapes = (
{
closed = 1;
nodes = (
(220,455,o),
(252,492,o),
(252,584,cs),
(252,678,o),
(220,716,o),
(141,716,cs),
(62,716,o),
(30,678,o),
(30,584,cs),
(30,492,o),
(61,455,o),
(141,455,cs)
);
},
{
closed = 1;
nodes = (
(68,552,o),
(57,556,o),
(57,583,cs),
(57,605,o),
(68,608,o),
(141,608,cs),
(214,608,o),
(224,605,o),
(224,583,cs),
(224,556,o),
(214,552,o),
(141,552,cs)
);
},
{
closed = 1;
nodes = (
(450,-16,o),
(482,21,o),
(482,113,cs),
(482,207,o),
(450,245,o),
(371,245,cs),
(292,245,o),
(260,207,o),
(260,113,cs),
(260,21,o),
(291,-16,o),
(371,-16,cs)
);
},
{
closed = 1;
nodes = (
(298,81,o),
(287,85,o),
(287,112,cs),
(287,134,o),
(298,137,o),
(371,137,cs),
(444,137,o),
(454,134,o),
(454,112,cs),
(454,85,o),
(444,81,o),
(371,81,cs)
);
},
{
closed = 1;
nodes = (
(222,249,o),
(324,451,o),
(446,716,c),
(392,716,l),
(286,451,o),
(183,249,o),
(66,-16,c),
(120,-16,l)
);
}
);
width = 512;
}
);
unicode = 37;
},
{
color = 8;
glyphname = dottedCircle;
lastChange = "2023-11-17 18:23:52 +0000";
layers = (
{
anchors = (
{
name = bottom;
pos = (369,0);
},
{
name = top;
pos = (369,740);
}
);
layerId = "60D037D9-62E9-4843-B070-F1594CB0B0D1";
shapes = (
{
closed = 1;
nodes = (
(395,598,o),
(415,617,o),
(415,644,cs),
(415,670,o),
(395,689,o),
(369,689,cs),
(343,689,o),
(323,670,o),
(323,644,cs),
(323,617,o),
(343,598,o),
(369,598,cs)
);
},
{
closed = 1;
nodes = (
(532,561,o),
(552,581,o),
(552,607,cs),
(552,634,o),
(532,653,o),
(506,653,cs),
(479,653,o),
(460,634,o),
(460,607,cs),
(460,581,o),
(479,561,o),
(506,561,cs)
);
},
{
closed = 1;
nodes = (
(633,461,o),
(652,480,o),
(652,507,cs),
(652,533,o),
(633,553,o),
(606,553,cs),
(580,553,o),
(560,533,o),
(560,507,cs),
(560,480,o),
(580,461,o),
(606,461,cs)
);
},
{
closed = 1;
nodes = (
(669,324,o),
(688,344,o),
(688,370,cs),
(688,396,o),
(669,416,o),
(643,416,cs),
(616,416,o),
(597,396,o),
(597,370,cs),
(597,344,o),
(616,324,o),
(643,324,cs)
);
},
{
closed = 1;
nodes = (
(633,187,o),
(652,207,o),
(652,233,cs),
(652,260,o),
(633,279,o),
(606,279,cs),
(580,279,o),
(560,260,o),
(560,233,cs),
(560,207,o),
(580,187,o),
(606,187,cs)
);
},
{
closed = 1;
nodes = (
(532,87,o),
(552,106,o),
(552,133,cs),
(552,159,o),
(532,179,o),
(506,179,cs),
(479,179,o),
(460,159,o),
(460,133,cs),
(460,106,o),
(479,87,o),
(506,87,cs)
);
},
{
closed = 1;
nodes = (
(395,51,o),
(415,70,o),
(415,96,cs),
(415,123,o),
(395,142,o),
(369,142,cs),
(343,142,o),
(323,123,o),
(323,96,cs),
(323,70,o),
(343,51,o),
(369,51,cs)
);
},
{
closed = 1;
nodes = (
(259,87,o),
(278,106,o),
(278,133,cs),
(278,159,o),
(259,179,o),
(232,179,cs),
(206,179,o),
(186,159,o),
(186,133,cs),
(186,106,o),
(206,87,o),
(232,87,cs)
);
},
{
closed = 1;
nodes = (
(158,187,o),
(178,207,o),
(178,233,cs),
(178,260,o),
(158,279,o),
(132,279,cs),
(105,279,o),
(86,260,o),
(86,233,cs),
(86,207,o),
(105,187,o),
(132,187,cs)
);
},
{
closed = 1;
nodes = (
(122,324,o),
(141,344,o),
(141,370,cs),
(141,396,o),
(122,416,o),
(95,416,cs),
(69,416,o),
(50,396,o),
(50,370,cs),
(50,344,o),
(69,324,o),
(95,324,cs)
);
},
{
closed = 1;
nodes = (
(158,461,o),
(178,480,o),
(178,507,cs),
(178,533,o),
(158,553,o),
(132,553,cs),
(105,553,o),
(86,533,o),
(86,507,cs),
(86,480,o),
(105,461,o),
(132,461,cs)
);
},
{
closed = 1;
nodes = (
(259,561,o),
(278,581,o),
(278,607,cs),
(278,634,o),
(259,653,o),
(232,653,cs),
(206,653,o),
(186,634,o),
(186,607,cs),
(186,581,o),
(206,561,o),
(232,561,cs)
);
}
);
width = 738;
},
{
anchors = (
{
name = bottom;
pos = (369,0);
},
{
name = top;
pos = (369,740);
}
);
layerId = m01;
shapes = (
{
closed = 1;
nodes = (
(395,598,o),
(415,617,o),
(415,644,cs),
(415,670,o),
(395,689,o),
(369,689,cs),
(343,689,o),
(323,670,o),
(323,644,cs),
(323,617,o),
(343,598,o),
(369,598,cs)
);
},
{
closed = 1;
nodes = (
(532,561,o),
(552,581,o),
(552,607,cs),
(552,634,o),
(532,653,o),
(506,653,cs),
(479,653,o),
(460,634,o),
(460,607,cs),
(460,581,o),
(479,561,o),
(506,561,cs)
);
},
{
closed = 1;
nodes = (
(633,461,o),
(652,480,o),
(652,507,cs),
(652,533,o),
(633,553,o),
(606,553,cs),
(580,553,o),
(560,533,o),
(560,507,cs),
(560,480,o),
(580,461,o),
(606,461,cs)
);
},
{
closed = 1;
nodes = (
(669,324,o),
(688,344,o),
(688,370,cs),
(688,396,o),
(669,416,o),
(643,416,cs),
(616,416,o),
(597,396,o),
(597,370,cs),
(597,344,o),
(616,324,o),
(643,324,cs)
);
},
{
closed = 1;
nodes = (
(633,187,o),
(652,207,o),
(652,233,cs),
(652,260,o),
(633,279,o),
(606,279,cs),
(580,279,o),
(560,260,o),
(560,233,cs),
(560,207,o),
(580,187,o),
(606,187,cs)
);
},
{
closed = 1;
nodes = (
(532,87,o),
(552,106,o),
(552,133,cs),
(552,159,o),
(532,179,o),
(506,179,cs),
(479,179,o),
(460,159,o),
(460,133,cs),
(460,106,o),
(479,87,o),
(506,87,cs)
);
},
{
closed = 1;
nodes = (
(395,51,o),
(415,70,o),
(415,96,cs),
(415,123,o),
(395,142,o),
(369,142,cs),
(343,142,o),
(323,123,o),
(323,96,cs),
(323,70,o),
(343,51,o),
(369,51,cs)
);
},
{
closed = 1;
nodes = (
(259,87,o),
(278,106,o),
(278,133,cs),
(278,159,o),
(259,179,o),
(232,179,cs),
(206,179,o),
(186,159,o),
(186,133,cs),
(186,106,o),
(206,87,o),
(232,87,cs)
);
},
{
closed = 1;
nodes = (
(158,187,o),
(178,207,o),
(178,233,cs),
(178,260,o),
(158,279,o),
(132,279,cs),
(105,279,o),
(86,260,o),
(86,233,cs),
(86,207,o),
(105,187,o),
(132,187,cs)
);
},
{
closed = 1;
nodes = (
(122,324,o),
(141,344,o),
(141,370,cs),
(141,396,o),
(122,416,o),
(95,416,cs),
(69,416,o),
(50,396,o),
(50,370,cs),
(50,344,o),
(69,324,o),
(95,324,cs)
);
},
{
closed = 1;
nodes = (
(158,461,o),
(178,480,o),
(178,507,cs),
(178,533,o),
(158,553,o),
(132,553,cs),
(105,553,o),
(86,533,o),
(86,507,cs),
(86,480,o),
(105,461,o),
(132,461,cs)
);
},
{
closed = 1;
nodes = (
(259,561,o),
(278,581,o),
(278,607,cs),
(278,634,o),
(259,653,o),
(232,653,cs),
(206,653,o),
(186,634,o),
(186,607,cs),
(186,581,o),
(206,561,o),
(232,561,cs)
);
}
);
width = 738;
}
);
metricLeft = "=50";
metricRight = "=|";
unicode = 9676;
},
{
color = 8;
glyphname = lozenge;
kernLeft = lozenge;
kernRight = lozenge;
lastChange = "2023-11-17 18:23:52 +0000";
layers = (
{
layerId = "60D037D9-62E9-4843-B070-F1594CB0B0D1";
shapes = (
{
closed = 1;
nodes = (
(197,105,l),
(255,105,l),
(402,350,l),
(255,595,l),
(197,595,l),
(50,350,l)
);
},
{
closed = 1;
nodes = (
(344,350,l),
(226,154,l),
(108,350,l),
(226,546,l)
);
}
);
width = 452;
},
{
layerId = m01;
shapes = (
{
closed = 1;
nodes = (
(197,105,l),
(255,105,l),
(402,350,l),
(255,595,l),
(197,595,l),
(50,350,l)
);
},
{
closed = 1;
nodes = (
(344,350,l),
(226,154,l),
(108,350,l),
(226,546,l)
);
}
);
width = 452;
}
);
metricLeft = "=50";
metricRight = "=|";
unicode = 9674;
},
{
color = 0;
glyphname = dotaccentcomb;
lastChange = "2023-11-17 18:20:49 +0000";
layers = (
{
anchors = (
{
name = _top;
pos = (81,500);
},
{
name = top;
pos = (81,682);
}
);
layerId = "60D037D9-62E9-4843-B070-F1594CB0B0D1";
shapes = (
{
closed = 1;
nodes = (
(111,571,o),
(136,595,o),
(136,627,cs),
(136,657,o),
(111,682,o),
(81,682,cs),
(50,682,o),
(25,657,o),
(25,627,cs),
(25,595,o),
(50,571,o),
(81,571,cs)
);
}
);
width = 161;
},
{
anchors = (
{
name = _top;
pos = (102,500);
},
{
name = top;
pos = (102,712);
}
);
layerId = m01;
shapes = (
{
closed = 1;
nodes = (
(144,559,o),
(178,593,o),
(178,636,cs),
(178,678,o),
(144,712,o),
(102,712,cs),
(59,712,o),
(25,678,o),
(25,636,cs),
(25,593,o),
(59,559,o),
(102,559,cs)
);
}
);
width = 203;
}
);
unicode = 775;
},
{
color = 0;
glyphname = tildecomb;
lastChange = "2023-11-17 18:20:49 +0000";
layers = (
{
anchors = (
{
name = _top;
pos = (188,480);
},
{
name = top;
pos = (188,707);
}
);
layerId = "60D037D9-62E9-4843-B070-F1594CB0B0D1";
shapes = (
{
closed = 1;
nodes = (
(100,579,l),
(121.998,609.997,o),
(137,688,o),
(166,672,cs),
(195,656,o),
(231,586,o),
(249,584,cs),
(267,582,o),
(305,614,o),
(318,657,c),
(288,699,l),
(242,660,l),
(220,676,o),
(199,705,o),
(176,707,cs),
(153,709,o),
(74,638,o),
(57,608,cs)
);
}
);
width = 300;
},
{
anchors = (
{
name = _top;
pos = (188,500);
},
{
name = top;
pos = (188,707);
}
);
layerId = m01;
shapes = (
{
closed = 1;
nodes = (
(100,579,l),
(121.998,609.997,o),
(137,688,o),
(166,672,cs),
(195,656,o),
(231,586,o),
(249,584,cs),
(267,582,o),
(305,614,o),
(318,657,c),
(288,699,l),
(242,660,l),
(220,676,o),
(199,705,o),
(176,707,cs),
(153,709,o),
(74,638,o),
(57,608,cs)
);
}
);
width = 300;
}
);
unicode = 771;
},
